<svg width="1em" height="1em" viewBox="0 0 17 17" fill="none" xmlns="http://www.w3.org/2000/svg">
<path d="M12.9022 7.34352C12.9022 7.53615 12.7453 7.69528 12.5504 7.69528H11.5705V8.3234H12.5504C12.7453 8.3234 12.9022 8.48139 12.9022 8.67515C12.9022 8.86717 12.7453 9.0263 12.5504 9.0263H11.2182C11.0256 9.0263 10.8681 8.86717 10.8681 8.67515V6.01131C10.8681 5.81869 11.0256 5.65956 11.2199 5.65956H12.5521C12.7453 5.65956 12.9022 5.81869 12.9022 6.01131C12.9022 6.20617 12.7453 6.36306 12.5504 6.36306H11.5705V6.99117H12.5504C12.7453 6.99117 12.9022 7.1503 12.9022 7.34352ZM10.1568 9.00787C10.1211 9.0196 10.0825 9.02522 10.0457 9.02522C9.92791 9.02522 9.82741 8.97498 9.76094 8.8856L8.39696 7.03365V8.67515C8.39696 8.86717 8.24118 9.0263 8.04467 9.0263C7.85144 9.0263 7.69513 8.86717 7.69513 8.67515V6.01131C7.69513 5.86056 7.79175 5.72656 7.93519 5.6791C7.96869 5.66626 8.01117 5.66068 8.04353 5.66068C8.15241 5.66068 8.25291 5.71875 8.31991 5.8025L9.69455 7.66177V6.01131C9.69455 5.81869 9.852 5.65956 10.0463 5.65956C10.2389 5.65956 10.398 5.81869 10.398 6.01131V8.67515C10.398 8.8259 10.3009 8.9599 10.1568 9.00787ZM6.84033 9.0263C6.64771 9.0263 6.49026 8.86717 6.49026 8.67515V6.01131C6.49026 5.81869 6.64771 5.65956 6.84201 5.65956C7.03519 5.65956 7.19263 5.81869 7.19263 6.01131V8.67515C7.19263 8.86717 7.03519 9.0263 6.84033 9.0263ZM5.81579 9.0263H4.48361C4.29098 9.0263 4.13186 8.86717 4.13186 8.67515V6.01131C4.13186 5.81869 4.29098 5.65956 4.48361 5.65956C4.67791 5.65956 4.83536 5.81869 4.83536 6.01131V8.3234H5.81579C6.01009 8.3234 6.16698 8.48139 6.16698 8.67515C6.16698 8.86717 6.00953 9.0263 5.81579 9.0263ZM8.4383 1.80371C4.74491 1.80371 1.73828 4.24419 1.73828 7.24302C1.73828 9.92912 4.12236 12.1798 7.34117 12.6074C7.55946 12.6533 7.85647 12.7515 7.93184 12.9369C7.99884 13.1049 7.97599 13.3645 7.95308 13.5399L7.86149 14.1094C7.83637 14.2774 7.72749 14.7715 8.44721 14.4695C9.16799 14.1685 12.3086 12.1927 13.7156 10.5751C14.6782 9.52042 15.1383 8.44005 15.1383 7.24302C15.1383 4.24419 12.1317 1.80371 8.4383 1.80371Z" fill="currentColor"/>
</svg>
