<svg width="1em" height="1em" viewBox="0 0 17 17" fill="none" xmlns="http://www.w3.org/2000/svg">
<path d="M8.96152 8.36018C8.96152 10.4089 7.27287 12.0724 5.18095 12.0724C3.08904 12.0724 1.40039 10.4089 1.40039 8.36018C1.40039 6.31148 3.08904 4.64795 5.18095 4.64795C7.27287 4.64795 8.96152 6.31148 8.96152 8.36018ZM13.1033 8.36018C13.1033 10.2859 12.2548 11.8511 11.2131 11.8511C10.1713 11.8511 9.32277 10.2859 9.32277 8.36018C9.32277 6.43441 10.1713 4.86921 11.2131 4.86921C12.2548 4.86921 13.1033 6.42621 13.1033 8.36018ZM14.8004 8.36018C14.8004 10.0893 14.5063 11.4906 14.1367 11.4906C13.767 11.4906 13.473 10.0893 13.473 8.36018C13.473 6.63108 13.767 5.22978 14.1367 5.22978C14.5063 5.22978 14.8004 6.63108 14.8004 8.36018Z" fill="currentColor"/>
</svg>
