<svg width="1em" height="1em" viewBox="0 0 17 17" fill="none" xmlns="http://www.w3.org/2000/svg">
<path d="M4.55463 12.5819C4.58222 12.7323 4.49332 12.8734 4.34617 12.9041C4.20515 12.9317 4.06106 12.8427 4.03347 12.6954C4.00588 12.5543 4.09479 12.4039 4.2358 12.3733C4.37376 12.3426 4.52397 12.4316 4.55463 12.5819ZM8.29468 14.4505C8.12913 14.5702 8.08622 14.8003 8.19658 14.9752C8.31614 15.147 8.54606 15.1931 8.7208 15.0734C8.88634 14.9537 8.92926 14.7236 8.8097 14.5487C8.69934 14.3769 8.46942 14.3309 8.29468 14.4505ZM6.04758 2.35207C6.21313 2.31525 6.31736 2.14956 6.28057 1.98694C6.25298 1.81511 6.08744 1.71079 5.92189 1.74761C5.75635 1.78443 5.65212 1.95012 5.68277 2.11274C5.71956 2.28764 5.88204 2.39196 6.04758 2.35207ZM2.86548 7.66337C2.6049 7.48233 2.24622 7.54984 2.06535 7.81985C1.88448 8.08066 1.95192 8.44886 2.21557 8.62989C2.47614 8.81706 2.83482 8.74956 3.01569 8.47954C3.1935 8.20646 3.12605 7.84747 2.86548 7.66337ZM9.9777 3.18973C10.2536 3.02404 10.3364 2.66504 10.18 2.3981C10.0145 2.12195 9.66501 2.03297 9.39523 2.19559C9.12546 2.35821 9.03656 2.72027 9.2021 2.99642C9.35538 3.26644 9.70792 3.35542 9.9777 3.18973ZM4.98075 4.70856C5.18308 4.56741 5.226 4.29126 5.09418 4.08875C4.96236 3.88624 4.68338 3.84329 4.49025 3.97522C4.28792 4.11637 4.245 4.39252 4.37682 4.59503C4.50864 4.80061 4.78455 4.84356 4.98075 4.70856ZM14.7141 8.78945C14.5209 8.8324 14.3922 9.02878 14.4382 9.23129C14.475 9.42459 14.6712 9.55346 14.8643 9.50744C15.0574 9.47062 15.1862 9.27424 15.1402 9.07173C15.1003 8.8815 14.9072 8.75263 14.7141 8.78945ZM15.7502 7.30437C15.7227 7.15402 15.5786 7.06504 15.4376 7.09572C15.2873 7.12334 15.1984 7.27676 15.2291 7.42404C15.2567 7.56518 15.4008 7.66337 15.551 7.63268C15.692 7.59586 15.787 7.45472 15.7502 7.30437ZM13.6534 5.37439C13.4296 5.53087 13.3775 5.8377 13.5246 6.06169C13.6748 6.28568 13.9783 6.33784 14.2052 6.19056C14.4228 6.03408 14.475 5.72725 14.3247 5.50326C14.1745 5.2762 13.868 5.2179 13.6534 5.37439ZM13.4878 9.02264C14.1745 10.1518 13.8833 11.6399 12.8011 12.4009C12.3474 12.7231 11.8324 12.8642 11.3143 12.8489C11.0016 14.0823 9.49946 14.5395 8.56752 13.7019C8.53993 13.7264 8.50007 13.7448 8.46942 13.7786C7.44857 14.4873 6.05678 14.2327 5.34862 13.1956C5.09418 12.8212 4.96542 12.3947 4.95316 11.9682C3.24255 11.6829 2.59877 9.50744 3.87713 8.31385C3.13832 7.08652 3.89246 5.50326 5.27198 5.30688C5.92802 3.57327 8.08622 2.75403 9.54851 3.88931C11.3112 3.30633 13.1108 4.65946 12.9697 6.53422C14.0458 6.86253 14.3523 8.28317 13.4878 9.02264ZM11.6577 10.968C11.5779 10.4279 10.5878 10.8483 10.5295 10.2592C10.4498 9.42152 11.673 7.61427 11.5749 6.90856C11.486 6.27955 11.0691 6.14761 10.7012 6.1384C10.3517 6.1292 10.2597 6.19056 10.1402 6.25807C10.0635 6.30102 9.9685 6.38694 9.83362 6.24886C9.66807 6.09238 9.54238 5.94203 9.32779 5.91135C9.0059 5.85918 8.86488 5.96351 8.63189 6.16602C8.54299 6.24273 8.3192 6.50353 8.10767 6.40535C8.01877 6.36239 7.70608 6.20284 7.47922 6.10772C7.0531 5.92055 6.43385 6.22738 6.21006 6.6324C5.87284 7.23073 5.2168 9.59335 5.1187 9.90632C4.89491 10.6028 5.4038 11.1766 6.08437 11.1398C6.3756 11.1245 6.56261 11.0201 6.74961 10.6857C6.85384 10.4924 7.84097 7.86894 7.91454 7.74007C7.96666 7.65109 8.14753 7.53143 8.29774 7.60814C8.44796 7.68791 8.47861 7.8536 8.45409 8.00395C8.4265 8.25862 7.72141 9.8603 7.69995 10.0383C7.61105 10.6366 8.40197 10.7348 8.70853 10.1426C8.80663 9.95541 9.90412 7.7186 9.99916 7.57132C10.1126 7.40563 10.1923 7.35346 10.3057 7.36267C10.3854 7.36267 10.5234 7.38722 10.4927 7.64802C10.4559 7.89349 9.5761 9.54119 9.47494 9.94314C9.35538 10.4832 9.64661 11.0263 10.1248 11.2687C10.4253 11.4067 11.7619 11.6675 11.6577 10.968ZM11.8079 13.3827C11.5381 13.5761 11.4707 13.9596 11.6577 14.2357C11.8447 14.5119 12.2187 14.5794 12.4946 14.3922C12.7705 14.1989 12.8379 13.8154 12.6509 13.5392C12.4578 13.2631 12.0838 13.1864 11.8079 13.3827Z" fill="currentColor"/>
</svg>
