<svg width="1em" height="1em" viewBox="0 0 17 17" fill="none" xmlns="http://www.w3.org/2000/svg">
<path d="M9.00343 3.589C9.00343 4.60555 8.17171 5.43727 7.15516 5.43727C6.1386 5.43727 5.30688 4.60555 5.30688 3.589C5.30688 2.57245 6.1386 1.74072 7.15516 1.74072C8.17171 1.74072 9.00343 2.57245 9.00343 3.589Z" fill="currentColor"/>
<path d="M14.5483 4.05107C14.5483 5.34486 13.5317 6.36141 12.2379 6.36141C10.9441 6.36141 9.92757 5.34486 9.92757 4.05107C9.92757 2.75727 10.9441 1.74072 12.2379 1.74072C13.5317 1.74072 14.5483 2.75727 14.5483 4.05107Z" fill="currentColor"/>
<path d="M2.07244 4.05104C2.07244 4.41869 2.21849 4.77128 2.47845 5.03124C2.73842 5.2912 3.091 5.43725 3.45865 5.43725C3.82629 5.43725 4.17888 5.2912 4.43885 5.03124C4.69881 4.77128 4.84486 4.41869 4.84486 4.05104C4.84486 3.6834 4.69881 3.33081 4.43885 3.07085C4.17888 2.81088 3.82629 2.66484 3.45865 2.66484C3.091 2.66484 2.73842 2.81088 2.47845 3.07085C2.21849 3.33081 2.07244 3.6834 2.07244 4.05104Z" fill="currentColor"/>
<path d="M12.469 6.82348H12.0069C10.9441 6.82348 10.02 7.37796 9.46552 8.25589V7.97865C9.46552 6.82348 8.54139 5.89934 7.38621 5.89934H6.92414C6.18483 5.89934 5.53794 6.269 5.16828 6.86969C4.93725 6.3152 4.33656 5.89934 3.68966 5.89934H3.22759C2.34966 5.89934 1.61035 6.63865 1.61035 7.51658V10.7511C1.61035 10.8897 1.70277 10.9821 1.84139 10.9821H4.84483V12.5993C4.84483 12.738 4.93725 12.8304 5.07587 12.8304H9.00345V14.9097C9.00345 15.0483 9.09587 15.1407 9.23449 15.1407H15.2414C15.38 15.1407 15.4724 15.0483 15.4724 14.9097V9.82693C15.4724 8.16348 14.1324 6.82348 12.469 6.82348Z" fill="currentColor"/>
</svg>
