<svg width="1em" height="1em" viewBox="0 0 17 17" fill="none" xmlns="http://www.w3.org/2000/svg">
<path d="M8.0056 2.158C7.93733 2.18596 7.74553 2.38922 7.74553 2.43555C7.74553 2.45099 7.44526 3.08622 7.07715 3.845C6.70904 4.60377 6.39327 5.26655 6.37484 5.31914C6.35935 5.36839 6.33129 5.42724 6.31915 5.4456C6.30365 5.46396 6.21696 5.63049 6.12441 5.8158C6.02558 6.01948 5.92004 6.18893 5.86141 6.23526C5.71903 6.35546 5.81493 6.34336 2.96509 6.66097C1.67775 6.8058 1.53536 6.8275 1.4583 6.89846C1.4026 6.9477 1.38083 7.12676 1.42103 7.23151C1.43359 7.25906 1.98723 7.78369 2.65268 8.39722C4.75666 10.3338 4.62055 10.1982 4.62055 10.343C4.62055 10.4139 4.57742 10.6698 4.52758 10.9165C4.47481 11.1631 4.35755 11.78 4.26165 12.2888C4.16575 12.7975 4.05435 13.3806 4.01415 13.5838C3.80057 14.6694 3.79764 14.7003 3.90904 14.8176C4.01415 14.9286 4.13476 14.9161 4.45346 14.7558C4.75038 14.6047 4.77843 14.5893 5.36306 14.247C5.57664 14.1235 5.85513 13.9632 5.98202 13.8923C6.10892 13.8213 6.34385 13.6828 6.50174 13.5872C6.65962 13.4916 6.79572 13.4144 6.80494 13.4144C6.81122 13.4144 6.90712 13.3589 7.01517 13.2909C7.12321 13.2228 7.22247 13.1677 7.23503 13.1677C7.24759 13.1677 7.35899 13.106 7.48253 13.0292C7.77652 12.8472 8.0303 12.7545 8.17562 12.7825C8.2376 12.795 8.38585 12.8535 8.50353 12.9181C8.81301 13.0818 10.7625 14.2011 11.3689 14.5617C11.8856 14.8702 12.0372 14.9286 12.2136 14.8823C12.3312 14.8543 12.3652 14.6849 12.3249 14.3489C12.3065 14.1978 12.2785 14.0279 12.263 13.9695C12.2383 13.871 12.1361 13.3251 11.8886 11.9557C11.7742 11.305 11.7742 11.2925 12.031 11.1969C12.3869 11.0642 12.554 10.9473 12.4891 10.8822C12.4673 10.8605 12.2693 10.8856 11.858 10.9594C11.0937 11.098 10.9358 11.1197 10.1284 11.194C9.2096 11.2804 8.36156 11.2988 7.22875 11.2587C6.34385 11.2278 5.29187 11.1506 5.23282 11.1139C5.18633 11.083 5.20811 10.9874 5.2793 10.9256C5.31657 10.8918 5.78687 10.5554 6.32208 10.1765C7.99931 8.99239 9.08857 8.20899 9.17819 8.12552C9.33273 7.98069 9.32058 7.97443 8.67691 7.89096C7.65884 7.76157 7.39291 7.73987 5.7341 7.66266C5.18005 7.63803 4.67876 7.60715 4.62013 7.59796C4.01373 7.49613 7.10479 7.21858 8.41056 7.25864C9.26781 7.28327 10.2767 7.35422 10.8705 7.43143C11.4246 7.50531 11.4585 7.51157 11.4585 7.57334C11.4585 7.62259 11.3999 7.66599 10.097 8.56C9.5618 8.9302 8.99225 9.32169 8.83144 9.43271C8.67356 9.54373 8.50981 9.65767 8.47254 9.6823C8.29916 9.79958 7.71747 10.2036 7.55666 10.3205C7.45447 10.3943 7.37407 10.4745 7.37407 10.4995C7.37407 10.5579 7.52567 10.5951 7.99303 10.6506C9.23389 10.7954 11.5422 10.8755 11.6444 10.7741C11.6662 10.7524 11.6628 10.6848 11.6289 10.5429C11.6042 10.4348 11.5824 10.333 11.5824 10.3179C11.5824 10.2745 12.1084 9.75033 12.8354 9.0721C14.7568 7.27742 14.8004 7.23402 14.8004 7.09211C14.8004 6.96857 14.6982 6.85755 14.5466 6.82083C14.4725 6.80246 14.0298 6.75279 13.5625 6.70688C13.0951 6.66348 12.5783 6.61423 12.4175 6.59879C12.2567 6.58042 11.9162 6.5462 11.6595 6.51865C10.6787 6.42015 10.3784 6.38301 10.3072 6.3492C10.1711 6.28743 10.0442 6.03451 9.10658 3.93139C8.4382 2.42636 8.37957 2.30616 8.2866 2.22311C8.20954 2.15215 8.08893 2.12461 8.00518 2.15841L8.0056 2.158Z" fill="currentColor"/>
</svg>
