<svg width="1em" height="1em" viewBox="0 0 17 17" fill="none" xmlns="http://www.w3.org/2000/svg">
<g clip-path="url(#clip0_12532_50241)">
<path d="M2.92607 6.11174C4.78388 4.25564 6.94875 3.40947 7.76253 4.22493C8.12246 4.58489 8.15663 5.20587 7.92628 5.94797C7.80689 6.32158 8.2777 6.11515 8.2777 6.11515C9.77897 5.48735 11.0892 5.44982 11.5669 6.13392C11.8211 6.4973 11.7971 7.00909 11.5618 7.60108C11.4526 7.87404 11.5941 7.91665 11.8023 7.97809C12.6484 8.2408 13.5901 8.87374 13.5901 9.99117C13.5901 11.8421 10.9237 14.1708 6.91465 14.1708C3.85582 14.1708 0.730469 12.6883 0.730469 10.2505C0.730469 8.97605 1.5374 7.50212 2.92607 6.11174ZM11.055 9.95874C10.8964 8.35684 8.78951 7.25301 6.34997 7.49529C3.91042 7.73582 2.05943 9.23025 2.21808 10.8322C2.37674 12.4358 4.48363 13.5379 6.92316 13.2974C9.36276 13.0551 11.212 11.5606 11.055 9.95874ZM4.18849 10.0287C4.69346 9.00506 6.00536 8.42679 7.1671 8.72869C8.36815 9.03923 8.98059 10.172 8.49096 11.274C7.99281 12.4017 6.5598 13.0022 5.34515 12.6098C4.17143 12.2311 3.67499 11.0728 4.18849 10.0287ZM6.00707 10.416C5.63005 10.2573 5.14214 10.421 4.90841 10.7861C4.67128 11.153 4.78217 11.5913 5.15749 11.762C5.53792 11.9342 6.0446 11.7705 6.28003 11.3935C6.51204 11.0131 6.38921 10.578 6.00707 10.416ZM6.93683 10.0287C6.79184 9.97241 6.61099 10.0406 6.52569 10.1839C6.4438 10.3272 6.48986 10.491 6.63487 10.5507C6.78159 10.6121 6.97093 10.5422 7.05622 10.3954C7.13816 10.2487 7.08523 10.0833 6.93683 10.0287ZM10.7514 2.31423C12.0701 2.03445 13.4963 2.44561 14.4653 3.51695C15.4343 4.5883 15.6937 6.05032 15.2825 7.33837C15.1881 7.63391 14.8692 7.79712 14.5728 7.70004C14.2759 7.60275 14.1139 7.28544 14.2094 6.98862C14.5029 6.07762 14.3178 5.03607 13.6294 4.2744C12.9402 3.51183 11.9269 3.2201 10.9885 3.4197C10.6832 3.48466 10.3845 3.28966 10.3181 2.98468C10.2515 2.67931 10.446 2.37902 10.7514 2.31423ZM11.1711 4.2744C11.8125 4.13792 12.5085 4.33752 12.9794 4.85955C13.4503 5.38158 13.5765 6.09469 13.3752 6.71907C13.293 6.97379 13.0182 7.11473 12.7627 7.03127C12.5069 6.94768 12.3687 6.67472 12.4523 6.41712C12.5529 6.11174 12.4898 5.76373 12.2595 5.50783C12.0275 5.25363 11.688 5.15639 11.3741 5.22293C11.1114 5.28093 10.8538 5.11204 10.7974 4.85102C10.7412 4.5883 10.9083 4.33031 11.1711 4.2744Z" fill="currentColor"/>
</g>
<defs>
<clipPath id="clip0_12532_50241">
<rect width="16.08" height="16.08" fill="white" transform="translate(0.0605469 0.160156)"/>
</clipPath>
</defs>
</svg>
