<svg width="1em" height="1em" viewBox="0 0 17 17" fill="none" xmlns="http://www.w3.org/2000/svg">
<path d="M8.70423 2.9209C9.06208 2.92287 9.9574 2.93152 10.9087 2.96963L11.2459 2.98433C12.2037 3.02968 13.1607 3.10715 13.6353 3.23948C14.2684 3.41733 14.766 3.93628 14.9342 4.5941C15.202 5.63869 15.2355 7.6775 15.2396 8.17088L15.2402 8.27313V8.28029C15.2402 8.28029 15.2402 8.28277 15.2402 8.28753L15.2396 8.38977C15.2355 8.88316 15.202 10.922 14.9342 11.9666C14.7636 12.6268 14.266 13.1458 13.6353 13.3212C13.1607 13.4535 12.2037 13.531 11.2459 13.5763L10.9087 13.591C9.9574 13.6291 9.06208 13.6377 8.70423 13.6398L8.54719 13.6403H8.54022C8.54022 13.6403 8.53787 13.6403 8.53325 13.6403L8.37634 13.6398C7.61897 13.6356 4.45229 13.6014 3.44514 13.3212C2.81205 13.1433 2.31446 12.6244 2.14625 11.9666C1.87847 10.922 1.845 8.88316 1.84082 8.38977V8.17088C1.845 7.6775 1.87847 5.63869 2.14625 4.5941C2.31679 3.93384 2.81438 3.4149 3.44514 3.23948C4.45229 2.95924 7.61897 2.92507 8.37634 2.9209H8.70423ZM7.20022 5.93532V10.6253L11.2202 8.28029L7.20022 5.93532Z" fill="currentColor"/>
</svg>
