<svg xmlns="http://www.w3.org/2000/svg" xmlns:xlink="http://www.w3.org/1999/xlink" width="500" zoomAndPan="magnify" viewBox="0 0 375 374.999991" height="500" preserveAspectRatio="xMidYMid meet" version="1.2"><defs/><g id="a184a45465"><g style="fill:#0081fb;fill-opacity:1;"><g transform="translate(31.234543, 187.115502)"><path style="stroke:none" d="M 10.328125 -42.546875 C 10.535156 -42.546875 10.828125 -42.441406 11.203125 -42.234375 C 11.585938 -42.035156 11.78125 -41.539062 11.78125 -40.75 L 11.78125 -1.75 C 11.78125 -0.957031 11.585938 -0.457031 11.203125 -0.25 C 10.828125 -0.0507812 10.535156 0.046875 10.328125 0.046875 L 5.578125 0.046875 C 5.367188 0.046875 5.070312 -0.0507812 4.6875 -0.25 C 4.3125 -0.457031 4.125 -0.957031 4.125 -1.75 L 4.125 -40.75 C 4.125 -41.539062 4.3125 -42.035156 4.6875 -42.234375 C 5.070312 -42.441406 5.367188 -42.546875 5.578125 -42.546875 Z M 10.328125 -42.546875 "/></g></g><g style="fill:#0081fb;fill-opacity:1;"><g transform="translate(45.850915, 187.115502)"><path style="stroke:none" d="M 40.6875 -42.546875 C 40.894531 -42.546875 41.1875 -42.453125 41.5625 -42.265625 C 41.945312 -42.078125 42.140625 -41.570312 42.140625 -40.75 L 42.140625 -6.609375 C 42.140625 -4.097656 41.773438 -2.378906 41.046875 -1.453125 C 40.328125 -0.453125 39.210938 0.046875 37.703125 0.046875 L 33.921875 0.046875 C 33.234375 0.046875 32.648438 -0.00390625 32.171875 -0.109375 C 31.929688 -0.171875 31.691406 -0.242188 31.453125 -0.328125 C 31.210938 -0.421875 30.988281 -0.535156 30.78125 -0.671875 C 30.363281 -0.910156 29.984375 -1.289062 29.640625 -1.8125 C 29.472656 -2.050781 29.285156 -2.320312 29.078125 -2.625 C 28.867188 -2.9375 28.660156 -3.300781 28.453125 -3.71875 L 12.078125 -32.734375 C 12.046875 -32.804688 12.007812 -32.847656 11.96875 -32.859375 C 11.9375 -32.878906 11.921875 -32.890625 11.921875 -32.890625 L 11.671875 -32.890625 C 11.671875 -32.890625 11.671875 -32.878906 11.671875 -32.859375 C 11.671875 -32.847656 11.671875 -32.828125 11.671875 -32.796875 L 11.671875 -1.75 C 11.671875 -0.957031 11.488281 -0.457031 11.125 -0.25 C 10.769531 -0.0507812 10.46875 0.046875 10.21875 0.046875 L 5.625 0.046875 C 5.382812 0.046875 5.070312 -0.0507812 4.6875 -0.25 C 4.3125 -0.457031 4.125 -0.957031 4.125 -1.75 L 4.125 -35.890625 C 4.125 -38.398438 4.488281 -40.140625 5.21875 -41.109375 C 5.976562 -42.066406 7.097656 -42.546875 8.578125 -42.546875 L 12.453125 -42.546875 C 12.796875 -42.546875 13.117188 -42.535156 13.421875 -42.515625 C 13.734375 -42.503906 14.007812 -42.484375 14.25 -42.453125 C 14.800781 -42.347656 15.285156 -42.140625 15.703125 -41.828125 C 16.046875 -41.585938 16.40625 -41.191406 16.78125 -40.640625 C 16.957031 -40.398438 17.140625 -40.125 17.328125 -39.8125 C 17.515625 -39.5 17.710938 -39.15625 17.921875 -38.78125 L 34.234375 -9.765625 C 34.273438 -9.660156 34.328125 -9.609375 34.390625 -9.609375 L 34.65625 -9.609375 C 34.65625 -9.640625 34.65625 -9.65625 34.65625 -9.65625 C 34.65625 -9.65625 34.65625 -9.671875 34.65625 -9.703125 L 34.65625 -40.75 C 34.65625 -41.570312 34.832031 -42.078125 35.1875 -42.265625 C 35.550781 -42.453125 35.851562 -42.546875 36.09375 -42.546875 Z M 40.6875 -42.546875 "/></g></g><g style="fill:#0081fb;fill-opacity:1;"><g transform="translate(90.836273, 187.115502)"><path style="stroke:none" d="M 39.8125 -42.546875 C 40.050781 -42.546875 40.359375 -42.453125 40.734375 -42.265625 C 41.117188 -42.078125 41.3125 -41.585938 41.3125 -40.796875 L 41.3125 -36.765625 C 41.3125 -35.910156 41.117188 -35.382812 40.734375 -35.1875 C 40.359375 -35 40.050781 -34.90625 39.8125 -34.90625 L 26.546875 -34.90625 L 26.546875 -1.75 C 26.546875 -0.957031 26.363281 -0.46875 26 -0.28125 C 25.632812 -0.09375 25.332031 0 25.09375 0 L 20.34375 0 C 20.132812 0 19.84375 -0.09375 19.46875 -0.28125 C 19.09375 -0.46875 18.90625 -0.957031 18.90625 -1.75 L 18.90625 -34.90625 L 5.625 -34.90625 C 5.382812 -34.90625 5.070312 -35 4.6875 -35.1875 C 4.3125 -35.382812 4.125 -35.910156 4.125 -36.765625 L 4.125 -40.796875 C 4.125 -41.585938 4.3125 -42.078125 4.6875 -42.265625 C 5.070312 -42.453125 5.382812 -42.546875 5.625 -42.546875 Z M 39.8125 -42.546875 "/></g></g><g style="fill:#0081fb;fill-opacity:1;"><g transform="translate(134.995263, 187.115502)"><path style="stroke:none" d="M 35.171875 -9.25 C 35.410156 -9.25 35.71875 -9.148438 36.09375 -8.953125 C 36.476562 -8.765625 36.671875 -8.273438 36.671875 -7.484375 L 36.671875 -1.8125 C 36.671875 -1.019531 36.476562 -0.523438 36.09375 -0.328125 C 35.71875 -0.140625 35.410156 -0.046875 35.171875 -0.046875 L 16.828125 -0.046875 C 15.691406 -0.046875 14.640625 -0.113281 13.671875 -0.25 C 12.710938 -0.394531 11.835938 -0.617188 11.046875 -0.921875 C 9.359375 -1.515625 8.015625 -2.460938 7.015625 -3.765625 C 5.984375 -5.109375 5.242188 -6.796875 4.796875 -8.828125 C 4.628906 -9.691406 4.484375 -10.640625 4.359375 -11.671875 C 4.242188 -12.703125 4.164062 -13.820312 4.125 -15.03125 L 4.125 -15.28125 L 4.234375 -21.796875 C 4.335938 -22.171875 4.523438 -22.597656 4.796875 -23.078125 C 5.554688 -24.421875 6.726562 -25.144531 8.3125 -25.25 L 34.953125 -25.296875 C 35.160156 -25.296875 35.453125 -25.203125 35.828125 -25.015625 C 36.210938 -24.828125 36.40625 -24.335938 36.40625 -23.546875 L 36.40625 -19.46875 C 36.40625 -18.675781 36.210938 -18.175781 35.828125 -17.96875 C 35.453125 -17.757812 35.160156 -17.65625 34.953125 -17.65625 L 11.875 -17.65625 C 11.875 -17.65625 11.863281 -17.46875 11.84375 -17.09375 C 11.832031 -16.71875 11.816406 -16.285156 11.796875 -15.796875 C 11.785156 -15.316406 11.78125 -14.882812 11.78125 -14.5 C 11.78125 -14.125 11.78125 -13.9375 11.78125 -13.9375 C 11.8125 -13.800781 11.828125 -13.65625 11.828125 -13.5 C 11.828125 -13.34375 11.84375 -13.195312 11.875 -13.0625 C 12.007812 -12.101562 12.300781 -11.328125 12.75 -10.734375 C 13.164062 -10.222656 13.679688 -9.847656 14.296875 -9.609375 C 14.679688 -9.503906 15.085938 -9.414062 15.515625 -9.34375 C 15.941406 -9.28125 16.429688 -9.25 16.984375 -9.25 Z M 8.671875 -24.84375 Z M 35.21875 -42.65625 C 35.425781 -42.65625 35.71875 -42.550781 36.09375 -42.34375 C 36.476562 -42.132812 36.671875 -41.632812 36.671875 -40.84375 L 36.671875 -36.765625 C 36.671875 -35.972656 36.476562 -35.472656 36.09375 -35.265625 C 35.71875 -35.054688 35.425781 -34.953125 35.21875 -34.953125 L 5.53125 -35.015625 C 5.320312 -35.015625 5.035156 -35.109375 4.671875 -35.296875 C 4.304688 -35.484375 4.125 -35.972656 4.125 -36.765625 L 4.125 -40.796875 C 4.125 -41.617188 4.304688 -42.132812 4.671875 -42.34375 C 5.035156 -42.550781 5.320312 -42.65625 5.53125 -42.65625 Z M 35.21875 -42.65625 "/></g></g><g style="fill:#0081fb;fill-opacity:1;"><g transform="translate(174.505946, 187.115502)"><path style="stroke:none" d="M 33.921875 -7.640625 C 34.171875 -7.640625 34.472656 -7.535156 34.828125 -7.328125 C 35.191406 -7.117188 35.375 -6.617188 35.375 -5.828125 L 35.375 -1.75 C 35.375 -0.957031 35.191406 -0.457031 34.828125 -0.25 C 34.472656 -0.0507812 34.171875 0.046875 33.921875 0.046875 L 16.890625 0.046875 C 14.617188 0.046875 12.691406 -0.242188 11.109375 -0.828125 C 9.484375 -1.378906 8.140625 -2.34375 7.078125 -3.71875 C 6.078125 -4.957031 5.335938 -6.644531 4.859375 -8.78125 C 4.367188 -10.875 4.125 -13.332031 4.125 -16.15625 L 4.125 -40.75 C 4.125 -41.570312 4.3125 -42.078125 4.6875 -42.265625 C 5.070312 -42.453125 5.382812 -42.546875 5.625 -42.546875 L 10.375 -42.546875 C 10.582031 -42.546875 10.875 -42.453125 11.25 -42.265625 C 11.632812 -42.078125 11.828125 -41.570312 11.828125 -40.75 L 11.828125 -15.28125 C 11.828125 -14.53125 11.84375 -13.828125 11.875 -13.171875 C 11.90625 -12.515625 11.972656 -11.925781 12.078125 -11.40625 C 12.222656 -10.476562 12.519531 -9.722656 12.96875 -9.140625 C 13.3125 -8.585938 13.804688 -8.207031 14.453125 -8 C 15.140625 -7.757812 16.035156 -7.640625 17.140625 -7.640625 Z M 33.921875 -7.640625 "/></g></g><g style="fill:#0081fb;fill-opacity:1;"><g transform="translate(212.72543, 187.115502)"><path style="stroke:none" d="M 39.859375 -29.390625 C 39.859375 -26.117188 39 -23.617188 37.28125 -21.890625 C 39.175781 -20.171875 40.125 -17.609375 40.125 -14.203125 L 40.125 -10.734375 C 40.125 -9.941406 40.085938 -9.175781 40.015625 -8.4375 C 39.953125 -7.695312 39.851562 -7.003906 39.71875 -6.359375 C 39.570312 -5.703125 39.382812 -5.085938 39.15625 -4.515625 C 38.9375 -3.953125 38.65625 -3.425781 38.3125 -2.9375 C 37.726562 -2.007812 36.867188 -1.269531 35.734375 -0.71875 C 34.703125 -0.207031 33.410156 0.046875 31.859375 0.046875 L 8.625 0.046875 C 7.832031 0.046875 7.082031 -0.148438 6.375 -0.546875 C 5.664062 -0.941406 5.109375 -1.484375 4.703125 -2.171875 C 4.421875 -2.648438 4.226562 -3.179688 4.125 -3.765625 L 4.1875 -39.046875 C 4.25 -39.242188 4.320312 -39.453125 4.40625 -39.671875 C 4.5 -39.898438 4.597656 -40.117188 4.703125 -40.328125 C 5.523438 -41.671875 6.710938 -42.394531 8.265625 -42.5 L 8.265625 -42.546875 L 31.09375 -42.546875 C 34.257812 -42.546875 36.515625 -41.671875 37.859375 -39.921875 C 39.191406 -38.234375 39.859375 -35.6875 39.859375 -32.28125 Z M 11.71875 -7.90625 C 11.71875 -7.800781 11.726562 -7.726562 11.75 -7.6875 C 11.769531 -7.65625 11.78125 -7.640625 11.78125 -7.640625 L 29.75 -7.640625 C 30.78125 -7.640625 31.5 -7.863281 31.90625 -8.3125 C 32.320312 -8.789062 32.53125 -9.617188 32.53125 -10.796875 L 32.53125 -14.296875 C 32.53125 -15.398438 32.304688 -16.226562 31.859375 -16.78125 C 31.378906 -17.332031 30.484375 -17.609375 29.171875 -17.609375 L 19.15625 -17.609375 C 18.707031 -17.609375 18.3125 -17.769531 17.96875 -18.09375 C 17.625 -18.425781 17.453125 -18.832031 17.453125 -19.3125 L 17.453125 -23.546875 C 17.453125 -24.023438 17.625 -24.425781 17.96875 -24.75 C 18.3125 -25.082031 18.707031 -25.25 19.15625 -25.25 L 29.171875 -25.25 C 30.515625 -25.25 31.394531 -25.488281 31.8125 -25.96875 C 32.257812 -26.457031 32.484375 -27.21875 32.484375 -28.25 L 32.484375 -31.8125 C 32.484375 -32.945312 32.273438 -33.738281 31.859375 -34.1875 C 31.453125 -34.664062 30.75 -34.90625 29.75 -34.90625 L 11.828125 -34.90625 C 11.753906 -34.90625 11.71875 -34.800781 11.71875 -34.59375 Z M 11.71875 -7.90625 "/></g></g><g style="fill:#0081fb;fill-opacity:1;"><g transform="translate(255.696519, 187.115502)"><path style="stroke:none" d="M 39.8125 -42.546875 C 40.050781 -42.546875 40.351562 -42.453125 40.71875 -42.265625 C 41.082031 -42.078125 41.265625 -41.585938 41.265625 -40.796875 L 41.265625 -16.15625 C 41.265625 -14.71875 41.210938 -13.378906 41.109375 -12.140625 C 41.003906 -10.898438 40.832031 -9.78125 40.59375 -8.78125 C 40.101562 -6.644531 39.363281 -4.957031 38.375 -3.71875 C 37.375 -2.40625 36.03125 -1.441406 34.34375 -0.828125 C 32.789062 -0.273438 30.84375 0 28.5 0 L 16.890625 0 C 14.546875 0 12.597656 -0.273438 11.046875 -0.828125 C 10.253906 -1.140625 9.515625 -1.535156 8.828125 -2.015625 C 8.140625 -2.492188 7.554688 -3.0625 7.078125 -3.71875 C 6.003906 -5.03125 5.242188 -6.71875 4.796875 -8.78125 C 4.554688 -9.78125 4.382812 -10.898438 4.28125 -12.140625 C 4.175781 -13.378906 4.125 -14.71875 4.125 -16.15625 L 4.125 -40.796875 C 4.125 -41.585938 4.3125 -42.078125 4.6875 -42.265625 C 5.070312 -42.453125 5.382812 -42.546875 5.625 -42.546875 L 10.328125 -42.546875 C 10.566406 -42.546875 10.867188 -42.453125 11.234375 -42.265625 C 11.597656 -42.078125 11.78125 -41.585938 11.78125 -40.796875 L 11.78125 -15.34375 C 11.78125 -14.582031 11.800781 -13.863281 11.84375 -13.1875 C 11.894531 -12.519531 11.957031 -11.945312 12.03125 -11.46875 C 12.238281 -10.53125 12.53125 -9.753906 12.90625 -9.140625 C 13.320312 -8.617188 13.835938 -8.238281 14.453125 -8 C 14.796875 -7.894531 15.191406 -7.804688 15.640625 -7.734375 C 16.085938 -7.671875 16.585938 -7.640625 17.140625 -7.640625 L 28.296875 -7.640625 C 28.847656 -7.640625 29.347656 -7.671875 29.796875 -7.734375 C 30.242188 -7.804688 30.640625 -7.894531 30.984375 -8 C 31.597656 -8.238281 32.113281 -8.617188 32.53125 -9.140625 C 32.707031 -9.410156 32.867188 -9.742188 33.015625 -10.140625 C 33.171875 -10.535156 33.285156 -10.976562 33.359375 -11.46875 C 33.429688 -11.945312 33.492188 -12.519531 33.546875 -13.1875 C 33.597656 -13.863281 33.625 -14.582031 33.625 -15.34375 L 33.625 -40.796875 C 33.625 -41.585938 33.800781 -42.078125 34.15625 -42.265625 C 34.519531 -42.453125 34.820312 -42.546875 35.0625 -42.546875 Z M 39.8125 -42.546875 "/></g></g><g style="fill:#0081fb;fill-opacity:1;"><g transform="translate(299.80385, 187.115502)"><path style="stroke:none" d="M 29.078125 -25.40625 C 31.765625 -25.40625 33.8125 -24.457031 35.21875 -22.5625 C 36.5625 -20.707031 37.234375 -18.09375 37.234375 -14.71875 L 37.234375 -10.171875 C 37.234375 -7.210938 36.578125 -4.785156 35.265625 -2.890625 C 33.921875 -0.960938 31.820312 0 28.96875 0 L 5.6875 0 C 5.4375 0 5.125 -0.09375 4.75 -0.28125 C 4.375 -0.46875 4.1875 -0.957031 4.1875 -1.75 L 4.1875 -5.890625 C 4.1875 -6.679688 4.375 -7.171875 4.75 -7.359375 C 5.125 -7.546875 5.4375 -7.640625 5.6875 -7.640625 L 27.734375 -7.640625 C 28.179688 -7.640625 28.5 -7.71875 28.6875 -7.875 C 28.875 -8.03125 29.019531 -8.175781 29.125 -8.3125 C 29.4375 -8.832031 29.59375 -9.554688 29.59375 -10.484375 L 29.59375 -14.921875 C 29.59375 -16.191406 29.382812 -16.984375 28.96875 -17.296875 C 28.550781 -17.609375 28.15625 -17.765625 27.78125 -17.765625 L 12.296875 -17.765625 C 11.222656 -17.765625 10.125 -17.898438 9 -18.171875 C 7.882812 -18.453125 6.929688 -19.125 6.140625 -20.1875 C 4.796875 -22.082031 4.125 -24.835938 4.125 -28.453125 L 4.125 -32.375 C 4.125 -35.40625 4.796875 -37.851562 6.140625 -39.71875 C 7.484375 -41.601562 9.566406 -42.546875 12.390625 -42.546875 L 34.65625 -42.546875 C 34.851562 -42.546875 35.140625 -42.453125 35.515625 -42.265625 C 35.898438 -42.078125 36.09375 -41.585938 36.09375 -40.796875 L 36.09375 -36.671875 C 36.09375 -35.878906 35.898438 -35.382812 35.515625 -35.1875 C 35.140625 -35 34.851562 -34.90625 34.65625 -34.90625 L 13.640625 -34.90625 C 13.191406 -34.90625 12.867188 -34.835938 12.671875 -34.703125 C 12.484375 -34.566406 12.335938 -34.410156 12.234375 -34.234375 C 11.960938 -33.679688 11.828125 -32.957031 11.828125 -32.0625 L 11.828125 -28.25 C 11.828125 -26.976562 12.023438 -26.1875 12.421875 -25.875 C 12.816406 -25.5625 13.203125 -25.40625 13.578125 -25.40625 Z M 29.078125 -25.40625 "/></g></g><g style="fill:#0081fb;fill-opacity:1;"><g transform="translate(29.942042, 224.726691)"><path style="stroke:none" d="M 11.65625 -13.828125 L 16.96875 -0.71875 C 17.050781 -0.539062 17.070312 -0.390625 17.03125 -0.265625 C 17.019531 -0.210938 16.984375 -0.148438 16.921875 -0.078125 C 16.867188 -0.015625 16.765625 0.015625 16.609375 0.015625 L 14.59375 0.015625 C 14.320312 0.015625 14.140625 -0.117188 14.046875 -0.390625 L 9.34375 -12.109375 C 9.332031 -12.128906 9.328125 -12.140625 9.328125 -12.140625 L 9.25 -12.140625 C 9.25 -12.140625 9.242188 -12.132812 9.234375 -12.125 C 9.234375 -12.125 9.226562 -12.113281 9.21875 -12.09375 L 6.796875 -5.953125 L 9.140625 -5.953125 C 9.398438 -5.953125 9.582031 -5.828125 9.6875 -5.578125 L 10.375 -3.890625 C 10.4375 -3.679688 10.410156 -3.5 10.296875 -3.34375 C 10.191406 -3.164062 10.023438 -3.078125 9.796875 -3.078125 L 5.65625 -3.078125 L 4.578125 -0.375 C 4.472656 -0.113281 4.296875 0.015625 4.046875 0.015625 L 1.96875 0.015625 C 1.8125 0.015625 1.707031 -0.015625 1.65625 -0.078125 C 1.601562 -0.148438 1.566406 -0.210938 1.546875 -0.265625 C 1.515625 -0.378906 1.53125 -0.53125 1.59375 -0.71875 L 6.875 -13.828125 C 7.125 -14.492188 7.398438 -14.957031 7.703125 -15.21875 C 7.742188 -15.238281 7.785156 -15.265625 7.828125 -15.296875 C 7.878906 -15.335938 7.929688 -15.375 7.984375 -15.40625 C 8.359375 -15.664062 8.796875 -15.796875 9.296875 -15.796875 C 9.804688 -15.796875 10.269531 -15.640625 10.6875 -15.328125 C 11.101562 -15.015625 11.390625 -14.609375 11.546875 -14.109375 C 11.566406 -14.078125 11.585938 -14.035156 11.609375 -13.984375 C 11.628906 -13.929688 11.644531 -13.878906 11.65625 -13.828125 Z M 11.65625 -13.828125 "/></g></g><g style="fill:#0081fb;fill-opacity:1;"><g transform="translate(48.051525, 224.726691)"><path style="stroke:none" d="M 10.578125 -6.484375 L 13.84375 -0.8125 C 13.925781 -0.726562 13.953125 -0.582031 13.921875 -0.375 C 13.898438 -0.113281 13.753906 0.015625 13.484375 0.015625 L 11.453125 0.015625 C 11.253906 0.015625 11.117188 -0.0195312 11.046875 -0.09375 C 10.972656 -0.15625 10.90625 -0.242188 10.84375 -0.359375 L 7.890625 -5.546875 C 7.691406 -5.921875 7.484375 -6.164062 7.265625 -6.28125 C 7.046875 -6.40625 6.707031 -6.46875 6.25 -6.46875 L 4.328125 -6.46875 L 4.328125 -0.640625 C 4.328125 -0.347656 4.257812 -0.164062 4.125 -0.09375 C 3.988281 -0.0195312 3.878906 0.015625 3.796875 0.015625 L 2.0625 0.015625 C 1.988281 0.015625 1.878906 -0.0195312 1.734375 -0.09375 C 1.585938 -0.164062 1.515625 -0.347656 1.515625 -0.640625 L 1.515625 -14.921875 C 1.515625 -15.234375 1.585938 -15.421875 1.734375 -15.484375 C 1.878906 -15.554688 1.988281 -15.59375 2.0625 -15.59375 L 3.796875 -15.59375 C 3.878906 -15.59375 3.988281 -15.554688 4.125 -15.484375 C 4.257812 -15.421875 4.328125 -15.234375 4.328125 -14.921875 L 4.328125 -9.265625 L 6.078125 -9.265625 C 6.203125 -9.265625 6.3125 -9.269531 6.40625 -9.28125 C 6.507812 -9.289062 6.597656 -9.300781 6.671875 -9.3125 C 6.828125 -9.332031 6.960938 -9.367188 7.078125 -9.421875 C 7.191406 -9.484375 7.289062 -9.570312 7.375 -9.6875 C 7.425781 -9.75 7.476562 -9.820312 7.53125 -9.90625 C 7.59375 -9.988281 7.648438 -10.070312 7.703125 -10.15625 L 10.5625 -15.21875 C 10.613281 -15.3125 10.679688 -15.398438 10.765625 -15.484375 C 10.835938 -15.554688 10.976562 -15.59375 11.1875 -15.59375 L 13.0625 -15.59375 C 13.28125 -15.59375 13.421875 -15.484375 13.484375 -15.265625 C 13.515625 -15.109375 13.5 -14.957031 13.4375 -14.8125 L 10.3125 -9.328125 C 10.125 -9.015625 9.953125 -8.734375 9.796875 -8.484375 C 9.734375 -8.390625 9.671875 -8.300781 9.609375 -8.21875 C 9.554688 -8.132812 9.5 -8.054688 9.4375 -7.984375 C 9.625 -7.804688 9.8125 -7.59375 10 -7.34375 C 10.195312 -7.09375 10.390625 -6.804688 10.578125 -6.484375 Z M 10.578125 -6.484375 "/></g></g><g style="fill:#0081fb;fill-opacity:1;"><g transform="translate(63.038514, 224.726691)"><path style="stroke:none" d="M 3.78125 -15.59375 C 3.851562 -15.59375 3.957031 -15.550781 4.09375 -15.46875 C 4.238281 -15.394531 4.3125 -15.210938 4.3125 -14.921875 L 4.3125 -0.640625 C 4.3125 -0.347656 4.238281 -0.164062 4.09375 -0.09375 C 3.957031 -0.0195312 3.851562 0.015625 3.78125 0.015625 L 2.046875 0.015625 C 1.972656 0.015625 1.863281 -0.0195312 1.71875 -0.09375 C 1.582031 -0.164062 1.515625 -0.347656 1.515625 -0.640625 L 1.515625 -14.921875 C 1.515625 -15.210938 1.582031 -15.394531 1.71875 -15.46875 C 1.863281 -15.550781 1.972656 -15.59375 2.046875 -15.59375 Z M 3.78125 -15.59375 "/></g></g><g style="fill:#0081fb;fill-opacity:1;"><g transform="translate(68.393085, 224.726691)"><path style="stroke:none" d="M 12.4375 -2.796875 C 12.519531 -2.796875 12.628906 -2.757812 12.765625 -2.6875 C 12.898438 -2.613281 12.96875 -2.429688 12.96875 -2.140625 L 12.96875 -0.640625 C 12.96875 -0.347656 12.898438 -0.164062 12.765625 -0.09375 C 12.628906 -0.0195312 12.519531 0.015625 12.4375 0.015625 L 6.1875 0.015625 C 5.351562 0.015625 4.644531 -0.0859375 4.0625 -0.296875 C 3.46875 -0.503906 2.976562 -0.859375 2.59375 -1.359375 C 2.226562 -1.816406 1.957031 -2.4375 1.78125 -3.21875 C 1.601562 -3.988281 1.515625 -4.890625 1.515625 -5.921875 L 1.515625 -14.921875 C 1.515625 -15.234375 1.582031 -15.421875 1.71875 -15.484375 C 1.863281 -15.554688 1.976562 -15.59375 2.0625 -15.59375 L 3.796875 -15.59375 C 3.878906 -15.59375 3.988281 -15.554688 4.125 -15.484375 C 4.257812 -15.421875 4.328125 -15.234375 4.328125 -14.921875 L 4.328125 -5.59375 C 4.328125 -5.320312 4.332031 -5.066406 4.34375 -4.828125 C 4.363281 -4.585938 4.390625 -4.375 4.421875 -4.1875 C 4.472656 -3.84375 4.582031 -3.5625 4.75 -3.34375 C 4.875 -3.144531 5.054688 -3.007812 5.296875 -2.9375 C 5.546875 -2.84375 5.875 -2.796875 6.28125 -2.796875 Z M 12.4375 -2.796875 "/></g></g><g style="fill:#0081fb;fill-opacity:1;"><g transform="translate(82.39601, 224.726691)"><path style="stroke:none" d="M 12.4375 -2.796875 C 12.519531 -2.796875 12.628906 -2.757812 12.765625 -2.6875 C 12.898438 -2.613281 12.96875 -2.429688 12.96875 -2.140625 L 12.96875 -0.640625 C 12.96875 -0.347656 12.898438 -0.164062 12.765625 -0.09375 C 12.628906 -0.0195312 12.519531 0.015625 12.4375 0.015625 L 6.1875 0.015625 C 5.351562 0.015625 4.644531 -0.0859375 4.0625 -0.296875 C 3.46875 -0.503906 2.976562 -0.859375 2.59375 -1.359375 C 2.226562 -1.816406 1.957031 -2.4375 1.78125 -3.21875 C 1.601562 -3.988281 1.515625 -4.890625 1.515625 -5.921875 L 1.515625 -14.921875 C 1.515625 -15.234375 1.582031 -15.421875 1.71875 -15.484375 C 1.863281 -15.554688 1.976562 -15.59375 2.0625 -15.59375 L 3.796875 -15.59375 C 3.878906 -15.59375 3.988281 -15.554688 4.125 -15.484375 C 4.257812 -15.421875 4.328125 -15.234375 4.328125 -14.921875 L 4.328125 -5.59375 C 4.328125 -5.320312 4.332031 -5.066406 4.34375 -4.828125 C 4.363281 -4.585938 4.390625 -4.375 4.421875 -4.1875 C 4.472656 -3.84375 4.582031 -3.5625 4.75 -3.34375 C 4.875 -3.144531 5.054688 -3.007812 5.296875 -2.9375 C 5.546875 -2.84375 5.875 -2.796875 6.28125 -2.796875 Z M 12.4375 -2.796875 "/></g></g><g style="fill:#0081fb;fill-opacity:1;"><g transform="translate(96.398936, 224.726691)"><path style="stroke:none" d="M 3.78125 -15.59375 C 3.851562 -15.59375 3.957031 -15.550781 4.09375 -15.46875 C 4.238281 -15.394531 4.3125 -15.210938 4.3125 -14.921875 L 4.3125 -0.640625 C 4.3125 -0.347656 4.238281 -0.164062 4.09375 -0.09375 C 3.957031 -0.0195312 3.851562 0.015625 3.78125 0.015625 L 2.046875 0.015625 C 1.972656 0.015625 1.863281 -0.0195312 1.71875 -0.09375 C 1.582031 -0.164062 1.515625 -0.347656 1.515625 -0.640625 L 1.515625 -14.921875 C 1.515625 -15.210938 1.582031 -15.394531 1.71875 -15.46875 C 1.863281 -15.550781 1.972656 -15.59375 2.046875 -15.59375 Z M 3.78125 -15.59375 "/></g></g><g style="fill:#0081fb;fill-opacity:1;"><g transform="translate(101.753506, 224.726691)"><path style="stroke:none" d=""/></g></g><g style="fill:#0081fb;fill-opacity:1;"><g transform="translate(111.006461, 224.726691)"><path style="stroke:none" d="M 14.59375 -15.59375 C 14.675781 -15.59375 14.785156 -15.554688 14.921875 -15.484375 C 15.054688 -15.421875 15.125 -15.242188 15.125 -14.953125 L 15.125 -5.921875 C 15.125 -5.390625 15.101562 -4.894531 15.0625 -4.4375 C 15.019531 -3.988281 14.957031 -3.582031 14.875 -3.21875 C 14.695312 -2.4375 14.425781 -1.816406 14.0625 -1.359375 C 13.695312 -0.878906 13.203125 -0.523438 12.578125 -0.296875 C 12.015625 -0.0976562 11.300781 0 10.4375 0 L 6.1875 0 C 5.332031 0 4.617188 -0.0976562 4.046875 -0.296875 C 3.753906 -0.410156 3.484375 -0.554688 3.234375 -0.734375 C 2.984375 -0.910156 2.769531 -1.117188 2.59375 -1.359375 C 2.195312 -1.835938 1.921875 -2.457031 1.765625 -3.21875 C 1.671875 -3.582031 1.601562 -3.988281 1.5625 -4.4375 C 1.53125 -4.894531 1.515625 -5.390625 1.515625 -5.921875 L 1.515625 -14.953125 C 1.515625 -15.242188 1.582031 -15.421875 1.71875 -15.484375 C 1.863281 -15.554688 1.976562 -15.59375 2.0625 -15.59375 L 3.78125 -15.59375 C 3.875 -15.59375 3.984375 -15.554688 4.109375 -15.484375 C 4.242188 -15.421875 4.3125 -15.242188 4.3125 -14.953125 L 4.3125 -5.625 C 4.3125 -5.34375 4.320312 -5.078125 4.34375 -4.828125 C 4.363281 -4.585938 4.382812 -4.378906 4.40625 -4.203125 C 4.476562 -3.859375 4.585938 -3.570312 4.734375 -3.34375 C 4.878906 -3.15625 5.066406 -3.019531 5.296875 -2.9375 C 5.421875 -2.894531 5.566406 -2.859375 5.734375 -2.828125 C 5.898438 -2.804688 6.082031 -2.796875 6.28125 -2.796875 L 10.375 -2.796875 C 10.570312 -2.796875 10.75 -2.804688 10.90625 -2.828125 C 11.070312 -2.859375 11.222656 -2.894531 11.359375 -2.9375 C 11.578125 -3.019531 11.765625 -3.15625 11.921875 -3.34375 C 11.984375 -3.445312 12.039062 -3.570312 12.09375 -3.71875 C 12.15625 -3.863281 12.195312 -4.023438 12.21875 -4.203125 C 12.25 -4.378906 12.269531 -4.585938 12.28125 -4.828125 C 12.300781 -5.078125 12.3125 -5.34375 12.3125 -5.625 L 12.3125 -14.953125 C 12.3125 -15.242188 12.378906 -15.421875 12.515625 -15.484375 C 12.648438 -15.554688 12.757812 -15.59375 12.84375 -15.59375 Z M 14.59375 -15.59375 "/></g></g><g style="fill:#0081fb;fill-opacity:1;"><g transform="translate(127.166752, 224.726691)"><path style="stroke:none" d="M 12.4375 -2.796875 C 12.519531 -2.796875 12.628906 -2.757812 12.765625 -2.6875 C 12.898438 -2.613281 12.96875 -2.429688 12.96875 -2.140625 L 12.96875 -0.640625 C 12.96875 -0.347656 12.898438 -0.164062 12.765625 -0.09375 C 12.628906 -0.0195312 12.519531 0.015625 12.4375 0.015625 L 6.1875 0.015625 C 5.351562 0.015625 4.644531 -0.0859375 4.0625 -0.296875 C 3.46875 -0.503906 2.976562 -0.859375 2.59375 -1.359375 C 2.226562 -1.816406 1.957031 -2.4375 1.78125 -3.21875 C 1.601562 -3.988281 1.515625 -4.890625 1.515625 -5.921875 L 1.515625 -14.921875 C 1.515625 -15.234375 1.582031 -15.421875 1.71875 -15.484375 C 1.863281 -15.554688 1.976562 -15.59375 2.0625 -15.59375 L 3.796875 -15.59375 C 3.878906 -15.59375 3.988281 -15.554688 4.125 -15.484375 C 4.257812 -15.421875 4.328125 -15.234375 4.328125 -14.921875 L 4.328125 -5.59375 C 4.328125 -5.320312 4.332031 -5.066406 4.34375 -4.828125 C 4.363281 -4.585938 4.390625 -4.375 4.421875 -4.1875 C 4.472656 -3.84375 4.582031 -3.5625 4.75 -3.34375 C 4.875 -3.144531 5.054688 -3.007812 5.296875 -2.9375 C 5.546875 -2.84375 5.875 -2.796875 6.28125 -2.796875 Z M 12.4375 -2.796875 "/></g></g><g style="fill:#0081fb;fill-opacity:1;"><g transform="translate(141.169678, 224.726691)"><path style="stroke:none" d="M 11.65625 -13.828125 L 16.96875 -0.71875 C 17.050781 -0.539062 17.070312 -0.390625 17.03125 -0.265625 C 17.019531 -0.210938 16.984375 -0.148438 16.921875 -0.078125 C 16.867188 -0.015625 16.765625 0.015625 16.609375 0.015625 L 14.59375 0.015625 C 14.320312 0.015625 14.140625 -0.117188 14.046875 -0.390625 L 9.34375 -12.109375 C 9.332031 -12.128906 9.328125 -12.140625 9.328125 -12.140625 L 9.25 -12.140625 C 9.25 -12.140625 9.242188 -12.132812 9.234375 -12.125 C 9.234375 -12.125 9.226562 -12.113281 9.21875 -12.09375 L 6.796875 -5.953125 L 9.140625 -5.953125 C 9.398438 -5.953125 9.582031 -5.828125 9.6875 -5.578125 L 10.375 -3.890625 C 10.4375 -3.679688 10.410156 -3.5 10.296875 -3.34375 C 10.191406 -3.164062 10.023438 -3.078125 9.796875 -3.078125 L 5.65625 -3.078125 L 4.578125 -0.375 C 4.472656 -0.113281 4.296875 0.015625 4.046875 0.015625 L 1.96875 0.015625 C 1.8125 0.015625 1.707031 -0.015625 1.65625 -0.078125 C 1.601562 -0.148438 1.566406 -0.210938 1.546875 -0.265625 C 1.515625 -0.378906 1.53125 -0.53125 1.59375 -0.71875 L 6.875 -13.828125 C 7.125 -14.492188 7.398438 -14.957031 7.703125 -15.21875 C 7.742188 -15.238281 7.785156 -15.265625 7.828125 -15.296875 C 7.878906 -15.335938 7.929688 -15.375 7.984375 -15.40625 C 8.359375 -15.664062 8.796875 -15.796875 9.296875 -15.796875 C 9.804688 -15.796875 10.269531 -15.640625 10.6875 -15.328125 C 11.101562 -15.015625 11.390625 -14.609375 11.546875 -14.109375 C 11.566406 -14.078125 11.585938 -14.035156 11.609375 -13.984375 C 11.628906 -13.929688 11.644531 -13.878906 11.65625 -13.828125 Z M 11.65625 -13.828125 "/></g></g><g style="fill:#0081fb;fill-opacity:1;"><g transform="translate(159.279161, 224.726691)"><path style="stroke:none" d="M 10.65625 -9.3125 C 11.632812 -9.3125 12.382812 -8.960938 12.90625 -8.265625 C 13.394531 -7.585938 13.640625 -6.628906 13.640625 -5.390625 L 13.640625 -3.734375 C 13.640625 -2.640625 13.398438 -1.75 12.921875 -1.0625 C 12.429688 -0.351562 11.660156 0 10.609375 0 L 2.078125 0 C 1.992188 0 1.878906 -0.03125 1.734375 -0.09375 C 1.597656 -0.164062 1.53125 -0.347656 1.53125 -0.640625 L 1.53125 -2.15625 C 1.53125 -2.445312 1.597656 -2.625 1.734375 -2.6875 C 1.878906 -2.757812 1.992188 -2.796875 2.078125 -2.796875 L 10.15625 -2.796875 C 10.320312 -2.796875 10.4375 -2.820312 10.5 -2.875 C 10.570312 -2.9375 10.628906 -2.992188 10.671875 -3.046875 C 10.785156 -3.234375 10.84375 -3.5 10.84375 -3.84375 L 10.84375 -5.46875 C 10.84375 -5.9375 10.765625 -6.226562 10.609375 -6.34375 C 10.460938 -6.457031 10.320312 -6.515625 10.1875 -6.515625 L 4.5 -6.515625 C 4.113281 -6.515625 3.710938 -6.5625 3.296875 -6.65625 C 2.890625 -6.757812 2.539062 -7.007812 2.25 -7.40625 C 1.757812 -8.09375 1.515625 -9.097656 1.515625 -10.421875 L 1.515625 -11.859375 C 1.515625 -12.972656 1.757812 -13.867188 2.25 -14.546875 C 2.738281 -15.242188 3.503906 -15.59375 4.546875 -15.59375 L 12.703125 -15.59375 C 12.773438 -15.59375 12.878906 -15.554688 13.015625 -15.484375 C 13.148438 -15.421875 13.21875 -15.242188 13.21875 -14.953125 L 13.21875 -13.4375 C 13.21875 -13.144531 13.148438 -12.960938 13.015625 -12.890625 C 12.878906 -12.828125 12.773438 -12.796875 12.703125 -12.796875 L 5 -12.796875 C 4.832031 -12.796875 4.710938 -12.769531 4.640625 -12.71875 C 4.578125 -12.664062 4.523438 -12.609375 4.484375 -12.546875 C 4.378906 -12.347656 4.328125 -12.082031 4.328125 -11.75 L 4.328125 -10.34375 C 4.328125 -9.882812 4.398438 -9.597656 4.546875 -9.484375 C 4.691406 -9.367188 4.832031 -9.3125 4.96875 -9.3125 Z M 10.65625 -9.3125 "/></g></g><g style="fill:#0081fb;fill-opacity:1;"><g transform="translate(173.963368, 224.726691)"><path style="stroke:none" d="M 3.78125 -15.59375 C 3.851562 -15.59375 3.957031 -15.550781 4.09375 -15.46875 C 4.238281 -15.394531 4.3125 -15.210938 4.3125 -14.921875 L 4.3125 -0.640625 C 4.3125 -0.347656 4.238281 -0.164062 4.09375 -0.09375 C 3.957031 -0.0195312 3.851562 0.015625 3.78125 0.015625 L 2.046875 0.015625 C 1.972656 0.015625 1.863281 -0.0195312 1.71875 -0.09375 C 1.582031 -0.164062 1.515625 -0.347656 1.515625 -0.640625 L 1.515625 -14.921875 C 1.515625 -15.210938 1.582031 -15.394531 1.71875 -15.46875 C 1.863281 -15.550781 1.972656 -15.59375 2.046875 -15.59375 Z M 3.78125 -15.59375 "/></g></g><g style="fill:#0081fb;fill-opacity:1;"><g transform="translate(179.317938, 224.726691)"><path style="stroke:none" d="M 17.3125 -15.59375 C 17.945312 -15.59375 18.375 -15.390625 18.59375 -14.984375 C 18.800781 -14.628906 18.90625 -14.019531 18.90625 -13.15625 L 18.90625 -0.640625 C 18.90625 -0.347656 18.832031 -0.164062 18.6875 -0.09375 C 18.550781 -0.0195312 18.441406 0.015625 18.359375 0.015625 L 16.734375 0.015625 C 16.648438 0.015625 16.539062 -0.0195312 16.40625 -0.09375 C 16.269531 -0.164062 16.203125 -0.347656 16.203125 -0.640625 L 16.203125 -12.015625 C 16.203125 -12.023438 16.203125 -12.03125 16.203125 -12.03125 C 16.203125 -12.039062 16.203125 -12.046875 16.203125 -12.046875 L 16.109375 -12.046875 C 16.078125 -12.046875 16.0625 -12.035156 16.0625 -12.015625 L 12.8125 -4 C 12.6875 -3.601562 12.550781 -3.257812 12.40625 -2.96875 C 12.34375 -2.832031 12.269531 -2.707031 12.1875 -2.59375 C 12.113281 -2.476562 12.035156 -2.367188 11.953125 -2.265625 C 11.765625 -2.066406 11.566406 -1.929688 11.359375 -1.859375 C 11.148438 -1.773438 10.894531 -1.734375 10.59375 -1.734375 L 9.828125 -1.734375 C 9.546875 -1.734375 9.289062 -1.773438 9.0625 -1.859375 C 8.945312 -1.890625 8.84375 -1.941406 8.75 -2.015625 C 8.65625 -2.097656 8.554688 -2.179688 8.453125 -2.265625 C 8.296875 -2.472656 8.144531 -2.707031 8 -2.96875 C 7.875 -3.257812 7.742188 -3.601562 7.609375 -4 L 4.375 -12 C 4.363281 -12.03125 4.34375 -12.046875 4.3125 -12.046875 L 4.21875 -12.046875 C 4.21875 -12.046875 4.21875 -12.039062 4.21875 -12.03125 C 4.21875 -12.03125 4.21875 -12.023438 4.21875 -12.015625 L 4.21875 -0.640625 C 4.21875 -0.347656 4.148438 -0.164062 4.015625 -0.09375 C 3.890625 -0.0195312 3.78125 0.015625 3.6875 0.015625 L 2.0625 0.015625 C 1.976562 0.015625 1.863281 -0.0195312 1.71875 -0.09375 C 1.582031 -0.164062 1.515625 -0.347656 1.515625 -0.640625 L 1.515625 -13.15625 C 1.515625 -14.019531 1.613281 -14.628906 1.8125 -14.984375 C 2.039062 -15.390625 2.476562 -15.59375 3.125 -15.59375 L 4.859375 -15.59375 C 5.140625 -15.59375 5.363281 -15.566406 5.53125 -15.515625 C 5.738281 -15.453125 5.914062 -15.359375 6.0625 -15.234375 C 6.125 -15.160156 6.1875 -15.078125 6.25 -14.984375 C 6.320312 -14.898438 6.382812 -14.800781 6.4375 -14.6875 C 6.488281 -14.570312 6.539062 -14.441406 6.59375 -14.296875 C 6.644531 -14.148438 6.695312 -13.988281 6.75 -13.8125 L 10.078125 -5.453125 C 10.097656 -5.410156 10.113281 -5.382812 10.125 -5.375 C 10.132812 -5.375 10.140625 -5.375 10.140625 -5.375 L 10.328125 -5.375 C 10.359375 -5.375 10.378906 -5.398438 10.390625 -5.453125 L 13.734375 -13.8125 C 13.796875 -13.988281 13.851562 -14.148438 13.90625 -14.296875 C 13.957031 -14.441406 14.007812 -14.570312 14.0625 -14.6875 C 14.125 -14.800781 14.1875 -14.898438 14.25 -14.984375 C 14.3125 -15.078125 14.375 -15.160156 14.4375 -15.234375 C 14.59375 -15.367188 14.765625 -15.460938 14.953125 -15.515625 C 15.109375 -15.566406 15.328125 -15.59375 15.609375 -15.59375 Z M 17.3125 -15.59375 "/></g></g><g style="fill:#0081fb;fill-opacity:1;"><g transform="translate(199.26307, 224.726691)"><path style="stroke:none" d=""/></g></g><g style="fill:#0081fb;fill-opacity:1;"><g transform="translate(208.516025, 224.726691)"><path style="stroke:none" d="M 10.65625 -9.3125 C 11.632812 -9.3125 12.382812 -8.960938 12.90625 -8.265625 C 13.394531 -7.585938 13.640625 -6.628906 13.640625 -5.390625 L 13.640625 -3.734375 C 13.640625 -2.640625 13.398438 -1.75 12.921875 -1.0625 C 12.429688 -0.351562 11.660156 0 10.609375 0 L 2.078125 0 C 1.992188 0 1.878906 -0.03125 1.734375 -0.09375 C 1.597656 -0.164062 1.53125 -0.347656 1.53125 -0.640625 L 1.53125 -2.15625 C 1.53125 -2.445312 1.597656 -2.625 1.734375 -2.6875 C 1.878906 -2.757812 1.992188 -2.796875 2.078125 -2.796875 L 10.15625 -2.796875 C 10.320312 -2.796875 10.4375 -2.820312 10.5 -2.875 C 10.570312 -2.9375 10.628906 -2.992188 10.671875 -3.046875 C 10.785156 -3.234375 10.84375 -3.5 10.84375 -3.84375 L 10.84375 -5.46875 C 10.84375 -5.9375 10.765625 -6.226562 10.609375 -6.34375 C 10.460938 -6.457031 10.320312 -6.515625 10.1875 -6.515625 L 4.5 -6.515625 C 4.113281 -6.515625 3.710938 -6.5625 3.296875 -6.65625 C 2.890625 -6.757812 2.539062 -7.007812 2.25 -7.40625 C 1.757812 -8.09375 1.515625 -9.097656 1.515625 -10.421875 L 1.515625 -11.859375 C 1.515625 -12.972656 1.757812 -13.867188 2.25 -14.546875 C 2.738281 -15.242188 3.503906 -15.59375 4.546875 -15.59375 L 12.703125 -15.59375 C 12.773438 -15.59375 12.878906 -15.554688 13.015625 -15.484375 C 13.148438 -15.421875 13.21875 -15.242188 13.21875 -14.953125 L 13.21875 -13.4375 C 13.21875 -13.144531 13.148438 -12.960938 13.015625 -12.890625 C 12.878906 -12.828125 12.773438 -12.796875 12.703125 -12.796875 L 5 -12.796875 C 4.832031 -12.796875 4.710938 -12.769531 4.640625 -12.71875 C 4.578125 -12.664062 4.523438 -12.609375 4.484375 -12.546875 C 4.378906 -12.347656 4.328125 -12.082031 4.328125 -11.75 L 4.328125 -10.34375 C 4.328125 -9.882812 4.398438 -9.597656 4.546875 -9.484375 C 4.691406 -9.367188 4.832031 -9.3125 4.96875 -9.3125 Z M 10.65625 -9.3125 "/></g></g><g style="fill:#0081fb;fill-opacity:1;"><g transform="translate(223.200232, 224.726691)"><path style="stroke:none" d="M 3.78125 -15.59375 C 3.851562 -15.59375 3.957031 -15.550781 4.09375 -15.46875 C 4.238281 -15.394531 4.3125 -15.210938 4.3125 -14.921875 L 4.3125 -0.640625 C 4.3125 -0.347656 4.238281 -0.164062 4.09375 -0.09375 C 3.957031 -0.0195312 3.851562 0.015625 3.78125 0.015625 L 2.046875 0.015625 C 1.972656 0.015625 1.863281 -0.0195312 1.71875 -0.09375 C 1.582031 -0.164062 1.515625 -0.347656 1.515625 -0.640625 L 1.515625 -14.921875 C 1.515625 -15.210938 1.582031 -15.394531 1.71875 -15.46875 C 1.863281 -15.550781 1.972656 -15.59375 2.046875 -15.59375 Z M 3.78125 -15.59375 "/></g></g><g style="fill:#0081fb;fill-opacity:1;"><g transform="translate(228.554802, 224.726691)"><path style="stroke:none" d="M 10.65625 -9.3125 C 11.632812 -9.3125 12.382812 -8.960938 12.90625 -8.265625 C 13.394531 -7.585938 13.640625 -6.628906 13.640625 -5.390625 L 13.640625 -3.734375 C 13.640625 -2.640625 13.398438 -1.75 12.921875 -1.0625 C 12.429688 -0.351562 11.660156 0 10.609375 0 L 2.078125 0 C 1.992188 0 1.878906 -0.03125 1.734375 -0.09375 C 1.597656 -0.164062 1.53125 -0.347656 1.53125 -0.640625 L 1.53125 -2.15625 C 1.53125 -2.445312 1.597656 -2.625 1.734375 -2.6875 C 1.878906 -2.757812 1.992188 -2.796875 2.078125 -2.796875 L 10.15625 -2.796875 C 10.320312 -2.796875 10.4375 -2.820312 10.5 -2.875 C 10.570312 -2.9375 10.628906 -2.992188 10.671875 -3.046875 C 10.785156 -3.234375 10.84375 -3.5 10.84375 -3.84375 L 10.84375 -5.46875 C 10.84375 -5.9375 10.765625 -6.226562 10.609375 -6.34375 C 10.460938 -6.457031 10.320312 -6.515625 10.1875 -6.515625 L 4.5 -6.515625 C 4.113281 -6.515625 3.710938 -6.5625 3.296875 -6.65625 C 2.890625 -6.757812 2.539062 -7.007812 2.25 -7.40625 C 1.757812 -8.09375 1.515625 -9.097656 1.515625 -10.421875 L 1.515625 -11.859375 C 1.515625 -12.972656 1.757812 -13.867188 2.25 -14.546875 C 2.738281 -15.242188 3.503906 -15.59375 4.546875 -15.59375 L 12.703125 -15.59375 C 12.773438 -15.59375 12.878906 -15.554688 13.015625 -15.484375 C 13.148438 -15.421875 13.21875 -15.242188 13.21875 -14.953125 L 13.21875 -13.4375 C 13.21875 -13.144531 13.148438 -12.960938 13.015625 -12.890625 C 12.878906 -12.828125 12.773438 -12.796875 12.703125 -12.796875 L 5 -12.796875 C 4.832031 -12.796875 4.710938 -12.769531 4.640625 -12.71875 C 4.578125 -12.664062 4.523438 -12.609375 4.484375 -12.546875 C 4.378906 -12.347656 4.328125 -12.082031 4.328125 -11.75 L 4.328125 -10.34375 C 4.328125 -9.882812 4.398438 -9.597656 4.546875 -9.484375 C 4.691406 -9.367188 4.832031 -9.3125 4.96875 -9.3125 Z M 10.65625 -9.3125 "/></g></g><g style="fill:#0081fb;fill-opacity:1;"><g transform="translate(243.239008, 224.726691)"><path style="stroke:none" d="M 14.59375 -15.59375 C 14.675781 -15.59375 14.785156 -15.554688 14.921875 -15.484375 C 15.066406 -15.421875 15.140625 -15.242188 15.140625 -14.953125 L 15.140625 -13.46875 C 15.140625 -13.15625 15.066406 -12.960938 14.921875 -12.890625 C 14.785156 -12.828125 14.675781 -12.796875 14.59375 -12.796875 L 9.71875 -12.796875 L 9.71875 -0.640625 C 9.71875 -0.347656 9.648438 -0.164062 9.515625 -0.09375 C 9.390625 -0.03125 9.285156 0 9.203125 0 L 7.453125 0 C 7.378906 0 7.269531 -0.03125 7.125 -0.09375 C 6.988281 -0.164062 6.921875 -0.347656 6.921875 -0.640625 L 6.921875 -12.796875 L 2.0625 -12.796875 C 1.976562 -12.796875 1.863281 -12.828125 1.71875 -12.890625 C 1.582031 -12.960938 1.515625 -13.15625 1.515625 -13.46875 L 1.515625 -14.953125 C 1.515625 -15.242188 1.582031 -15.421875 1.71875 -15.484375 C 1.863281 -15.554688 1.976562 -15.59375 2.0625 -15.59375 Z M 14.59375 -15.59375 "/></g></g><g style="fill:#0081fb;fill-opacity:1;"><g transform="translate(259.418233, 224.726691)"><path style="stroke:none" d="M 12.890625 -3.390625 C 12.972656 -3.390625 13.082031 -3.351562 13.21875 -3.28125 C 13.363281 -3.207031 13.4375 -3.03125 13.4375 -2.75 L 13.4375 -0.65625 C 13.4375 -0.375 13.363281 -0.195312 13.21875 -0.125 C 13.082031 -0.0507812 12.972656 -0.015625 12.890625 -0.015625 L 6.171875 -0.015625 C 5.753906 -0.015625 5.367188 -0.0390625 5.015625 -0.09375 C 4.660156 -0.144531 4.335938 -0.226562 4.046875 -0.34375 C 3.429688 -0.550781 2.941406 -0.894531 2.578125 -1.375 C 2.191406 -1.875 1.921875 -2.492188 1.765625 -3.234375 C 1.703125 -3.546875 1.644531 -3.890625 1.59375 -4.265625 C 1.550781 -4.648438 1.523438 -5.0625 1.515625 -5.5 L 1.515625 -5.59375 L 1.546875 -7.984375 C 1.585938 -8.117188 1.660156 -8.273438 1.765625 -8.453125 C 2.035156 -8.953125 2.460938 -9.21875 3.046875 -9.25 L 12.8125 -9.265625 C 12.882812 -9.265625 12.988281 -9.226562 13.125 -9.15625 C 13.269531 -9.09375 13.34375 -8.914062 13.34375 -8.625 L 13.34375 -7.140625 C 13.34375 -6.847656 13.269531 -6.660156 13.125 -6.578125 C 12.988281 -6.503906 12.882812 -6.46875 12.8125 -6.46875 L 4.359375 -6.46875 C 4.359375 -6.46875 4.351562 -6.398438 4.34375 -6.265625 C 4.332031 -6.128906 4.320312 -5.972656 4.3125 -5.796875 C 4.3125 -5.617188 4.3125 -5.457031 4.3125 -5.3125 C 4.3125 -5.175781 4.3125 -5.109375 4.3125 -5.109375 C 4.320312 -5.054688 4.328125 -5 4.328125 -4.9375 C 4.328125 -4.882812 4.335938 -4.832031 4.359375 -4.78125 C 4.398438 -4.425781 4.503906 -4.144531 4.671875 -3.9375 C 4.828125 -3.75 5.015625 -3.609375 5.234375 -3.515625 C 5.378906 -3.484375 5.53125 -3.453125 5.6875 -3.421875 C 5.84375 -3.398438 6.019531 -3.390625 6.21875 -3.390625 Z M 3.171875 -9.09375 Z M 12.90625 -15.625 C 12.976562 -15.625 13.082031 -15.585938 13.21875 -15.515625 C 13.363281 -15.441406 13.4375 -15.257812 13.4375 -14.96875 L 13.4375 -13.46875 C 13.4375 -13.175781 13.363281 -12.992188 13.21875 -12.921875 C 13.082031 -12.847656 12.976562 -12.8125 12.90625 -12.8125 L 2.03125 -12.828125 C 1.945312 -12.828125 1.835938 -12.859375 1.703125 -12.921875 C 1.578125 -12.992188 1.515625 -13.175781 1.515625 -13.46875 L 1.515625 -14.953125 C 1.515625 -15.253906 1.578125 -15.441406 1.703125 -15.515625 C 1.835938 -15.585938 1.945312 -15.625 2.03125 -15.625 Z M 12.90625 -15.625 "/></g></g><g style="fill:#0081fb;fill-opacity:1;"><g transform="translate(273.894266, 224.726691)"><path style="stroke:none" d="M 17.3125 -15.59375 C 17.945312 -15.59375 18.375 -15.390625 18.59375 -14.984375 C 18.800781 -14.628906 18.90625 -14.019531 18.90625 -13.15625 L 18.90625 -0.640625 C 18.90625 -0.347656 18.832031 -0.164062 18.6875 -0.09375 C 18.550781 -0.0195312 18.441406 0.015625 18.359375 0.015625 L 16.734375 0.015625 C 16.648438 0.015625 16.539062 -0.0195312 16.40625 -0.09375 C 16.269531 -0.164062 16.203125 -0.347656 16.203125 -0.640625 L 16.203125 -12.015625 C 16.203125 -12.023438 16.203125 -12.03125 16.203125 -12.03125 C 16.203125 -12.039062 16.203125 -12.046875 16.203125 -12.046875 L 16.109375 -12.046875 C 16.078125 -12.046875 16.0625 -12.035156 16.0625 -12.015625 L 12.8125 -4 C 12.6875 -3.601562 12.550781 -3.257812 12.40625 -2.96875 C 12.34375 -2.832031 12.269531 -2.707031 12.1875 -2.59375 C 12.113281 -2.476562 12.035156 -2.367188 11.953125 -2.265625 C 11.765625 -2.066406 11.566406 -1.929688 11.359375 -1.859375 C 11.148438 -1.773438 10.894531 -1.734375 10.59375 -1.734375 L 9.828125 -1.734375 C 9.546875 -1.734375 9.289062 -1.773438 9.0625 -1.859375 C 8.945312 -1.890625 8.84375 -1.941406 8.75 -2.015625 C 8.65625 -2.097656 8.554688 -2.179688 8.453125 -2.265625 C 8.296875 -2.472656 8.144531 -2.707031 8 -2.96875 C 7.875 -3.257812 7.742188 -3.601562 7.609375 -4 L 4.375 -12 C 4.363281 -12.03125 4.34375 -12.046875 4.3125 -12.046875 L 4.21875 -12.046875 C 4.21875 -12.046875 4.21875 -12.039062 4.21875 -12.03125 C 4.21875 -12.03125 4.21875 -12.023438 4.21875 -12.015625 L 4.21875 -0.640625 C 4.21875 -0.347656 4.148438 -0.164062 4.015625 -0.09375 C 3.890625 -0.0195312 3.78125 0.015625 3.6875 0.015625 L 2.0625 0.015625 C 1.976562 0.015625 1.863281 -0.0195312 1.71875 -0.09375 C 1.582031 -0.164062 1.515625 -0.347656 1.515625 -0.640625 L 1.515625 -13.15625 C 1.515625 -14.019531 1.613281 -14.628906 1.8125 -14.984375 C 2.039062 -15.390625 2.476562 -15.59375 3.125 -15.59375 L 4.859375 -15.59375 C 5.140625 -15.59375 5.363281 -15.566406 5.53125 -15.515625 C 5.738281 -15.453125 5.914062 -15.359375 6.0625 -15.234375 C 6.125 -15.160156 6.1875 -15.078125 6.25 -14.984375 C 6.320312 -14.898438 6.382812 -14.800781 6.4375 -14.6875 C 6.488281 -14.570312 6.539062 -14.441406 6.59375 -14.296875 C 6.644531 -14.148438 6.695312 -13.988281 6.75 -13.8125 L 10.078125 -5.453125 C 10.097656 -5.410156 10.113281 -5.382812 10.125 -5.375 C 10.132812 -5.375 10.140625 -5.375 10.140625 -5.375 L 10.328125 -5.375 C 10.359375 -5.375 10.378906 -5.398438 10.390625 -5.453125 L 13.734375 -13.8125 C 13.796875 -13.988281 13.851562 -14.148438 13.90625 -14.296875 C 13.957031 -14.441406 14.007812 -14.570312 14.0625 -14.6875 C 14.125 -14.800781 14.1875 -14.898438 14.25 -14.984375 C 14.3125 -15.078125 14.375 -15.160156 14.4375 -15.234375 C 14.59375 -15.367188 14.765625 -15.460938 14.953125 -15.515625 C 15.109375 -15.566406 15.328125 -15.59375 15.609375 -15.59375 Z M 17.3125 -15.59375 "/></g></g><g style="fill:#0081fb;fill-opacity:1;"><g transform="translate(293.839398, 224.726691)"><path style="stroke:none" d="M 12.4375 -2.796875 C 12.519531 -2.796875 12.628906 -2.757812 12.765625 -2.6875 C 12.898438 -2.613281 12.96875 -2.429688 12.96875 -2.140625 L 12.96875 -0.640625 C 12.96875 -0.347656 12.898438 -0.164062 12.765625 -0.09375 C 12.628906 -0.0195312 12.519531 0.015625 12.4375 0.015625 L 6.1875 0.015625 C 5.351562 0.015625 4.644531 -0.0859375 4.0625 -0.296875 C 3.46875 -0.503906 2.976562 -0.859375 2.59375 -1.359375 C 2.226562 -1.816406 1.957031 -2.4375 1.78125 -3.21875 C 1.601562 -3.988281 1.515625 -4.890625 1.515625 -5.921875 L 1.515625 -14.921875 C 1.515625 -15.234375 1.582031 -15.421875 1.71875 -15.484375 C 1.863281 -15.554688 1.976562 -15.59375 2.0625 -15.59375 L 3.796875 -15.59375 C 3.878906 -15.59375 3.988281 -15.554688 4.125 -15.484375 C 4.257812 -15.421875 4.328125 -15.234375 4.328125 -14.921875 L 4.328125 -5.59375 C 4.328125 -5.320312 4.332031 -5.066406 4.34375 -4.828125 C 4.363281 -4.585938 4.390625 -4.375 4.421875 -4.1875 C 4.472656 -3.84375 4.582031 -3.5625 4.75 -3.34375 C 4.875 -3.144531 5.054688 -3.007812 5.296875 -2.9375 C 5.546875 -2.84375 5.875 -2.796875 6.28125 -2.796875 Z M 12.4375 -2.796875 "/></g></g><g style="fill:#0081fb;fill-opacity:1;"><g transform="translate(307.842324, 224.726691)"><path style="stroke:none" d="M 12.890625 -3.390625 C 12.972656 -3.390625 13.082031 -3.351562 13.21875 -3.28125 C 13.363281 -3.207031 13.4375 -3.03125 13.4375 -2.75 L 13.4375 -0.65625 C 13.4375 -0.375 13.363281 -0.195312 13.21875 -0.125 C 13.082031 -0.0507812 12.972656 -0.015625 12.890625 -0.015625 L 6.171875 -0.015625 C 5.753906 -0.015625 5.367188 -0.0390625 5.015625 -0.09375 C 4.660156 -0.144531 4.335938 -0.226562 4.046875 -0.34375 C 3.429688 -0.550781 2.941406 -0.894531 2.578125 -1.375 C 2.191406 -1.875 1.921875 -2.492188 1.765625 -3.234375 C 1.703125 -3.546875 1.644531 -3.890625 1.59375 -4.265625 C 1.550781 -4.648438 1.523438 -5.0625 1.515625 -5.5 L 1.515625 -5.59375 L 1.546875 -7.984375 C 1.585938 -8.117188 1.660156 -8.273438 1.765625 -8.453125 C 2.035156 -8.953125 2.460938 -9.21875 3.046875 -9.25 L 12.8125 -9.265625 C 12.882812 -9.265625 12.988281 -9.226562 13.125 -9.15625 C 13.269531 -9.09375 13.34375 -8.914062 13.34375 -8.625 L 13.34375 -7.140625 C 13.34375 -6.847656 13.269531 -6.660156 13.125 -6.578125 C 12.988281 -6.503906 12.882812 -6.46875 12.8125 -6.46875 L 4.359375 -6.46875 C 4.359375 -6.46875 4.351562 -6.398438 4.34375 -6.265625 C 4.332031 -6.128906 4.320312 -5.972656 4.3125 -5.796875 C 4.3125 -5.617188 4.3125 -5.457031 4.3125 -5.3125 C 4.3125 -5.175781 4.3125 -5.109375 4.3125 -5.109375 C 4.320312 -5.054688 4.328125 -5 4.328125 -4.9375 C 4.328125 -4.882812 4.335938 -4.832031 4.359375 -4.78125 C 4.398438 -4.425781 4.503906 -4.144531 4.671875 -3.9375 C 4.828125 -3.75 5.015625 -3.609375 5.234375 -3.515625 C 5.378906 -3.484375 5.53125 -3.453125 5.6875 -3.421875 C 5.84375 -3.398438 6.019531 -3.390625 6.21875 -3.390625 Z M 3.171875 -9.09375 Z M 12.90625 -15.625 C 12.976562 -15.625 13.082031 -15.585938 13.21875 -15.515625 C 13.363281 -15.441406 13.4375 -15.257812 13.4375 -14.96875 L 13.4375 -13.46875 C 13.4375 -13.175781 13.363281 -12.992188 13.21875 -12.921875 C 13.082031 -12.847656 12.976562 -12.8125 12.90625 -12.8125 L 2.03125 -12.828125 C 1.945312 -12.828125 1.835938 -12.859375 1.703125 -12.921875 C 1.578125 -12.992188 1.515625 -13.175781 1.515625 -13.46875 L 1.515625 -14.953125 C 1.515625 -15.253906 1.578125 -15.441406 1.703125 -15.515625 C 1.835938 -15.585938 1.945312 -15.625 2.03125 -15.625 Z M 12.90625 -15.625 "/></g></g><g style="fill:#0081fb;fill-opacity:1;"><g transform="translate(322.318357, 224.726691)"><path style="stroke:none" d="M 14.421875 -11.0625 L 14.421875 -10.953125 C 14.421875 -10.960938 14.421875 -10.972656 14.421875 -10.984375 C 14.421875 -10.992188 14.421875 -11.003906 14.421875 -11.015625 C 14.421875 -11.023438 14.421875 -11.03125 14.421875 -11.03125 C 14.421875 -11.039062 14.421875 -11.050781 14.421875 -11.0625 Z M 14.78125 -0.8125 C 14.851562 -0.707031 14.878906 -0.554688 14.859375 -0.359375 C 14.816406 -0.109375 14.671875 0.015625 14.421875 0.015625 L 12.34375 0.015625 C 12.175781 0.015625 12.039062 -0.0195312 11.9375 -0.09375 C 11.90625 -0.113281 11.867188 -0.148438 11.828125 -0.203125 C 11.796875 -0.253906 11.765625 -0.304688 11.734375 -0.359375 L 8.3125 -6.4375 L 4.3125 -6.4375 L 4.3125 -0.640625 C 4.3125 -0.347656 4.242188 -0.164062 4.109375 -0.09375 C 3.984375 -0.0195312 3.875 0.015625 3.78125 0.015625 L 2.0625 0.015625 C 1.976562 0.015625 1.863281 -0.0195312 1.71875 -0.09375 C 1.582031 -0.164062 1.515625 -0.347656 1.515625 -0.640625 L 1.515625 -8.59375 C 1.515625 -8.882812 1.582031 -9.0625 1.71875 -9.125 C 1.863281 -9.195312 1.976562 -9.234375 2.0625 -9.234375 L 10.296875 -9.234375 C 10.773438 -9.234375 11.109375 -9.375 11.296875 -9.65625 C 11.492188 -9.925781 11.59375 -10.378906 11.59375 -11.015625 C 11.59375 -11.640625 11.492188 -12.09375 11.296875 -12.375 C 11.109375 -12.65625 10.773438 -12.796875 10.296875 -12.796875 L 2.0625 -12.796875 C 1.976562 -12.796875 1.863281 -12.828125 1.71875 -12.890625 C 1.582031 -12.960938 1.515625 -13.144531 1.515625 -13.4375 L 1.515625 -14.921875 C 1.515625 -15.234375 1.582031 -15.421875 1.71875 -15.484375 C 1.863281 -15.554688 1.976562 -15.59375 2.0625 -15.59375 L 10.78125 -15.59375 C 12.082031 -15.59375 13.015625 -15.1875 13.578125 -14.375 C 14.128906 -13.59375 14.410156 -12.472656 14.421875 -11.015625 C 14.410156 -9.546875 14.128906 -8.421875 13.578125 -7.640625 C 13.097656 -6.984375 12.394531 -6.597656 11.46875 -6.484375 Z M 14.78125 -0.8125 "/></g></g><g style="fill:#0081fb;fill-opacity:1;"><g transform="translate(338.232628, 224.726691)"><path style="stroke:none" d="M 3.78125 -15.59375 C 3.851562 -15.59375 3.957031 -15.550781 4.09375 -15.46875 C 4.238281 -15.394531 4.3125 -15.210938 4.3125 -14.921875 L 4.3125 -0.640625 C 4.3125 -0.347656 4.238281 -0.164062 4.09375 -0.09375 C 3.957031 -0.0195312 3.851562 0.015625 3.78125 0.015625 L 2.046875 0.015625 C 1.972656 0.015625 1.863281 -0.0195312 1.71875 -0.09375 C 1.582031 -0.164062 1.515625 -0.347656 1.515625 -0.640625 L 1.515625 -14.921875 C 1.515625 -15.210938 1.582031 -15.394531 1.71875 -15.46875 C 1.863281 -15.550781 1.972656 -15.59375 2.046875 -15.59375 Z M 3.78125 -15.59375 "/></g></g></g></svg>