<svg width="1em" height="1em" viewBox="0 0 17 17" fill="none" xmlns="http://www.w3.org/2000/svg">
<path d="M15.8954 7.58023L16.6223 6.85268C16.6487 6.82625 16.7105 6.76429 16.5854 6.63537C16.5318 6.58007 16.4829 6.55184 16.4401 6.55152H16.4393C16.4025 6.55152 16.3777 6.57128 16.3582 6.59069L15.6296 7.31997L14.9022 6.58741C14.8434 6.52851 14.7746 6.54231 14.6858 6.63103C14.5955 6.72186 14.5808 6.79162 14.6393 6.85055L15.3668 7.58305L14.6543 8.29625L14.6492 8.30123C14.6319 8.31806 14.6057 8.34344 14.6054 8.38484C14.605 8.42752 14.6334 8.47779 14.6898 8.53424C14.7374 8.58191 14.7825 8.60607 14.8239 8.60607H14.824C14.8706 8.60603 14.9004 8.57611 14.9173 8.55926L15.6325 7.84335L16.3639 8.57548C16.3731 8.58468 16.3989 8.60592 16.4403 8.60592H16.4417C16.488 8.60536 16.5367 8.57851 16.5865 8.52615C16.6686 8.43988 16.6823 8.36801 16.6272 8.31255L15.8954 7.58023ZM13.2694 6.53507C12.7307 6.57608 12.3087 7.05028 12.3087 7.61466V9.3992C12.3087 9.50258 12.3873 9.52374 12.5051 9.52374C12.623 9.52374 12.7015 9.50258 12.7015 9.3992V7.61046C12.7015 7.25883 12.9571 6.9569 13.2833 6.92311C13.4706 6.90399 13.6507 6.96267 13.7907 7.08907C13.9281 7.21306 14.007 7.39135 14.0071 7.57825C14.0071 7.63173 13.9809 7.80593 13.8614 7.96763C13.7711 8.08981 13.6 8.23534 13.2965 8.23534C13.2949 8.23538 13.2927 8.23534 13.2908 8.23534C13.2129 8.23534 13.1465 8.23902 13.1337 8.42364C13.1251 8.54786 13.1258 8.60341 13.233 8.61835C13.4243 8.64491 13.6193 8.60749 13.8125 8.50696C14.1425 8.33513 14.3636 8.00954 14.3896 7.65717C14.4121 7.35113 14.3019 7.05257 14.087 6.838C13.8713 6.62269 13.5734 6.51241 13.2694 6.53507ZM2.11663 7.7178C1.73065 7.66234 1.35427 7.76511 1.0477 8.0013V6.93846H2.84716C2.90967 6.93846 2.9545 6.92719 2.9545 6.7424C2.9545 6.56208 2.88191 6.55493 2.83402 6.55493H0.841438C0.725737 6.55493 0.66452 6.6486 0.66452 6.75244V8.49678C0.66452 8.58824 0.722446 8.61923 0.830257 8.6406C0.924639 8.65929 0.97945 8.64837 1.02072 8.60258L1.02506 8.59588C1.2149 8.32202 1.62795 8.05672 2.02055 8.10482C2.48917 8.16221 2.8665 8.53637 2.91811 8.99447C2.95104 9.28677 2.86192 9.56775 2.66734 9.78567C2.47524 10.0008 2.20025 10.1242 1.91298 10.1242C1.48741 10.1242 1.11546 9.85043 0.960581 9.45307C0.937655 9.39424 0.898924 9.35068 0.731277 9.41169C0.577236 9.46774 0.568304 9.53262 0.589547 9.59138C0.791188 10.1471 1.32302 10.5205 1.91292 10.5205C2.31244 10.5205 2.6948 10.3491 2.96194 10.0501C3.23261 9.7473 3.35555 9.35692 3.31027 8.95087C3.23932 8.31528 2.74776 7.80822 2.11663 7.7178ZM9.89656 10.0982C9.02737 10.0982 8.3202 9.39048 8.3202 8.52053C8.3202 7.65055 9.02737 6.94277 9.89656 6.94277C10.7657 6.94277 11.4728 7.65055 11.4728 8.52053C11.4728 9.39048 10.7657 10.0982 9.89656 10.0982V10.0982ZM9.89656 6.51515C8.7917 6.51515 7.89286 7.41476 7.89286 8.52053C7.89286 9.62629 8.7917 10.5259 9.89656 10.5259C11.0014 10.5259 11.9001 9.62629 11.9001 8.52053C11.9001 7.41476 11.0014 6.51515 9.89656 6.51515ZM5.56039 10.0982C4.6912 10.0982 3.98407 9.39048 3.98407 8.52053C3.98407 7.65055 4.6912 6.94277 5.56039 6.94277C6.42955 6.94277 7.13665 7.65055 7.13665 8.52053C7.13665 9.39048 6.42955 10.0982 5.56039 10.0982V10.0982ZM5.56039 6.51515C4.45557 6.51515 3.5567 7.41476 3.5567 8.52053C3.5567 9.62629 4.45557 10.5259 5.56039 10.5259C6.66518 10.5259 7.56399 9.62629 7.56399 8.52053C7.56399 7.41476 6.66518 6.51515 5.56039 6.51515Z" fill="currentColor"/>
</svg>
