<svg width="1em" height="1em" viewBox="0 0 17 17" fill="none" xmlns="http://www.w3.org/2000/svg">
<g clip-path="url(#clip0_12532_50429)">
<path d="M6.85163 10.1755C6.66878 10.1755 6.48995 10.1574 6.31312 10.1212C6.1363 10.0851 5.97154 10.0348 5.82083 9.9665C5.65205 9.88814 5.50939 9.7937 5.39284 9.68519C5.27831 9.57468 5.19392 9.4501 5.14369 9.31145C5.1035 9.18687 5.1035 9.06832 5.1457 8.95781C5.18789 8.8473 5.26425 8.76893 5.37275 8.72071C5.48126 8.67248 5.5777 8.65038 5.66009 8.65239C5.74247 8.6544 5.8128 8.67449 5.86906 8.71066C5.92532 8.74884 5.97354 8.78902 6.01373 8.83323C6.06196 8.88748 6.11018 8.93571 6.16041 8.97589C6.3714 9.14468 6.60448 9.22907 6.86168 9.22907C6.99429 9.23309 7.12088 9.21701 7.23943 9.18286C7.35798 9.1487 7.42228 9.07435 7.43032 8.95982C7.43032 8.86538 7.39415 8.79304 7.32182 8.74683C7.24948 8.70061 7.13897 8.6544 6.99429 8.61019L6.50602 8.44342C5.8992 8.23645 5.52948 8.01141 5.39686 7.76426C5.26425 7.51711 5.212 7.29809 5.24013 7.10117V7.09515C5.2542 6.77968 5.41897 6.51244 5.73242 6.29141C6.04588 6.07038 6.43168 5.95585 6.88579 5.9458C7.24747 5.9458 7.56093 6.00407 7.82616 6.1186C8.09139 6.23314 8.28831 6.3979 8.42093 6.61089C8.50934 6.74954 8.53948 6.87412 8.51336 6.98262C8.49728 7.04089 8.46915 7.08711 8.42896 7.12529C8.39079 7.16346 8.35261 7.19159 8.31443 7.21169C8.16574 7.28603 8.04317 7.32421 7.94873 7.32421C7.8784 7.32421 7.8121 7.30814 7.74981 7.27398C7.68953 7.23982 7.62322 7.19762 7.55088 7.14739L7.51069 7.11725C7.33789 6.99267 7.16308 6.92837 6.98625 6.92837C6.83354 6.92837 6.71499 6.95248 6.62859 6.9987C6.54219 7.04692 6.49798 7.10921 6.49798 7.18959C6.49798 7.26996 6.53214 7.33225 6.60247 7.37846C6.6728 7.42468 6.76523 7.46487 6.87976 7.49702L7.53481 7.70599C7.9849 7.84463 8.3084 8.05561 8.5013 8.33692C8.58167 8.45949 8.63593 8.57201 8.65803 8.67449C8.68214 8.77697 8.69219 8.85734 8.68817 8.91561C8.68817 9.11253 8.63995 9.29136 8.54149 9.45211C8.44303 9.61286 8.29836 9.7515 8.10948 9.86603C7.94069 9.96449 7.7478 10.0408 7.53079 10.0951C7.31579 10.1494 7.08873 10.1755 6.85163 10.1755ZM11.8087 10.6899C11.8047 10.5974 11.8248 10.5291 11.8649 10.4849C11.9051 10.4387 11.9493 10.4086 11.9976 10.3965C12.0779 10.3664 12.1503 10.3242 12.2146 10.2699C12.2789 10.2157 12.3251 10.1514 12.3592 10.077C12.3934 9.99262 12.4195 9.89215 12.4396 9.77762C12.4497 9.7294 12.4557 9.68519 12.4597 9.64099C12.4657 9.61487 12.4698 9.58673 12.4698 9.56061L12.4858 9.48024L12.516 9.24715L12.532 9.16678C12.532 9.14066 12.5361 9.11253 12.5421 9.08641L12.5582 8.98393C12.5582 8.96384 12.5622 8.94374 12.5682 8.92365L12.5742 8.87342L12.6305 8.47758L12.6466 8.34496L12.6827 8.11187C12.6888 8.10183 12.6888 8.0958 12.6827 8.0958C12.6868 8.09178 12.6807 8.08977 12.6667 8.08977H12.5099C12.4517 8.08977 12.4115 8.06365 12.3874 8.01342C12.3813 7.99734 12.3773 7.97725 12.3773 7.95716C12.3834 7.88683 12.3934 7.81449 12.4075 7.74416C12.4175 7.70398 12.4396 7.67384 12.4738 7.65173C12.5079 7.63164 12.5441 7.61959 12.5803 7.61557H12.747C12.7531 7.59547 12.7571 7.57739 12.7571 7.5593C12.7631 7.51108 12.7732 7.46688 12.7832 7.42669C12.8073 7.30814 12.8495 7.20164 12.9098 7.1072C12.9882 6.98463 13.0886 6.89421 13.2092 6.83192L13.3016 6.79174C13.3318 6.77566 13.3659 6.7636 13.4041 6.75557C13.4523 6.7415 13.5126 6.72945 13.587 6.7194C13.6673 6.70935 13.7437 6.70332 13.816 6.70332H13.8622C13.9225 6.70734 13.9828 6.71337 14.0411 6.72342C14.0712 6.72744 14.0993 6.7415 14.1214 6.76963C14.1456 6.79575 14.1556 6.83192 14.1536 6.87412C14.1516 6.91631 14.1455 6.96052 14.1355 7.00874C14.1315 7.03888 14.1275 7.06902 14.1194 7.10117L14.1134 7.1273C14.1094 7.15141 14.0973 7.1715 14.0772 7.18758C14.0571 7.20365 14.035 7.2137 14.0109 7.2137H13.8381C13.814 7.20968 13.7879 7.20767 13.7577 7.20767H13.7075C13.6633 7.21169 13.6171 7.22374 13.5709 7.24786C13.5066 7.278 13.4563 7.32823 13.4242 7.40057C13.3981 7.45482 13.378 7.52515 13.3679 7.61356H14.1958V7.61958H14.2018V7.61356H14.2078C14.252 7.61758 14.2882 7.63365 14.3163 7.66379C14.3445 7.69393 14.3606 7.73412 14.3606 7.78033C14.3565 7.79641 14.3545 7.81449 14.3545 7.83057V7.84061C14.3606 7.83458 14.3666 7.83057 14.3706 7.83057L14.4269 7.78033C14.461 7.75421 14.4972 7.72608 14.5394 7.69996C14.5796 7.67384 14.6238 7.65173 14.672 7.63365C14.7363 7.60954 14.7986 7.59547 14.8609 7.58744C14.9212 7.58141 14.9754 7.57739 15.0176 7.57739C15.0859 7.57739 15.1201 7.5794 15.1241 7.58342C15.1884 7.58744 15.2567 7.60753 15.327 7.6437C15.4074 7.6879 15.4737 7.75421 15.5199 7.84262L15.54 7.89286L15.5702 7.86272C15.5802 7.84865 15.5943 7.83659 15.6104 7.82655C15.7691 7.6879 15.9238 7.60552 16.0725 7.58342C16.1127 7.57739 16.1569 7.57337 16.2051 7.57337C16.2534 7.57337 16.3036 7.57739 16.3578 7.58342C16.4382 7.59346 16.5146 7.61557 16.5809 7.64973C16.6552 7.68991 16.7115 7.75019 16.7517 7.82856C16.7919 7.90692 16.814 7.99533 16.82 8.09379C16.824 8.17818 16.818 8.26458 16.8039 8.353V8.36907L16.7838 8.5479L16.7677 8.6343L16.7577 8.71066C16.7517 8.73678 16.7456 8.76491 16.7416 8.79505C16.7376 8.82318 16.7356 8.85131 16.7356 8.87944L16.7155 8.99197L16.7055 9.07234L16.6954 9.12257L16.6894 9.17884L16.6592 9.39183L16.6391 9.56463L16.6191 9.67715L16.5829 9.96248L16.5769 9.97253C16.5728 10.0127 16.5648 10.0529 16.5507 10.0891C16.5306 10.1373 16.4965 10.1674 16.4483 10.1815C16.4221 10.1875 16.39 10.1915 16.3558 10.1915H16.0866C16.0263 10.1915 15.9841 10.1654 15.96 10.1152C15.9499 10.0891 15.9439 10.067 15.9439 10.0549L15.96 9.93837L15.97 9.89215V9.87608C15.9761 9.85197 15.9801 9.82986 15.9801 9.80977C15.9861 9.77963 15.9901 9.74949 15.9901 9.71734C16.0002 9.66711 16.0062 9.61687 16.0102 9.57066C16.0203 9.51038 16.0283 9.44809 16.0363 9.38781L16.0524 9.29538L16.0886 9.02613L16.0986 8.96585C16.1027 8.91561 16.1087 8.86739 16.1187 8.82318C16.1248 8.79304 16.1288 8.7629 16.1288 8.73678C16.1388 8.68856 16.1448 8.64435 16.1489 8.60015L16.1549 8.5901C16.1649 8.50169 16.173 8.41127 16.181 8.32085C16.187 8.26258 16.177 8.21435 16.1509 8.17416C16.1248 8.13398 16.0906 8.10987 16.0484 8.10384C16.0223 8.09781 15.9941 8.09379 15.968 8.09379C15.9298 8.09379 15.8937 8.09982 15.8555 8.11388L15.8254 8.12996C15.751 8.1601 15.6787 8.21234 15.6063 8.28669C15.6023 8.29272 15.5963 8.30075 15.5863 8.30678C15.5762 8.32085 15.5702 8.33491 15.5662 8.353L15.54 8.58608L15.4898 8.92566C15.4898 8.95178 15.4878 8.97991 15.4838 9.01005C15.4798 9.03818 15.4757 9.06631 15.4677 9.09444L15.4516 9.20697L15.4416 9.26323C15.4416 9.29337 15.4376 9.3215 15.4315 9.3436L15.4215 9.41996C15.4114 9.48828 15.4034 9.55258 15.3954 9.61286L15.3793 9.7294C15.3753 9.76958 15.3692 9.81178 15.3592 9.85599C15.3592 9.87005 15.3572 9.88412 15.3532 9.9022C15.3491 9.94641 15.3431 9.99262 15.3331 10.0388C15.309 10.1373 15.2507 10.1875 15.1542 10.1915H14.8589C14.7845 10.1915 14.7383 10.1594 14.7222 10.0951C14.7162 10.071 14.7142 10.0449 14.7162 10.0147V10.0047C14.7222 9.98458 14.7263 9.96449 14.7263 9.9444L14.7363 9.90421L14.7664 9.6651C14.7725 9.60683 14.7825 9.55057 14.7926 9.49229L14.8026 9.39987L14.8428 9.13463L14.879 8.85935L14.9151 8.64033C14.9151 8.61019 14.9191 8.58206 14.9252 8.55996C14.9413 8.4615 14.9473 8.36505 14.9413 8.27061C14.9372 8.19225 14.9071 8.14202 14.8488 8.1179C14.8106 8.10183 14.7745 8.09178 14.7363 8.09178L14.6901 8.09781C14.6117 8.11187 14.5434 8.14001 14.4871 8.1822C14.4289 8.2244 14.3786 8.2686 14.3344 8.31683C14.3244 8.32687 14.3184 8.34094 14.3143 8.35701L14.3083 8.42332C14.3023 8.44944 14.2983 8.47758 14.2983 8.5037L14.2681 8.6765V8.69659L14.2581 8.75286L14.248 8.84529C14.244 8.89351 14.238 8.93973 14.2279 8.98795C14.2219 9.04823 14.2119 9.11052 14.2018 9.1708L14.1918 9.2572L14.1054 9.86201C14.0993 9.9223 14.0893 9.98659 14.0752 10.0509C14.0692 10.0851 14.0531 10.1132 14.031 10.1373C14.0089 10.1614 13.9828 10.1755 13.9527 10.1835C13.9326 10.1895 13.9084 10.1936 13.8823 10.1936H13.593C13.5287 10.1936 13.4885 10.1654 13.4704 10.1072C13.4644 10.077 13.4624 10.0429 13.4644 10.0047C13.4644 9.98057 13.4684 9.95846 13.4744 9.93837L13.4805 9.9022C13.4945 9.80977 13.5066 9.72337 13.5166 9.63697C13.5227 9.61085 13.5267 9.58272 13.5267 9.55659L13.5427 9.46416C13.5427 9.43402 13.5468 9.40388 13.5528 9.37776C13.5588 9.35164 13.5628 9.32552 13.5628 9.30141L13.5789 9.21501C13.5789 9.19089 13.5829 9.16477 13.589 9.13463L13.6553 8.64636L13.6754 8.51977L13.6914 8.40323C13.6975 8.37711 13.7015 8.34697 13.7015 8.31683C13.7075 8.29272 13.7115 8.26659 13.7115 8.23645L13.7377 8.09379H13.3157C13.3056 8.09379 13.2996 8.09982 13.2956 8.11388L13.2755 8.24047L13.2695 8.29071C13.2655 8.29673 13.2634 8.30678 13.2634 8.31683L13.2534 8.36706C13.2534 8.3972 13.2494 8.42734 13.2434 8.45346C13.2393 8.50169 13.2333 8.54991 13.2233 8.60015L13.1931 8.82921L13.177 8.91561C13.177 8.94575 13.173 8.97589 13.167 9.00201C13.161 9.02814 13.157 9.05828 13.157 9.08842L13.1409 9.16879L13.0947 9.48828L13.0545 9.80776C12.9661 10.3061 12.8274 10.6175 12.6385 10.7461C12.4497 10.8727 12.2889 10.935 12.1603 10.931C12.09 10.941 12.0217 10.933 11.9574 10.9049C11.9192 10.8908 11.887 10.8667 11.8589 10.8345C11.8328 10.7923 11.8147 10.7481 11.8087 10.6899ZM4.29976 5.99202C4.00841 6.00608 3.83158 6.08244 3.76929 6.22309C3.707 6.36374 3.68289 6.49033 3.69495 6.60085V6.68725L3.66481 6.60688C3.66481 6.60286 3.64873 6.57673 3.61457 6.5265C3.58042 6.47627 3.52214 6.41599 3.44177 6.34767C3.36742 6.28337 3.2549 6.22309 3.10621 6.16884C2.95752 6.11459 2.76462 6.08645 2.53154 6.08244C2.01715 6.0965 1.59116 6.2894 1.25761 6.66113C0.924061 7.03286 0.751258 7.50907 0.741211 8.08374C0.751258 8.68052 0.914015 9.16678 1.23149 9.54454C1.54897 9.92229 1.95686 10.1172 2.4592 10.1313H2.52551C2.79074 10.1172 3.02785 10.0549 3.24285 9.94239C3.42168 9.84795 3.56233 9.71935 3.66481 9.55659L3.69495 9.50033V9.60683C3.68892 9.73543 3.72107 9.86 3.79742 9.98057C3.87177 10.1011 4.04056 10.1634 4.29976 10.1715C4.55696 10.1715 4.73177 10.079 4.8242 9.89215C4.86238 9.81379 4.88448 9.73744 4.89051 9.66108C4.89654 9.58473 4.90055 9.52444 4.90055 9.48024V6.83594C4.91462 6.65309 4.89051 6.47024 4.82621 6.28739C4.76392 6.10454 4.5871 6.00608 4.29976 5.99202ZM2.73448 9.0422C2.5014 9.03818 2.32056 8.9558 2.19397 8.79304C2.06738 8.63029 2.00308 8.41729 2.00308 8.15206C2.00308 7.84463 2.06738 7.61758 2.19397 7.47692C2.32056 7.33426 2.5014 7.26594 2.73448 7.26795C2.94546 7.26393 3.11023 7.33225 3.2328 7.46888C3.35537 7.60552 3.41766 7.83458 3.42168 8.15206C3.41766 8.4193 3.35537 8.6343 3.2328 8.79505C3.11023 8.95781 2.94345 9.04019 2.73448 9.0422ZM9.52607 10.1755C9.24878 10.1614 9.07597 10.073 9.00966 9.90622C8.94336 9.73944 8.91322 9.57468 8.92125 9.4079V6.73547C8.91523 6.56669 8.94336 6.39589 9.00966 6.2251C9.07597 6.05431 9.24677 5.96188 9.52607 5.94781C9.73705 5.94781 9.88976 5.99804 9.98822 6.10052C10.0585 6.17889 10.1027 6.26529 10.1148 6.36174C10.1289 6.45818 10.1329 6.54459 10.1309 6.62295C10.1269 6.64304 10.1249 6.66113 10.1249 6.67921V7.20767L10.8824 6.34767C10.9326 6.2894 10.9808 6.24318 11.025 6.20501C11.1637 6.08244 11.2963 6.02216 11.4209 6.02216C11.5234 6.02216 11.6258 6.05832 11.7303 6.12865C11.7745 6.15879 11.8107 6.18893 11.8428 6.22108C11.9654 6.35973 12.0156 6.49435 11.9956 6.62496C11.9755 6.75557 11.9192 6.86407 11.8288 6.95248L11.0009 7.84262L12.0277 9.3215C12.1121 9.44005 12.1463 9.56865 12.1302 9.70528C12.1141 9.84192 12.0478 9.96047 11.9313 10.0589C11.8328 10.1373 11.7183 10.1755 11.5856 10.1755H11.5656C11.4731 10.1715 11.3887 10.1473 11.3084 10.1011C11.228 10.0549 11.1617 9.99262 11.1074 9.91627L10.1249 8.47356V9.39786C10.1349 9.59477 10.1048 9.77159 10.0324 9.92631C9.96009 10.081 9.79331 10.1654 9.52607 10.1755Z" fill="currentColor"/>
</g>
<defs>
<clipPath id="clip0_12532_50429">
<rect width="16.08" height="16.08" fill="white" transform="translate(0.741211 0.400391)"/>
</clipPath>
</defs>
</svg>
