<svg width="1em" height="1em" viewBox="0 0 17 17" fill="none" xmlns="http://www.w3.org/2000/svg">
<path d="M4.87278 8.94277C6.25489 8.64596 6.06658 6.99428 6.02521 6.63328C5.95752 6.07673 5.30292 5.10393 4.41401 5.18088C3.29541 5.28125 3.13198 6.89709 3.13198 6.89709C2.98069 7.64398 3.49414 9.23985 4.87278 8.94277ZM6.34052 11.8157C6.30002 11.9318 6.20977 12.2289 6.28787 12.4874C6.44205 13.0677 6.94566 13.0938 6.94566 13.0938H7.66939V11.3246H6.89446C6.54618 11.4284 6.37812 11.6995 6.34052 11.8157ZM7.43799 6.17305C8.20137 6.17305 8.81837 5.29456 8.81837 4.20836C8.81837 3.12333 8.20137 2.24512 7.43799 2.24512C6.67577 2.24512 6.05732 3.12333 6.05732 4.20836C6.05732 5.29456 6.67607 6.17305 7.43799 6.17305ZM10.7258 6.30293C11.746 6.43542 12.4021 5.34662 12.5325 4.52135C12.6656 3.69723 12.0072 2.74005 11.2849 2.57546C10.5612 2.40942 9.65755 3.5688 9.57507 4.32465C9.47671 5.24856 9.70726 6.1719 10.7258 6.30293ZM10.7255 8.61273C9.47645 6.66654 7.70208 7.45852 7.10852 8.44845C6.51754 9.43797 5.59652 10.064 5.46578 10.2297C5.333 10.3929 3.55894 11.3506 3.95292 13.0998C4.34661 14.8478 5.72988 14.8146 5.72988 14.8146C5.72988 14.8146 6.74925 14.915 7.93176 14.6503C9.11485 14.3879 10.1334 14.7156 10.1334 14.7156C10.1334 14.7156 12.8967 15.641 13.6529 13.8597C14.4081 12.0778 13.2256 11.1539 13.2256 11.1539C13.2256 11.1539 11.6471 9.93263 10.7255 8.61273ZM6.70094 13.805C5.92513 13.6503 5.61619 13.1209 5.57715 13.0306C5.53896 12.939 5.31854 12.5135 5.43511 11.7895C5.77037 10.7047 6.7264 10.6269 6.7264 10.6269H7.68272V9.4513L8.49731 9.46376V13.805H6.70094ZM9.77614 13.7926C8.97488 13.5861 8.93756 13.0168 8.93756 13.0168V10.7307L9.77614 10.7171V12.7718C9.82732 12.991 10.0995 13.0306 10.0995 13.0306H10.9514V10.7307H11.8435V13.7926H9.77614ZM14.77 7.6888C14.77 7.29397 14.4419 6.10507 13.2256 6.10507C12.0072 6.10507 11.8444 7.22714 11.8444 8.02032C11.8444 8.77728 11.9083 9.83401 13.4217 9.80044C14.9357 9.76687 14.77 8.08571 14.77 7.6888Z" fill="currentColor"/>
</svg>
