<svg width="1em" height="1em" viewBox="0 0 17 17" fill="none" xmlns="http://www.w3.org/2000/svg">
<path d="M9.25963 2.33008C8.92389 2.33008 8.52 2.503 8.52 2.94223C8.52 3.23126 8.60015 3.65851 8.68219 4.00434C8.78259 4.24825 8.82238 4.42488 8.90293 4.7825C8.93326 4.91713 8.96937 5.07742 9.01666 5.2766C9.11006 5.65841 9.22997 6.03264 9.37512 6.39804C9.52468 6.79247 9.69886 7.12694 9.9412 7.57816C10.0567 7.79715 10.1141 7.79715 10.3918 7.64758C10.6453 7.51696 10.9079 7.40476 11.1775 7.31185C10.7616 6.41066 10.4151 5.65841 10.2422 5.02354C10.1955 4.838 10.0333 4.09774 9.98727 3.774C9.95256 3.45025 9.91785 3.17321 9.8377 2.87281C9.7443 2.50299 9.61808 2.33008 9.25963 2.33008Z" fill="currentColor"/>
<path d="M2.54617 11.6209C2.83962 11.513 4.1365 10.8333 4.38136 10.6818H4.38073C4.60287 10.5443 4.67418 10.4401 4.57005 10.1807C4.47539 9.94472 4.33908 9.87846 4.14218 9.93084C3.86324 10.0066 2.66103 10.4414 2.37073 10.5537C2.04257 10.6806 1.81222 10.7967 1.9763 11.2845C2.11009 11.6802 2.33728 11.6985 2.54617 11.6209Z" fill="currentColor"/>
<path d="M1.18366 7.84385C1.51435 7.87603 2.96268 7.93788 3.31167 7.92841C3.47575 7.92337 3.60386 7.86972 3.64299 7.58574C3.67265 7.36801 3.63857 7.25442 3.38866 7.17679C3.14696 7.1017 1.62921 6.85494 1.30104 6.82339C1.01895 6.79625 0.844139 6.82339 0.810691 7.27146C0.779137 7.68797 0.895256 7.81545 1.18366 7.84385Z" fill="currentColor"/>
<path d="M1.66234 4.00548C2.04558 4.2352 3.11639 4.87706 3.49153 4.99577V4.99514C3.69095 5.05825 3.79634 5.00145 3.90805 4.78057C4.02101 4.55906 4.05004 4.46945 3.8361 4.29716C3.61396 4.11857 2.45403 3.21486 2.12461 3.04383C1.84125 2.89679 1.65003 2.95359 1.47838 3.27923C1.28274 3.64778 1.31934 3.79924 1.59828 3.96711C1.61666 3.97809 1.63812 3.99096 1.66234 4.00548Z" fill="currentColor"/>
<path d="M5.58302 6.0642C5.45555 6.22576 5.44419 6.48072 5.54831 6.81519C5.76793 7.52011 6.02289 8.1676 6.29678 8.83024C6.78334 9.97376 7.09573 10.5645 7.54632 11.3154C7.55712 11.3331 7.5679 11.3507 7.57869 11.3683C8.13373 12.2751 8.68535 13.1764 9.55821 13.7546C10.203 14.169 10.9532 14.3896 11.7197 14.3901C12.6513 14.3847 13.5468 14.0295 14.2289 13.3949C14.8076 12.8641 15.5466 11.8228 15.5466 9.73016C15.5466 8.8186 15.9221 8.02101 16.1777 7.47822C16.1911 7.44983 16.2041 7.42213 16.2168 7.39516C16.22 7.38863 16.2235 7.38178 16.2271 7.37462C16.3 7.22934 16.4364 6.9575 16.4364 6.75902C16.4368 6.65008 16.409 6.54289 16.3556 6.4479C16.2515 6.28571 16.0893 6.22828 15.8937 6.22828C15.2796 6.22828 14.8871 6.69024 14.6675 7.09413C14.5753 7.27146 14.5015 7.45763 14.4478 7.64948C14.321 8.07736 14.1935 8.24964 13.8243 8.55067C13.6274 8.72358 13.3851 8.9432 13.2463 9.11675C13.0153 9.4304 12.9459 9.69545 12.8878 10.112C12.8764 10.2161 12.6795 10.2615 12.4372 10.2615C12.2984 10.2615 12.2523 10.2155 12.2523 9.99648C12.2523 9.7655 12.3331 9.41778 12.5066 9.10665C12.749 8.67878 13.0153 8.4478 13.281 8.22818C13.5467 8.00857 13.6274 7.91643 13.6735 7.77759C13.4312 7.45321 13.2002 7.11748 13.0147 6.79436C12.6795 6.20493 12.4599 5.76444 12.287 5.2337C12.1508 4.81326 12.0426 4.38423 11.9633 3.94944C11.8244 3.13976 11.6856 2.93151 11.4205 2.86209C11.2009 2.80466 10.9119 2.86209 10.7503 3.00093C10.6229 3.11641 10.5768 3.20855 10.6115 3.46351C10.6602 3.93177 10.7452 4.39554 10.8658 4.85063C11.0704 5.65069 11.3909 6.30284 11.6111 6.7509C11.6518 6.83369 11.6891 6.90951 11.7216 6.97801C11.7897 7.12884 11.8478 7.18627 11.9639 7.17428C11.9935 7.1722 12.0207 7.17012 12.0462 7.16818C12.1596 7.15952 12.2367 7.15364 12.3217 7.16292C12.4599 7.17428 12.5634 7.25505 12.5634 7.39389C12.5634 7.50938 12.5066 7.55608 12.2984 7.60215C11.8705 7.69429 11.3271 7.84449 10.7951 8.14551C10.3307 8.40131 9.92204 8.74716 9.59292 9.16282C9.55821 9.20952 9.5235 9.23224 9.46544 9.23224C9.38467 9.23224 9.31525 9.1401 9.24583 9.04733C9.17641 8.95519 9.13034 8.88577 9.13034 8.81635C9.13034 8.73621 9.16505 8.66616 9.24583 8.56203C9.29212 8.49893 9.3416 8.44188 9.38578 8.39094C9.46267 8.30229 9.5235 8.23215 9.5235 8.18085C9.5235 8.14207 9.47601 8.06615 9.4166 7.97118C9.38804 7.92553 9.35672 7.87548 9.32661 7.82303C9.17641 7.54535 8.92271 6.99 8.74917 6.57349C8.48348 5.93799 8.29857 5.12831 8.19508 4.63164C8.0676 4.08828 7.87133 3.93808 7.5703 3.93808C7.15505 3.93808 6.87738 4.18042 6.87738 4.55023C6.87738 4.79383 6.95752 5.11758 7.11971 5.64958C7.21009 5.96466 7.31049 6.27679 7.42074 6.58548C7.57313 7.00689 7.73877 7.4234 7.9174 7.83439C8.03448 8.09561 8.19374 8.39172 8.30731 8.60287C8.33943 8.66259 8.36789 8.71551 8.39071 8.75892C8.39592 8.76821 8.4015 8.77805 8.40734 8.78836C8.46661 8.89299 8.5529 9.04531 8.5529 9.1401C8.5529 9.32501 8.41406 9.42914 8.22915 9.42914C8.12566 9.42914 8.03226 9.38243 7.92876 9.22088C7.80128 9.03408 7.52423 8.49135 7.32797 8.08745C7.17714 7.75235 6.92344 7.15093 6.79596 6.73441C6.58834 6.07556 6.4495 5.82123 6.09105 5.83259C5.88342 5.84458 5.70987 5.914 5.58302 6.0642Z" fill="currentColor"/>
</svg>
