<svg width="1em" height="1em" viewBox="0 0 16 17" fill="none" xmlns="http://www.w3.org/2000/svg">
<path d="M12.2425 10.5499L11.2997 9.60711L12.2425 8.66431C13.5442 7.36258 13.5442 5.25202 12.2425 3.95027C10.9407 2.64852 8.83012 2.64852 7.52838 3.95027L6.58558 4.89308L5.64277 3.95027L6.58558 3.00746C8.40805 1.18501 11.3628 1.18501 13.1853 3.00746C15.0077 4.82991 15.0077 7.78465 13.1853 9.60711L12.2425 10.5499ZM10.3568 12.4356L9.41398 13.3784C7.59158 15.2008 4.63679 15.2008 2.81434 13.3784C0.991898 11.5559 0.991898 8.60111 2.81434 6.7787L3.75715 5.83589L4.69996 6.7787L3.75715 7.72151C2.4554 9.02325 2.4554 11.1338 3.75715 12.4356C5.0589 13.7373 7.16945 13.7373 8.47118 12.4356L9.41398 11.4927L10.3568 12.4356ZM9.88538 5.36449L10.8282 6.30729L6.11418 11.0213L5.17136 10.0785L9.88538 5.36449Z" fill="currentColor" fill-opacity="0.7"/>
</svg>
