<svg width="1em" height="1em" viewBox="0 0 17 17" fill="none" xmlns="http://www.w3.org/2000/svg">
<path d="M13.7544 3.68349C12.8372 3.26399 11.8631 2.95825 10.8463 2.7876C10.7183 3.00802 10.5761 3.30665 10.4765 3.54129C9.39509 3.38486 8.32142 3.38486 7.25488 3.54129C7.15533 3.30665 7.00601 3.00802 6.88513 2.7876C5.86125 2.95825 4.88714 3.26399 3.9763 3.68349C2.13473 6.39964 1.637 9.05176 1.88587 11.6684C3.10884 12.5572 4.28917 13.0976 5.44887 13.4531C5.73328 13.0691 5.98926 12.6567 6.20968 12.223C5.79017 12.0666 5.39198 11.8746 5.00803 11.6471C5.10758 11.576 5.20712 11.4978 5.29956 11.4195C7.61752 12.479 10.1282 12.479 12.4177 11.4195C12.5172 11.4978 12.6097 11.576 12.7092 11.6471C12.3253 11.8746 11.9271 12.0666 11.5076 12.223C11.728 12.6567 11.984 13.0691 12.2684 13.4531C13.4274 13.0976 14.6148 12.5572 15.8314 11.6684C16.1371 8.63944 15.3472 6.0086 13.7544 3.68349ZM6.52964 10.0543C5.83282 10.0543 5.26399 9.42154 5.26399 8.64655C5.26399 7.87149 5.81859 7.23868 6.52964 7.23868C7.23355 7.23868 7.80947 7.87149 7.79527 8.64655C7.79527 9.42154 7.23355 10.0543 6.52964 10.0543ZM11.2019 10.0543C10.505 10.0543 9.93545 9.42154 9.93545 8.64655C9.93545 7.87149 10.4908 7.23868 11.2019 7.23868C11.9058 7.23868 12.4817 7.87149 12.4674 8.64655C12.4674 9.42154 11.9129 10.0543 11.2019 10.0543Z" fill="currentColor"/>
</svg>
