<svg width="1em" height="1em" viewBox="0 0 17 17" fill="none" xmlns="http://www.w3.org/2000/svg">
<path d="M8.54082 1.90039C4.84201 1.90039 1.84082 4.90158 1.84082 8.60039C1.84082 12.2992 4.84201 15.3004 8.54082 15.3004C12.2324 15.3004 15.2408 12.2992 15.2408 8.60039C15.2408 4.90158 12.2324 1.90039 8.54082 1.90039ZM12.9663 4.98878C13.7657 5.96254 14.2453 7.20516 14.2598 8.54954C14.0709 8.51322 12.1815 8.12804 10.2776 8.36783C10.234 8.27336 10.1977 8.17166 10.154 8.06995C10.0378 7.79378 9.90702 7.51037 9.77617 7.2415C11.8835 6.38403 12.8428 5.14866 12.9663 4.98878ZM8.54082 2.88868C9.99418 2.88868 11.324 3.43369 12.3341 4.32751C12.2324 4.47284 11.3676 5.62826 9.33289 6.39127C8.3955 4.66905 7.35633 3.25928 7.19646 3.04128C7.6252 2.93954 8.07577 2.88868 8.54082 2.88868ZM6.10646 3.42642C6.25905 3.62989 7.2764 5.04692 8.22833 6.73281C5.55416 7.44498 3.19245 7.43044 2.93811 7.43044C3.30872 5.65734 4.50774 4.18217 6.10646 3.42642ZM2.81457 8.60769C2.81457 8.54954 2.81457 8.49138 2.81457 8.43329C3.06164 8.44053 5.83756 8.47684 8.69338 7.61938C8.86061 7.9391 9.01317 8.26613 9.15849 8.59309C9.0858 8.61493 9.00587 8.6367 8.93324 8.65855C5.9829 9.61048 4.41327 12.212 4.28247 12.43C3.37412 11.42 2.81457 10.0755 2.81457 8.60769ZM8.54082 14.3266C7.21824 14.3266 5.99744 13.8761 5.03095 13.1203C5.13268 12.9096 6.29536 10.6714 9.52183 9.54509C9.53637 9.53779 9.54361 9.53779 9.55815 9.53055C10.3648 11.6161 10.6918 13.3674 10.779 13.8688C10.0887 14.1668 9.33289 14.3266 8.54082 14.3266ZM11.731 13.3456C11.6728 12.9968 11.3676 11.3254 10.6191 9.26892C12.414 8.98551 13.9836 9.45062 14.1799 9.51601C13.9328 11.1075 13.0172 12.4808 11.731 13.3456Z" fill="currentColor"/>
</svg>
