<svg width="1em" height="1em" viewBox="0 0 25 24" fill="none" xmlns="http://www.w3.org/2000/svg">
<path d="M12.426 19.1479C8.45218 19.1479 5.21777 15.9135 5.21777 11.9397C5.21777 7.96585 8.45218 4.73145 12.426 4.73145C16.3999 4.73145 19.6343 7.96585 19.6343 11.9397C19.6343 15.9135 16.3999 19.1479 12.426 19.1479ZM12.426 5.89407C9.09162 5.89407 6.38039 8.6053 6.38039 11.9397C6.38039 15.2741 9.09162 17.9853 12.426 17.9853C15.7604 17.9853 18.4716 15.2741 18.4716 11.9397C18.4716 8.6053 15.7604 5.89407 12.426 5.89407Z" fill="white"/>
<path d="M10.3352 11.2305C8.9726 11.2305 7.4984 11.0282 5.92654 10.619C5.61496 10.5376 5.42894 10.2214 5.51032 9.90979C5.5917 9.59821 5.90794 9.41219 6.21952 9.49357C10.9816 10.7306 14.709 9.94699 16.997 7.23111C17.204 6.98696 17.5713 6.95441 17.8155 7.16136C18.062 7.3683 18.0922 7.73569 17.8853 7.97984C16.0692 10.1353 13.5022 11.2305 10.3352 11.2305Z" fill="white"/>
<path d="M7.42883 16.8713C7.29397 16.8713 7.16143 16.8248 7.05214 16.7318C6.80799 16.5225 6.78009 16.1552 6.98704 15.911C10.3865 11.9372 14.7859 10.9931 19.0574 13.3253C19.3387 13.4788 19.4434 13.8322 19.2899 14.1136C19.1364 14.3949 18.783 14.4996 18.5016 14.3461C13.3721 11.5489 9.64014 14.5996 7.87063 16.669C7.75669 16.8016 7.59392 16.8713 7.42883 16.8713Z" fill="white"/>
<path d="M14.3301 18.869C14.3091 18.869 14.2882 18.8691 14.2673 18.8667C13.9487 18.8318 13.7185 18.5458 13.7534 18.225C14.2068 14.0674 13.1372 9.87502 10.5771 5.75934C10.4074 5.48729 10.4911 5.1292 10.7632 4.95946C11.0352 4.78972 11.3933 4.87343 11.563 5.14548C14.265 9.4867 15.3904 13.9302 14.9091 18.3528C14.8742 18.6505 14.6231 18.869 14.3301 18.869Z" fill="white"/>
</svg>
