<svg width="1em" height="1em" viewBox="0 0 17 17" fill="none" xmlns="http://www.w3.org/2000/svg">
<path d="M10.8194 14.0703V9.4033H12.382L12.6159 7.58901H10.8194V6.43068C10.8194 5.90539 10.9652 5.54741 11.7184 5.54741L12.6792 5.54696V3.92428C12.513 3.90221 11.9428 3.85279 11.2793 3.85279C9.89404 3.85279 8.94579 4.69828 8.94579 6.25103V7.58901H7.37912V9.4033H8.94579V14.0703H3.17977C2.80974 14.0703 2.50977 13.7703 2.50977 13.4003V2.68025C2.50977 2.31023 2.80974 2.01025 3.17977 2.01025H13.8998C14.2698 2.01025 14.5698 2.31023 14.5698 2.68025V13.4003C14.5698 13.7703 14.2698 14.0703 13.8998 14.0703H10.8194Z" fill="currentColor"/>
</svg>
