<svg width="1em" height="1em" viewBox="0 0 17 17" fill="none" xmlns="http://www.w3.org/2000/svg">
<path d="M11.2953 3.35539L10.9746 4.90521C10.9379 5.07028 10.7822 5.21701 10.5898 5.21701H7.8044C7.49287 5.21701 7.23633 5.47379 7.23633 5.78558V6.12489C7.23633 6.43669 7.49287 6.69347 7.8044 6.69347H10.1591C10.379 6.69347 10.5623 6.90439 10.5165 7.13365C10.4707 7.37209 10.2233 8.5826 10.1958 8.71098C10.1775 8.84854 10.0309 9.02278 9.81096 9.02278H7.88686C7.48371 9.03195 7.40125 9.04112 7.16303 9.33458C6.92481 9.62804 4.81746 12.2692 4.81746 12.2692C4.79913 12.2967 4.78081 12.2875 4.78081 12.26V3.28203C4.78081 3.07111 4.95489 2.89687 5.16563 2.89687H10.9471C11.1487 2.89687 11.3502 3.09862 11.2953 3.35539ZM11.7167 1.42041C11.7167 1.42041 5.56877 1.42041 4.57924 1.42041C3.59886 1.42041 3.30566 2.16322 3.30566 2.63092V13.984C3.30566 14.5434 3.5897 14.7085 3.74546 14.7727C3.90122 14.8369 4.31353 14.8828 4.60672 14.5893C4.60672 14.5893 7.99681 10.6368 8.05178 10.5726C8.10675 10.5084 8.13424 10.5084 8.17089 10.5084C8.20754 10.5084 9.60939 10.5084 10.3149 10.5084C11.2311 10.5084 11.4052 9.87564 11.506 9.49048C11.5885 9.16951 12.5322 4.58424 12.8254 3.1353C13.0453 2.01649 12.7612 1.42041 11.7167 1.42041Z" fill="currentColor"/>
</svg>
