<svg width="1em" height="1em" viewBox="0 0 17 17" fill="none" xmlns="http://www.w3.org/2000/svg">
<path d="M2.24121 5.93798L5.37996 2.94629L5.38121 2.95078V2.94629H11.9649C12.4725 2.94629 12.8836 3.33819 12.8836 3.82204L12.8836 5.77991L14.8893 4.21231C15.1902 3.97805 15.6411 4.18093 15.6411 4.55094V11.9219C15.6411 12.2875 15.2001 12.4926 14.8985 12.2678L12.8836 10.6929V10.6763L12.8817 10.6914L12.8836 10.6929V12.5787C12.8836 13.0625 12.4725 13.4544 11.9649 13.4544H5.38121V13.4499L5.37996 13.4543H3.15987C2.65231 13.4543 2.24121 13.0624 2.24121 12.5785V5.93798ZM12.8836 5.78227L12.8818 5.78372L12.8836 5.79823L12.8836 5.78227ZM9.8214 8.19841V5.93845H5.38121V5.93463L5.37996 5.93844V10.4621L5.38121 10.4659V10.4623H9.82139V8.20332L9.81921 8.20095L9.8214 8.19841Z" fill="currentColor"/>
</svg>
