<svg width="1em" height="1em" viewBox="0 0 17 17" fill="none" xmlns="http://www.w3.org/2000/svg">
<path d="M8.70317 4.659C8.28775 4.659 7.95005 4.32132 7.95005 3.90592V3.08316C7.95005 2.66776 8.28775 2.33008 8.70317 2.33008C9.11859 2.33008 9.45629 2.66776 9.45629 3.08316V3.90592C9.45629 4.32132 9.11859 4.659 8.70317 4.659Z" fill="currentColor"/>
<path d="M8.70317 12.0612C8.28775 12.0612 7.95005 12.3988 7.95005 12.8142V13.637C7.95005 14.0524 8.28775 14.3901 8.70317 14.3901C9.11859 14.3901 9.45629 14.0524 9.45629 13.637V12.8142C9.45629 12.3988 9.11859 12.0612 8.70317 12.0612Z" fill="currentColor"/>
<path d="M6.78244 11.2385V10.4158C6.78244 10.0004 6.44474 9.66271 6.02932 9.66271C5.6139 9.66271 5.2762 10.0004 5.2762 10.4158V11.2385C5.2762 11.6539 5.6139 11.9916 6.02932 11.9916C6.44474 11.9916 6.78244 11.6539 6.78244 11.2385Z" fill="currentColor"/>
<path d="M6.78244 8.17262V5.4819C6.78244 5.0665 6.44474 4.72882 6.02932 4.72882C5.6139 4.72882 5.2762 5.0665 5.2762 5.4819V8.17262C5.28424 8.58267 5.61926 8.90963 6.02932 8.90963C6.43938 8.90963 6.7744 8.57999 6.78244 8.17262Z" fill="currentColor"/>
<path d="M4.17811 7.94988V8.77264C4.17811 9.18804 3.84042 9.52572 3.42499 9.52572C3.00957 9.52572 2.67188 9.18804 2.67188 8.76996V7.9472C2.67188 7.5318 3.00957 7.19412 3.42499 7.19412C3.84042 7.19412 4.17811 7.5318 4.17811 7.94988Z" fill="currentColor"/>
<path d="M13.2248 7.94974C13.2248 7.53434 13.5625 7.19666 13.978 7.19666C14.3934 7.19666 14.7311 7.53434 14.7311 7.94974V8.79394C14.7203 9.2013 14.388 9.52558 13.978 9.52558C13.5679 9.52558 13.2356 9.19862 13.2248 8.79394V7.94974Z" fill="currentColor"/>
<path d="M10.6205 6.30466C10.6205 6.72006 10.9582 7.05774 11.3736 7.05774C11.789 7.05774 12.1267 6.72006 12.1267 6.30466V5.4819C12.1267 5.0665 11.789 4.72882 11.3736 4.72882C10.9582 4.72882 10.6205 5.0665 10.6205 5.4819V6.30466Z" fill="currentColor"/>
<path d="M10.6205 8.56649C10.6205 8.15109 10.9582 7.81341 11.3736 7.81341C11.789 7.81341 12.1267 8.15109 12.1267 8.56649V11.2385C12.1267 11.6539 11.789 11.9915 11.3736 11.9915C10.9582 11.9915 10.6205 11.6539 10.6205 11.2385V8.56649Z" fill="currentColor"/>
<path d="M9.45629 10.5526V6.16817C9.45629 5.75009 9.11859 5.41509 8.70317 5.41509C8.28775 5.41509 7.95005 5.75277 7.95005 6.16817V10.5526C7.95005 10.968 8.28775 11.3057 8.70317 11.3057C9.11859 11.3057 9.45629 10.968 9.45629 10.5526Z" fill="currentColor"/>
</svg>
