<svg width="1em" height="1em" viewBox="0 0 17 17" fill="none" xmlns="http://www.w3.org/2000/svg">
<path d="M3.14672 14.0247C2.61076 14.0247 2.16644 13.8497 1.80821 13.4996C1.63326 13.319 1.63603 13.0428 1.81376 12.8759C2.10535 12.5997 2.30251 12.4 2.40804 12.2769C2.51356 12.1538 2.65797 11.8912 2.83847 11.4864C2.28307 10.5154 1.96372 9.39394 1.96372 8.19863C1.96372 4.50057 5.00731 1.5 8.76458 1.5C12.5191 1.50274 15.5627 4.50331 15.5627 8.20137C15.5627 11.8994 12.5191 14.9 8.7618 14.9C7.30943 14.9 5.96259 14.4514 4.85735 13.6855C4.32416 13.9126 3.75488 14.0247 3.14672 14.0247ZM3.34944 13.0373C3.82153 13.0373 4.25474 12.9498 4.66018 12.7774L4.94621 12.6544C5.04063 12.6133 5.14893 12.6243 5.23502 12.6844L5.4905 12.8622C6.44301 13.5214 7.57325 13.8798 8.76458 13.8798C11.9137 13.8798 14.463 11.3661 14.463 8.26701C14.463 5.16797 11.9109 2.65154 8.76458 2.65154C5.61824 2.65154 3.06341 5.16524 3.06341 8.26428C3.06341 9.2435 3.31889 10.1844 3.79654 11.0187L3.93261 11.2594C3.97704 11.3387 3.98259 11.4372 3.94649 11.5192L3.83264 11.7709C3.62714 12.2331 3.46052 12.5395 3.28835 12.7419C3.22725 12.813 3.14672 12.8978 3.04397 13.0017C3.13561 13.0236 3.23558 13.0373 3.34944 13.0373ZM5.42663 9.47052C5.42663 9.75773 5.29334 9.90269 5.02674 9.90269C4.76571 9.90269 4.63241 9.75773 4.63241 9.46505V7.45191C4.63241 7.32335 4.67129 7.22488 4.74349 7.15103C4.81847 7.07718 4.91289 7.03889 5.02952 7.03889C5.29056 7.03889 5.42385 7.17838 5.42385 7.45738V9.47052H5.42663ZM9.9698 9.50882C9.9698 9.7714 9.8365 9.90269 9.56991 9.90269C9.30332 9.90269 9.17002 9.7714 9.17002 9.50882V7.99896C9.17002 7.78014 9.04783 7.67346 8.80623 7.67346C8.72292 7.67346 8.64517 7.70629 8.57019 7.77193C8.49799 7.83758 8.46466 7.91417 8.46466 7.99896V9.50608C8.46466 9.76867 8.33415 9.89996 8.07033 9.89996C7.80096 9.89996 7.66489 9.76867 7.66489 9.50608V7.96887C7.66489 7.7692 7.57047 7.67073 7.38441 7.67073C7.29 7.67073 7.19835 7.70902 7.10394 7.78014C7.00952 7.85126 6.96231 7.92784 6.96231 8.01264V9.50335C6.96231 9.76593 6.83179 9.89722 6.57353 9.89722C6.30138 9.89722 6.16254 9.76593 6.16254 9.50335V7.40814C6.16254 7.16197 6.29305 7.03615 6.55131 7.03615C6.75681 7.03615 6.88733 7.11821 6.94565 7.28506C7.11782 7.11821 7.33165 7.03615 7.58713 7.03615C7.88427 7.03615 8.11754 7.1483 8.29527 7.37259C8.47022 7.1483 8.73403 7.03615 9.08116 7.03615C9.38385 7.03615 9.61156 7.12915 9.76707 7.31241C9.90315 7.47106 9.9698 7.68714 9.9698 7.96067V9.50882ZM11.7276 9.94919C10.9917 9.94919 10.3975 9.2982 10.3975 8.49404C10.3975 7.68988 10.9917 7.03889 11.7276 7.03889C12.4635 7.03889 13.0578 7.68988 13.0578 8.49404C13.0578 9.2982 12.4635 9.94919 11.7276 9.94919ZM11.7276 9.22162C12.0553 9.22162 12.3191 8.8633 12.3191 8.42019C12.3191 7.97708 12.0553 7.61876 11.7276 7.61876C11.3999 7.61876 11.1361 7.97708 11.1361 8.42019C11.1361 8.8633 11.4027 9.22162 11.7276 9.22162ZM5.07673 6.89118C4.83235 6.89118 4.63241 6.69698 4.63241 6.45354C4.63241 6.21284 4.82958 6.0159 5.07673 6.0159C5.32111 6.0159 5.52105 6.21284 5.52105 6.45354C5.52105 6.69424 5.32111 6.89118 5.07673 6.89118Z" fill="currentColor"/>
</svg>
