<svg width="1em" height="1em" viewBox="0 0 17 17" fill="none" xmlns="http://www.w3.org/2000/svg">
<path d="M8.61994 6.02984C7.50948 6.02984 6.60992 6.92972 6.60992 8.03985C6.60992 9.15024 7.50981 10.0498 8.61994 10.0498C9.73033 10.0498 10.6299 9.14997 10.6299 8.03985C10.6299 6.92945 9.73006 6.02984 8.61994 6.02984ZM8.61994 4.68984C10.4694 4.68984 11.9699 6.1887 11.9699 8.03985C11.9699 9.88938 10.4711 11.3898 8.61994 11.3898C6.77041 11.3898 5.26992 9.89099 5.26992 8.03985C5.26992 6.19033 6.76878 4.68984 8.61994 4.68984ZM12.9749 4.52177C12.9749 4.98415 12.5992 5.35929 12.1374 5.35929C11.6751 5.35929 11.2999 4.98357 11.2999 4.52177C11.2999 4.05998 11.6756 3.68484 12.1374 3.68484C12.5986 3.68426 12.9749 4.05998 12.9749 4.52177ZM8.61994 2.67984C6.96202 2.67984 6.6918 2.68423 5.92069 2.71857C5.39533 2.74323 5.04316 2.81389 4.71595 2.94092C4.42517 3.0537 4.21542 3.18836 3.99192 3.41185C3.76757 3.6362 3.63315 3.8454 3.52083 4.13631C3.39351 4.46427 3.32287 4.81588 3.29865 5.34052C3.26398 6.08023 3.25992 6.33875 3.25992 8.03985C3.25992 9.69776 3.26431 9.96797 3.29864 10.739C3.32332 11.2642 3.39407 11.6168 3.52079 11.9433C3.63386 12.2344 3.7688 12.4447 3.99121 12.6671C4.21645 12.8921 4.42626 13.0269 4.71442 13.1381C5.04561 13.2662 5.39756 13.3369 5.92059 13.3611C6.66031 13.3958 6.91883 13.3998 8.61994 13.3998C10.2779 13.3998 10.5481 13.3954 11.3191 13.3611C11.8431 13.3365 12.1961 13.2656 12.5234 13.1389C12.8137 13.0262 13.0246 12.8908 13.2472 12.6685C13.4725 12.443 13.6071 12.2336 13.7184 11.9448C13.8461 11.6148 13.917 11.2624 13.9412 10.7392C13.9758 9.99946 13.9799 9.74091 13.9799 8.03985C13.9799 6.38194 13.9755 6.11173 13.9412 5.34066C13.9166 4.81651 13.8456 4.46304 13.7188 4.13587C13.6063 3.8459 13.4712 3.6355 13.2479 3.41185C13.0232 3.18713 12.8145 3.05299 12.5234 2.94076C12.1957 2.81354 11.8436 2.7428 11.3192 2.71858C10.5796 2.6839 10.321 2.67984 8.61994 2.67984ZM8.61994 1.33984C10.4401 1.33984 10.6673 1.34654 11.382 1.38004C12.095 1.41299 12.5813 1.52577 13.0084 1.69159C13.45 1.86189 13.823 2.09192 14.1954 2.46433C14.5673 2.83674 14.7973 3.21082 14.9682 3.65134C15.1334 4.07791 15.2462 4.56478 15.2797 5.27777C15.3116 5.99244 15.3199 6.21968 15.3199 8.03985C15.3199 9.86003 15.3132 10.0872 15.2797 10.8019C15.2468 11.5149 15.1334 12.0012 14.9682 12.4283C14.7979 12.87 14.5673 13.2429 14.1954 13.6154C13.823 13.9872 13.4484 14.2172 13.0084 14.3881C12.5813 14.5534 12.095 14.6661 11.382 14.6996C10.6673 14.7315 10.4401 14.7398 8.61994 14.7398C6.79975 14.7398 6.57251 14.7331 5.85785 14.6996C5.14485 14.6667 4.6591 14.5534 4.23142 14.3881C3.79033 14.2178 3.41681 13.9872 3.0444 13.6154C2.672 13.2429 2.44252 12.8683 2.27167 12.4283C2.10585 12.0012 1.99362 11.5149 1.96012 10.8019C1.9283 10.0872 1.91992 9.86003 1.91992 8.03985C1.91992 6.21968 1.92662 5.99244 1.96012 5.27777C1.99306 4.56422 2.10585 4.07847 2.27167 3.65134C2.44196 3.21026 2.672 2.83674 3.0444 2.46433C3.41681 2.09192 3.7909 1.86244 4.23142 1.69159C4.65855 1.52577 5.1443 1.41354 5.85785 1.38004C6.57251 1.34822 6.79975 1.33984 8.61994 1.33984Z" fill="currentColor"/>
</svg>
