<svg width="1em" height="1em" viewBox="0 0 17 17" fill="none" xmlns="http://www.w3.org/2000/svg">
<path d="M15.2718 6.84572C15.2742 6.82155 15.2742 6.79719 15.2718 6.77302C14.6527 4.07272 12.142 1.89208 9.41008 1.68226C6.54006 1.4622 4.00567 2.89676 2.74814 5.47069C2.28115 6.42316 2.04693 7.43419 2.09377 8.50328C2.07784 9.74218 2.41106 10.8869 3.05383 11.9331C4.06362 13.5799 5.51288 14.6168 7.38711 15.0447C7.58028 15.0896 7.60732 15.0393 7.60684 14.8583C7.60169 12.7546 7.60169 10.6509 7.60684 8.5472C7.60684 8.37056 7.57207 8.31152 7.38469 8.31445C6.75013 8.32372 6.11508 8.31152 5.48052 8.30713C5.48052 7.624 5.49211 6.94087 5.47424 6.25775C5.46845 6.0328 5.53799 6.00304 5.74034 6.00304C6.82595 6.01377 7.91349 6.01914 8.99718 6.00304C9.46175 5.99621 9.79255 6.14942 9.96302 6.60175L9.98331 6.75155C10.0316 6.81596 10.0147 6.89159 10.0147 6.96332C10.0147 9.65874 10.0147 12.354 10.0147 15.0491C10.0459 15.0516 10.0772 15.0516 10.1084 15.0491C11.4123 14.8203 12.4873 14.1493 13.4406 13.2666C14.3122 12.4591 14.8782 11.4446 15.2061 10.3023C15.534 9.16006 15.5717 8.00362 15.2718 6.84572ZM8.64174 5.45215C8.04437 5.48142 7.40498 4.78317 7.40401 4.10004C7.40093 3.92654 7.43207 3.75415 7.49562 3.59294C7.55917 3.43172 7.65385 3.28491 7.77414 3.16105C7.89443 3.03719 8.03792 2.93877 8.19625 2.87153C8.35458 2.80429 8.52457 2.76958 8.69631 2.76941C9.04483 2.77018 9.37884 2.91052 9.62514 3.15966C9.87145 3.4088 10.01 3.74643 10.0104 4.09858C10.0079 4.82562 9.41346 5.41457 8.64174 5.45215Z" fill="currentColor"/>
</svg>
