<svg width="1em" height="1em" viewBox="0 0 17 17" fill="none" xmlns="http://www.w3.org/2000/svg">
<path d="M5.93537 13.8252C5.74311 13.8168 5.25975 13.7321 4.76996 13.6033C4.28397 13.4776 3.95196 13.3099 3.95196 13.3099C3.76929 13.2184 3.70262 13.0739 3.67702 12.9247C3.68483 12.9276 3.61513 12.456 3.61513 11.5437C3.61513 10.8511 3.6527 10.4801 3.66987 10.3629C3.68827 10.2395 3.75045 10.1384 3.91635 10.1461C4.08227 10.1539 4.30782 10.1499 4.83827 10.2426C5.47082 10.3557 5.78076 10.4512 5.93121 10.5011C6.06727 10.5481 6.21053 10.6507 6.2382 10.8429C6.2382 10.8429 6.31147 11.3479 6.31038 12.1137C6.31146 12.7335 6.2651 13.3475 6.24401 13.5461C6.22435 13.73 6.12763 13.8336 5.93537 13.8252V13.8252ZM8.79921 11.6954C8.79907 11.5859 8.75278 11.4838 8.66362 11.403L7.0249 9.88512C6.83687 9.69891 6.61312 9.58283 6.3409 9.52864C6.3409 9.52864 5.72265 9.38453 4.80231 9.23879C3.88196 9.09306 3.64162 9.10951 3.64162 9.10951C2.82566 9.10951 2.79625 9.93137 2.78782 10.0144C2.76767 10.2127 2.71973 10.7384 2.71973 11.4702C2.71973 12.3339 2.75862 12.9323 2.80558 13.2981C2.87696 13.8564 3.33089 14.1181 3.53983 14.2173C3.59279 14.2424 4.15974 14.4691 4.73463 14.6365C5.12209 14.7496 5.74295 14.9149 6.0338 14.9583C6.12937 14.9728 6.6912 15.0639 6.95662 14.7316L8.69799 12.5989C8.77018 12.5001 8.79921 12.4599 8.79921 12.3087V11.6954ZM12.6052 8.5845C12.3582 8.56082 12.1097 8.55575 11.8619 8.56923L7.94541 8.91558C7.94541 8.91558 7.68579 8.95294 7.53789 9.13935C7.42348 9.28354 7.39942 9.40385 7.39942 9.40385C7.45124 9.4525 7.47219 9.47245 7.50073 9.49715L9.04731 10.9873C9.22026 11.1477 9.32062 11.3037 9.32062 11.5373V12.3767C9.32062 12.5259 9.30699 12.6513 9.21918 12.7639L8.38975 13.8283L9.22424 14.1341C9.54095 14.2327 9.83504 14.2298 10.1656 14.1823L13.7581 13.4032C13.7581 13.4032 14.4059 13.2404 14.406 12.6591V10.5912C14.406 10.5513 14.3815 10.517 14.3374 10.5254L12.0435 10.9514C11.9578 10.9678 11.9042 11.0371 11.9042 11.1147V12.1164C11.9042 12.1763 11.9779 12.2245 12.0435 12.2106L12.7623 12.0521C12.7996 12.0424 12.8285 12.0683 12.83 12.1164V12.4396C12.8265 12.5061 12.7712 12.552 12.6934 12.5688L11.8798 12.7337C11.8805 12.7313 11.3338 12.8652 11.3338 12.3134V11.0357C11.3338 10.4782 11.7617 10.4218 11.7617 10.4218L14.2874 9.96179C14.3532 9.95006 14.406 9.89496 14.406 9.83529V9.31486C14.4036 8.74022 13.8163 8.70465 13.8163 8.70465L12.6052 8.5845ZM7.9109 3.16376C8.85028 3.20151 9.56234 4.04422 9.51351 5.06905C9.45932 6.09095 8.64517 6.90605 7.74014 6.87084C6.80097 6.83307 6.12023 5.98211 6.16885 4.95746C6.22305 3.93557 7.00588 3.12855 7.9109 3.16376V3.16376ZM11.6951 5.56085C11.7336 4.86213 12.2614 4.3099 12.8844 4.33228C13.4767 4.35742 13.9497 4.95067 13.9179 5.62667C13.8797 6.3274 13.3437 6.85863 12.7221 6.83992C12.1282 6.8109 11.6637 6.23905 11.6951 5.56085V5.56085ZM14.8444 5.65217C14.8427 4.27299 13.7564 3.16399 12.4194 3.16399C11.6389 3.16399 10.9308 3.55421 10.4726 4.13341C10.1205 2.66123 8.8196 1.57649 7.26207 1.58058C5.40323 1.58549 3.90875 3.10271 3.91495 4.97357C3.92118 6.86342 5.42367 8.3989 7.26207 8.39363C7.36795 8.39247 12.4339 8.07101 12.4194 8.07075C13.8794 7.95167 14.8518 6.99927 14.8444 5.65217V5.65217Z" fill="currentColor"/>
</svg>
