<svg width="1em" height="1em" viewBox="0 0 17 17" fill="none" xmlns="http://www.w3.org/2000/svg">
<path d="M4.91636 3.43045C4.91611 3.97604 4.58511 4.467 4.07944 4.67183C3.57376 4.87666 2.99439 4.75445 2.61452 4.36284C2.23465 3.97121 2.13015 3.38839 2.35028 2.88918C2.57041 2.38998 3.07122 2.07408 3.61656 2.09045C4.34088 2.11219 4.91669 2.70581 4.91636 3.43045ZM4.95656 5.76205H2.27656V14.1504H4.95656V5.76205ZM9.19098 5.76205H6.52436V14.1504H9.16418V9.74853C9.16418 7.29633 12.3601 7.06853 12.3601 9.74853V14.1504H15.0066V8.83733C15.0066 4.70345 10.2764 4.85755 9.16418 6.88763L9.19098 5.76205Z" fill="currentColor"/>
</svg>
