<svg width="1em" height="1em" viewBox="0 0 18 17" fill="none" xmlns="http://www.w3.org/2000/svg">
<path d="M13.9094 1.66016C14.3114 1.66016 14.679 1.79655 14.9814 2.02196C15.1288 2.12628 15.2552 2.25789 15.3595 2.40003C15.5796 2.69961 15.7213 3.06955 15.7213 3.47442V13.2488C15.7213 13.6508 15.5844 14.0178 15.3595 14.3208C15.2544 14.4661 15.1268 14.5937 14.9814 14.6988C14.673 14.9329 14.2966 15.0598 13.9094 15.0602H4.13316C3.73116 15.0602 3.36362 14.9233 3.06116 14.6984C2.91581 14.5933 2.78818 14.4656 2.68309 14.3203C2.44895 14.0123 2.3219 13.6362 2.32129 13.2492V3.47442C2.32129 3.06955 2.45816 2.69961 2.67782 2.39955C2.78292 2.2542 2.91055 2.12657 3.0559 2.02148C3.36639 1.78826 3.74388 1.66153 4.1322 1.66016H13.9094ZM10.9672 6.67367H9.15242V7.44226H9.65396V9.90498H8.84996L8.64992 10.3008L8.58627 10.4261L8.46902 10.6578H11.2859V9.90738H10.4714V7.43173H10.9672V6.67367ZM8.45562 9.85617H7.20415C7.0893 10.0816 6.95769 10.339 6.79976 10.6554C7.21755 10.6554 7.58462 10.6578 7.94929 10.6525C7.99715 10.6496 8.06415 10.6123 8.08616 10.5721C8.20676 10.3548 8.31635 10.1299 8.45562 9.85665V9.85617ZM5.25302 6.36547H4.46816V9.99591H3.94556L4.44375 10.6549H4.92137C4.95439 10.6535 5.25254 10.6281 5.24536 10.1701C5.25015 8.98038 5.25302 7.5552 5.25302 6.36547ZM12.8537 6.36547H12.0688V6.68707H11.5539V7.44513H12.0607V8.12278H11.2964V8.92439H12.0818V10.6444H12.859V8.91338C13.2418 8.91338 13.5936 8.90812 13.942 8.91626C14.1162 8.91865 14.21 9.02872 14.2147 9.20005C14.2171 9.25461 14.2181 9.33644 14.2186 9.42689V9.56711C14.2181 9.78103 14.2152 9.99304 14.2152 9.99304L13.4299 9.99065L13.7328 10.6415H14.4708C14.5569 10.6396 15.0116 10.6037 15.0116 10.0897V8.71765C15.0116 8.25678 14.7297 8.12278 14.0678 8.12566V7.97873C14.0669 7.74088 14.0645 7.36616 14.0626 7.2336C14.0602 6.72679 13.5883 6.68946 13.4978 6.68707H12.8594L12.8542 6.36547H12.8537ZM3.90775 7.46379H3.08222C3.14922 8.50086 2.84915 9.41732 2.84915 9.44938C3.0023 9.71738 3.15209 9.98538 3.31815 10.2744C3.8666 9.50586 3.90632 7.89403 3.90775 7.53558V7.46379ZM6.58775 7.45901H5.81342C5.80816 8.91865 6.01155 9.90211 6.38675 10.2318C6.55042 9.75758 6.77822 9.25365 6.77822 9.25365C6.77822 9.25365 6.52889 8.22759 6.58775 7.45901ZM8.58722 6.36547H7.80189C7.57409 6.8316 7.33289 7.29773 7.11849 7.77199C6.98449 8.07206 7.09456 8.21946 7.41855 8.23286C7.53102 8.23573 7.64348 8.23286 7.79662 8.23286C7.74542 8.35058 7.70809 8.42859 7.67315 8.50899C7.56882 8.73919 7.45636 8.96698 7.36208 9.20005C7.28455 9.38765 7.36208 9.54031 7.56069 9.56185C7.83682 9.59152 8.11583 9.58338 8.39149 9.58338C8.42116 9.58338 8.46662 9.54845 8.48242 9.51878C8.58196 9.33405 8.67576 9.14645 8.78009 8.94018C8.70782 8.93205 8.67002 8.92678 8.62982 8.92678C8.25462 8.91865 8.25462 8.91626 8.42403 8.57838L8.48816 8.44726C8.64896 8.12278 8.80976 7.79879 8.99162 7.4346C8.65183 7.45326 8.36182 7.46906 8.04309 7.4882C8.17996 7.12353 8.39436 6.74833 8.58722 6.36547ZM13.3844 7.44226V8.12278H12.8642L12.8594 7.44226H13.3844ZM14.9709 6.74067C14.789 6.56647 14.5957 6.62246 14.4564 6.711C14.3962 6.74893 14.3467 6.80156 14.3124 6.86394C14.2782 6.92631 14.2604 6.99638 14.2607 7.06753V7.46666H14.679C15.0432 7.46666 15.2418 7.02686 14.99 6.76173C14.9843 6.75407 14.979 6.74593 14.9709 6.74067Z" fill="currentColor"/>
</svg>
