<svg width="1em" height="1em" viewBox="0 0 17 17" fill="none" xmlns="http://www.w3.org/2000/svg">
<path d="M12.4348 5.89062C12.3028 5.89062 12.1935 6.00027 12.1935 6.13202V10.4281C12.1935 10.5599 12.3028 10.6695 12.4348 10.6695C12.5667 10.6695 12.6761 10.5599 12.6761 10.4281V8.81054C12.6882 8.75521 12.7419 8.55495 12.8737 8.36482C13.0134 8.16315 13.234 7.98042 13.5885 7.98042C13.7973 7.98042 13.9417 8.03739 14.0375 8.139C14.1181 8.22611 14.1612 8.34354 14.1829 8.45296C14.2029 8.55431 14.2026 8.63739 14.2025 8.6634L14.2024 8.66769V10.4281C14.2024 10.5599 14.3118 10.6695 14.4437 10.6695C14.5757 10.6695 14.685 10.5599 14.685 10.4281V8.67577C14.685 8.67868 14.6866 8.63823 14.6843 8.58507C14.6819 8.53051 14.6755 8.45614 14.6594 8.37163C14.6275 8.20434 14.5556 7.98717 14.3908 7.80816L14.3892 7.80638C14.1905 7.59803 13.9189 7.48955 13.5885 7.48955C13.182 7.48955 12.8859 7.64277 12.6761 7.84168V6.13202C12.6761 6.00027 12.5667 5.89062 12.4348 5.89062Z" fill="currentColor"/>
<path d="M15.2003 6.06492C15.2966 6.01716 15.389 5.99536 15.4763 5.99536C15.6427 5.99536 15.7767 6.03273 15.8854 6.10889L15.891 6.11283C15.9723 6.17607 16.039 6.24858 16.0761 6.33263C16.0958 6.37274 16.1166 6.42514 16.1273 6.48892L16.1292 6.50009C16.1324 6.51921 16.1363 6.5423 16.1385 6.56267C16.1402 6.57969 16.1427 6.60849 16.1371 6.6401C16.1355 6.75251 16.117 6.86655 16.0663 6.96798L16.0637 6.97328L16.059 6.98137C16.0222 7.04786 15.9739 7.13501 15.9117 7.19724L15.8277 7.28132L15.2331 7.83666C15.2104 7.86538 15.1823 7.88136 15.1637 7.88967C15.1378 7.90117 15.1089 7.9075 15.081 7.9075C15.0303 7.9075 14.9864 7.88467 14.9739 7.87813L14.9715 7.87692L14.9592 7.87074L14.3245 7.37217C14.3007 7.36025 14.2819 7.34545 14.268 7.33357C14.2502 7.31827 14.2312 7.29929 14.2134 7.28146C14.1425 7.21948 14.0851 7.14056 14.0392 7.04873L14.0369 7.04422C13.9895 6.93975 13.9603 6.82365 13.9603 6.69706C13.9603 6.5977 13.9802 6.5088 14.0093 6.43116L14.0118 6.42446L14.015 6.41806C14.0244 6.39928 14.0433 6.36147 14.08 6.30649L14.0824 6.30283C14.1316 6.23385 14.1923 6.17282 14.2728 6.12216C14.3698 6.05791 14.4769 6.02767 14.605 6.02767C14.7538 6.02767 14.9041 6.06961 15.0499 6.14759C15.097 6.11679 15.1464 6.08905 15.2003 6.06492Z" fill="currentColor"/>
<path d="M0.309916 7.40932C0.169917 7.40932 0.0605469 7.51896 0.0605469 7.65879V10.3883C0.0605469 10.5281 0.169917 10.6377 0.309916 10.6377C0.449916 10.6377 0.559285 10.5281 0.559285 10.3883V8.66014C0.559285 8.26869 0.875824 7.95671 1.27004 7.95671C1.66339 7.95671 1.98079 8.27592 1.98079 8.66014V10.3964C1.98079 10.5362 2.09016 10.6458 2.23015 10.6458C2.37015 10.6458 2.47952 10.5362 2.47952 10.3964V8.66014C2.47952 8.26869 2.79606 7.95671 3.19027 7.95671C3.58363 7.95671 3.90102 8.27592 3.90102 8.66014V10.3964C3.90102 10.5362 4.01039 10.6458 4.15039 10.6458C4.29039 10.6458 4.39976 10.5362 4.39976 10.3964V8.66014C4.39976 7.99541 3.85471 7.4497 3.19027 7.4497C2.79874 7.4497 2.45147 7.6367 2.23015 7.92238C2.00883 7.6367 1.66157 7.4497 1.27004 7.4497C1.00099 7.4497 0.758059 7.53604 0.559285 7.68073V7.65879C0.559285 7.51896 0.449916 7.40932 0.309916 7.40932ZM0.333375 8.35947V8.32645L0.354774 8.2999C0.347019 8.31944 0.339878 8.33931 0.333375 8.35947Z" fill="currentColor"/>
<path d="M5.10256 7.68164C5.27377 7.59145 5.52539 7.50643 5.86 7.50643C6.24461 7.50643 6.55475 7.6154 6.76514 7.85967C6.972 8.09984 7.06142 8.44703 7.06142 8.87838V9.64554C7.06142 9.76144 7.06342 9.92096 7.06937 10.0649C7.07235 10.1369 7.07627 10.2038 7.08128 10.2589C7.08658 10.317 7.09233 10.3525 7.09652 10.3672C7.13382 10.4978 7.0574 10.6286 6.93024 10.665L6.91186 10.6703H6.86938C6.7542 10.6703 6.66624 10.5923 6.63422 10.4962L6.63217 10.49L6.63072 10.4837C6.61793 10.4283 6.60766 10.3446 6.60029 10.2515C6.30825 10.5121 5.96275 10.6218 5.66636 10.6218C5.58482 10.6218 5.50152 10.6129 5.4251 10.5939C4.97862 10.4929 4.66665 10.1549 4.66665 9.71014C4.66665 9.45219 4.75072 9.22229 4.93247 9.04037C5.12811 8.84457 5.38904 8.74987 5.59814 8.70289C5.8094 8.65542 5.98383 8.65314 6.02137 8.65314H6.57008C6.54053 8.35578 6.44835 8.20147 6.34681 8.11732C6.22651 8.01763 6.06178 7.98922 5.86807 7.98922C5.63425 7.98922 5.46192 8.04936 5.34972 8.10727C5.29339 8.13634 5.25194 8.165 5.22543 8.18552C5.21219 8.19577 5.20273 8.20395 5.19705 8.20908L5.19273 8.2131C5.10001 8.31693 4.94236 8.31723 4.84838 8.22832C4.73908 8.13311 4.74842 7.98742 4.82225 7.89294L4.82536 7.88876C4.82841 7.88477 4.83162 7.88094 4.83421 7.87797C4.83949 7.8719 4.84564 7.86538 4.85236 7.85865C4.86593 7.84507 4.88407 7.82841 4.90674 7.80985C4.95217 7.77265 5.01726 7.72657 5.10256 7.68164ZM5.72384 9.18466C5.55914 9.2182 5.3834 9.28192 5.2707 9.39472C5.18499 9.48051 5.14118 9.58234 5.14118 9.7263C5.14118 9.91687 5.26918 10.0778 5.51135 10.1247C5.56806 10.1328 5.61399 10.139 5.6583 10.139C5.9458 10.139 6.34814 9.96735 6.57882 9.45534V9.15207H6.0133L6.0119 9.15208L6.00773 9.15213L5.99112 9.15255C5.97656 9.15304 5.95535 9.15404 5.92904 9.15608C5.87623 9.16018 5.80382 9.16837 5.72384 9.18466Z" fill="currentColor"/>
<path d="M8.03127 6.66623C8.1632 6.66623 8.27257 6.77587 8.27257 6.90762V7.57067H8.96718C9.09912 7.57067 9.20848 7.68031 9.20848 7.81207C9.20848 7.94382 9.09912 8.05346 8.96718 8.05346H8.27257V9.78246L8.27255 9.78719C8.27242 9.80906 8.27211 9.86361 8.28554 9.92484C8.3007 9.99395 8.32855 10.0471 8.36817 10.0748C8.40286 10.0993 8.46091 10.1174 8.55514 10.1107C8.64919 10.1041 8.76905 10.0732 8.91381 10.0122C9.04762 9.95511 9.18366 10.0317 9.23445 10.1333L9.23781 10.1406C9.29027 10.2631 9.23801 10.41 9.10913 10.4653C8.88835 10.5588 8.69235 10.6053 8.51536 10.6053C8.34903 10.6053 8.21003 10.5556 8.09271 10.4774L8.09038 10.4758C7.91844 10.3558 7.84567 10.1772 7.81452 10.0397C7.79871 9.96998 7.79266 9.90694 7.79049 9.86033C7.78843 9.81588 7.78997 9.77756 7.78997 9.78246V8.05346H7.35354C7.22161 8.05346 7.11224 7.94382 7.11224 7.81207C7.11224 7.68031 7.22161 7.57067 7.35354 7.57067H7.78997V6.90762C7.78997 6.77587 7.89934 6.66623 8.03127 6.66623Z" fill="currentColor"/>
<path d="M9.25108 9.04739C9.25108 8.17284 9.85273 7.51393 10.7026 7.51393C11.4418 7.51393 11.7473 7.9563 11.7955 8.03972C11.8782 8.17001 11.8016 8.31117 11.7142 8.36947L11.7072 8.37419L11.6996 8.37799C11.5888 8.43341 11.4497 8.39626 11.3798 8.29124L11.3751 8.28418L11.3713 8.27659C11.372 8.27797 11.3717 8.27762 11.3705 8.27579C11.355 8.25284 11.182 7.99672 10.7026 7.99672C10.4111 7.99672 10.1717 8.10397 10.0045 8.2826C9.8366 8.46193 9.73369 8.72184 9.73369 9.03931C9.73369 9.37622 9.83244 9.63459 9.99596 9.80768C10.1587 9.97989 10.3988 10.0819 10.7107 10.0819C10.9484 10.0819 11.1327 10.0005 11.2584 9.91837C11.3213 9.87728 11.369 9.83635 11.4004 9.80628C11.4161 9.79129 11.4276 9.77911 11.4349 9.77114L11.4425 9.76255L11.4435 9.76131L11.4481 9.75565L11.4533 9.75044C11.5376 9.66605 11.6739 9.64725 11.7788 9.71723L11.79 9.72473L11.7996 9.73429C11.8866 9.82135 11.8945 9.94826 11.8527 10.0459L11.8423 10.07L11.8238 10.0886C11.8256 10.0868 11.7209 10.2171 11.5371 10.3383C11.3512 10.4608 11.0775 10.5808 10.7188 10.5808C10.2833 10.5808 9.91296 10.4319 9.65184 10.158C9.39133 9.88481 9.25108 9.49954 9.25108 9.04739Z" fill="currentColor"/>
</svg>
