<svg width="1em" height="1em" viewBox="0 0 17 17" fill="none" xmlns="http://www.w3.org/2000/svg">
<path d="M15.0563 6.68638C14.2122 3.08777 10.7563 0.899568 7.14301 1.64553C4.38662 2.2145 2.1033 4.5797 1.8662 7.70259C1.76914 8.98625 2.03524 10.1996 2.66674 11.3258C2.73201 11.4425 2.74205 11.548 2.70634 11.6753C2.56018 12.1996 2.45029 12.6189 1.84668 14.8914C2.20762 14.8099 3.47731 14.4565 5.03932 14.0483C5.12523 14.026 5.24126 14.0316 5.31825 14.0723C6.78766 14.8557 8.33572 15.0936 9.96523 14.7407C13.5807 13.9584 15.9176 10.3581 15.0563 6.68638V6.68638ZM9.73595 5.21232C10.2118 5.21008 10.5733 5.56799 10.5739 6.04148C10.5744 6.5144 10.2124 6.87845 9.74153 6.87845C9.27293 6.8779 8.91032 6.51161 8.91143 6.03868C8.91255 5.57357 9.27125 5.21455 9.73595 5.21232ZM6.34639 5.82428C6.79658 5.83098 7.17593 6.21178 7.18206 6.66237C7.1882 7.11241 6.79491 7.5094 6.34081 7.51163C5.88838 7.51331 5.49621 7.11966 5.49844 6.66516C5.50011 6.20954 5.89564 5.81758 6.34639 5.82428V5.82428ZM12.923 8.5954C10.8009 11.5647 7.41358 11.9841 4.60865 10.132C4.34813 9.96003 4.28676 9.64735 4.45189 9.39999C4.61479 9.15655 4.93165 9.09513 5.18938 9.2604C7.76503 10.9126 10.4974 10.2828 12.0812 8.00243C12.2737 7.72548 12.5671 7.65848 12.8198 7.83101C13.0759 8.00689 13.1205 8.32013 12.923 8.5954V8.5954Z" fill="currentColor"/>
</svg>
