<svg width="1em" height="1em" viewBox="0 0 17 17" fill="none" xmlns="http://www.w3.org/2000/svg">
<path d="M8.70099 1.42041C12.4754 1.42041 15.401 4.18516 15.401 7.91941C15.401 11.6537 12.4754 14.4184 8.70099 14.4184C8.04593 14.42 7.39362 14.3333 6.76166 14.1608C6.6428 14.1282 6.51632 14.1375 6.40355 14.1873L5.07393 14.7742C4.91079 14.8463 4.72247 14.8325 4.57157 14.7374C4.42065 14.6423 4.32692 14.4784 4.32152 14.3002L4.28501 13.1082C4.28004 12.9616 4.21498 12.8235 4.10511 12.7263C2.80163 11.5605 2.00098 9.8728 2.00098 7.91941C2.00098 4.18516 4.92653 1.42041 8.70099 1.42041ZM4.67763 9.81987C4.48869 10.1197 4.85719 10.4574 5.13926 10.2433L7.25344 8.63866C7.3967 8.53058 7.59422 8.53058 7.73753 8.63866L9.30298 9.81116C9.5275 9.97959 9.81225 10.0465 10.0883 9.99554C10.3643 9.94462 10.6065 9.7806 10.7562 9.54316L12.7243 6.42096C12.9133 6.12113 12.5448 5.78345 12.2627 5.99752L10.1485 7.60217C10.0052 7.71024 9.8077 7.71024 9.66445 7.60217L8.099 6.42966C7.87441 6.26123 7.58966 6.19437 7.31365 6.24528C7.03761 6.29619 6.79544 6.46022 6.64575 6.69767L4.67763 9.81987Z" fill="currentColor"/>
</svg>
