<svg width="1em" height="1em" viewBox="0 0 17 17" fill="none" xmlns="http://www.w3.org/2000/svg">
<path d="M8.94155 8.44241C8.00435 8.44241 7.20423 8.1109 6.54121 7.44788C5.87819 6.78486 5.54668 5.98724 5.54668 5.05502C5.54668 4.11782 5.87819 3.31771 6.54121 2.65469C7.20423 1.99167 8.00435 1.66016 8.94155 1.66016C9.87875 1.66016 10.6789 1.99167 11.3419 2.65469C12.0049 3.31771 12.3364 4.11782 12.3364 5.05502C12.3364 5.98724 12.0049 6.78486 11.3419 7.44788C10.6789 8.1109 9.87875 8.44241 8.94155 8.44241ZM8.94155 3.38002C8.48292 3.38002 8.09034 3.54328 7.76381 3.86981C7.43729 4.19634 7.27403 4.59141 7.27403 5.05502C7.27403 5.51365 7.43729 5.90623 7.76381 6.23276C8.09034 6.55928 8.48292 6.72254 8.94155 6.72254C9.40018 6.72254 9.79276 6.55928 10.1193 6.23276C10.4458 5.90623 10.6091 5.51365 10.6091 5.05502C10.6091 4.59141 10.4458 4.19634 10.1193 3.86981C9.79276 3.54328 9.40018 3.38002 8.94155 3.38002ZM12.8524 8.85368C12.9172 8.98828 12.9546 9.11166 12.9645 9.22383C12.9745 9.33599 12.9633 9.43694 12.9309 9.52667C12.8985 9.61641 12.8324 9.71237 12.7327 9.81456C12.633 9.91676 12.5271 10.009 12.4149 10.0912C12.3028 10.1735 12.1495 10.2769 11.9551 10.4016C11.3818 10.7655 10.5966 10.9998 9.59958 11.1045L10.1455 11.6429L12.142 13.6394C12.2915 13.7939 12.3663 13.9784 12.3663 14.1927C12.3663 14.4071 12.2915 14.5891 12.142 14.7386L12.0523 14.8358C11.8977 14.9854 11.7133 15.0602 11.4989 15.0602C11.2846 15.0602 11.1001 14.9854 10.9456 14.8358C10.6116 14.4968 9.94605 13.8288 8.94903 12.8318L6.95249 14.8358C6.79795 14.9854 6.6135 15.0602 6.39914 15.0602C6.18478 15.0602 6.00282 14.9854 5.85327 14.8358L5.76354 14.7386C5.609 14.5891 5.53173 14.4071 5.53173 14.1927C5.53173 13.9784 5.609 13.7939 5.76354 13.6394L7.76008 11.6429L8.29847 11.1045C7.28649 10.9998 6.49635 10.7655 5.92804 10.4016C5.73362 10.2769 5.58033 10.1735 5.46817 10.0912C5.356 10.009 5.25007 9.91676 5.15037 9.81456C5.05066 9.71237 4.98461 9.61641 4.95221 9.52667C4.9198 9.43694 4.90859 9.33599 4.91856 9.22383C4.92853 9.11166 4.96592 8.98828 5.03072 8.85368C5.08057 8.75398 5.15037 8.66674 5.2401 8.59196C5.32983 8.51719 5.43452 8.46235 5.55416 8.42746C5.6738 8.39256 5.81339 8.39754 5.97291 8.44241C6.13243 8.48728 6.29445 8.57452 6.45896 8.70413C6.48388 8.72407 6.52127 8.75149 6.57112 8.78638C6.62098 8.82128 6.72816 8.88235 6.89267 8.96959C7.05717 9.05683 7.22916 9.13285 7.40862 9.19766C7.58809 9.26246 7.8174 9.32228 8.09657 9.37712C8.37574 9.43196 8.6574 9.45937 8.94155 9.45937C9.39519 9.45937 9.8289 9.39581 10.2427 9.26869C10.6564 9.14157 10.9555 9.0157 11.14 8.89107L11.4241 8.70413C11.5886 8.57452 11.7507 8.48728 11.9102 8.44241C12.0697 8.39754 12.2093 8.39256 12.3289 8.42746C12.4486 8.46235 12.5533 8.51719 12.643 8.59196C12.7327 8.66674 12.8025 8.75398 12.8524 8.85368Z" fill="currentColor"/>
</svg>
