<svg width="1em" height="1em" viewBox="0 0 17 17" fill="none" xmlns="http://www.w3.org/2000/svg">
<path d="M9.11275 12.1894C8.64663 11.2756 8.09983 10.3526 7.03319 10.3526C6.82929 10.3526 6.62564 10.3862 6.43875 10.4712L6.0764 9.74887C6.51798 9.37148 7.2315 9.07228 8.14868 9.07228C9.57547 9.07228 10.3077 9.75685 10.889 10.6307C11.2341 9.88467 11.3982 8.87717 11.3982 7.62834C11.3982 4.50976 10.419 2.90847 8.13191 2.90847C5.8781 2.90847 4.9043 4.50976 4.9043 7.62834C4.9043 10.7305 5.8781 12.3153 8.13191 12.3153C8.49013 12.3153 8.81456 12.2761 9.11275 12.1894ZM9.67147 13.2778C9.16938 13.4123 8.65184 13.4811 8.13191 13.4825C5.13079 13.4825 2.19238 11.0972 2.19238 7.62834C2.19238 4.12656 5.13079 1.74072 8.13191 1.74072C11.1833 1.74072 14.0935 4.10937 14.0935 7.62834C14.0935 9.58571 13.1766 11.1764 11.8439 12.2044C12.2745 12.8471 12.7178 13.2739 13.3351 13.2739C14.0087 13.2739 14.2804 12.7554 14.3259 12.3487H15.2032C15.2545 12.8902 14.9825 15.1407 12.5307 15.1407C11.0455 15.1407 10.2603 14.2833 9.67147 13.2778Z" fill="currentColor"/>
</svg>
