<svg width="1em" height="1em" viewBox="0 0 17 17" fill="none" xmlns="http://www.w3.org/2000/svg">
<path d="M8.09943 14.7398C4.39911 14.7398 1.39941 11.7401 1.39941 8.03985C1.39941 4.33953 4.39911 1.33984 8.09943 1.33984C11.7997 1.33984 14.7994 4.33953 14.7994 8.03985C14.7994 11.7401 11.7997 14.7398 8.09943 14.7398ZM12.5683 8.03985C12.5543 7.6546 12.3152 7.31356 11.9578 7.16884C11.6005 7.02419 11.1915 7.10292 10.9134 7.36984C10.1512 6.85173 9.25531 6.56551 8.33393 6.54575L8.76943 4.45534L10.2032 4.75684C10.2384 5.08415 10.5062 5.33738 10.835 5.3543C11.1637 5.37121 11.4561 5.14679 11.5247 4.82483C11.5933 4.50287 11.4178 4.17876 11.1107 4.06017C10.8037 3.94158 10.4559 4.06364 10.2903 4.34814L8.64883 4.01984C8.59456 4.00795 8.53788 4.01826 8.49124 4.04847C8.44468 4.07868 8.41218 4.12628 8.40093 4.18064L7.90513 6.50554C6.97242 6.51961 6.06414 6.80604 5.29211 7.32964C5.00987 7.06406 4.59746 6.99016 4.24056 7.14124C3.88367 7.29226 3.64958 7.63972 3.64371 8.02725C3.63783 8.41471 3.86126 8.76914 4.21341 8.93095C4.20587 9.0291 4.20587 9.12759 4.21341 9.22575C4.21341 10.7265 5.96211 11.9459 8.11953 11.9459C10.2769 11.9459 12.0256 10.7265 12.0256 9.22575C12.0331 9.12759 12.0331 9.0291 12.0256 8.93095C12.363 8.76324 12.5742 8.41659 12.5683 8.03985ZM5.86831 8.70985C5.86831 8.3398 6.16828 8.03985 6.53831 8.03985C6.90837 8.03985 7.20833 8.3398 7.20833 8.70985C7.20833 9.07989 6.90837 9.37985 6.53831 9.37985C6.36062 9.37985 6.1902 9.30923 6.06455 9.1836C5.9389 9.05798 5.86831 8.88753 5.86831 8.70985ZM9.76103 10.5523C9.28566 10.9106 8.70082 11.0929 8.10613 11.0682C7.51144 11.0929 6.92659 10.9106 6.45121 10.5523C6.39219 10.4805 6.39734 10.3755 6.46313 10.3097C6.52892 10.2439 6.63389 10.2387 6.70581 10.2977C7.10863 10.5932 7.60035 10.7422 8.09943 10.7198C8.59911 10.747 9.0931 10.6029 9.49973 10.3111C9.54757 10.2644 9.61671 10.2469 9.6811 10.265C9.74542 10.2831 9.79526 10.3342 9.81175 10.399C9.82823 10.4638 9.80887 10.5324 9.76103 10.5791V10.5523ZM9.64043 9.40665C9.27039 9.40665 8.97043 9.10669 8.97043 8.73665C8.97043 8.3666 9.27039 8.06665 9.64043 8.06665C10.0105 8.06665 10.3104 8.3666 10.3104 8.73665C10.3178 8.92009 10.2495 9.09858 10.1216 9.23023C9.99365 9.36196 9.81731 9.43546 9.63373 9.43345L9.64043 9.40665Z" fill="currentColor"/>
</svg>
