<svg width="1em" height="1em" viewBox="0 0 17 17" fill="none" xmlns="http://www.w3.org/2000/svg">
<path d="M9.6596 13.8277C9.37351 13.8719 9.08039 13.8949 8.78197 13.8949C5.63669 13.8949 3.08695 11.3452 3.08695 8.19992C3.08695 7.90144 3.10991 7.60838 3.15416 7.32229C2.8973 6.83385 2.75195 6.2776 2.75195 5.68742C2.75195 3.74476 4.32679 2.16992 6.26945 2.16992C6.85964 2.16992 7.41587 2.31527 7.90433 2.57213C8.19036 2.52788 8.48348 2.50492 8.78197 2.50492C11.9272 2.50492 14.477 5.05466 14.477 8.19992C14.477 8.49841 14.454 8.79147 14.4098 9.07756C14.6666 9.56599 14.812 10.1222 14.812 10.7124C14.812 12.6551 13.2371 14.2299 11.2945 14.2299C10.7043 14.2299 10.148 14.0846 9.6596 13.8277ZM8.81694 11.6541L8.78974 11.6546C10.7145 11.6546 11.6729 10.726 11.6729 9.48177C11.6729 8.67884 11.3035 7.82606 9.84686 7.49991L8.51819 7.20497C8.01227 7.08993 7.43134 6.93664 7.43134 6.45775C7.43134 5.97887 7.84604 5.64521 8.58619 5.64521C10.0807 5.64521 9.94408 6.6688 10.6843 6.6688C11.0697 6.6688 11.4164 6.43966 11.4164 6.0457C11.4164 5.12814 9.94408 4.43821 8.69909 4.43821C7.34468 4.43821 5.90312 5.01307 5.90312 6.54418C5.90312 7.28035 6.16664 8.06525 7.61777 8.42906L9.41961 8.87883C9.96626 9.01397 10.1018 9.32003 10.1018 9.59687C10.1018 10.0572 9.64379 10.5069 8.81694 10.5069C7.19755 10.5069 7.42429 9.26221 6.55613 9.26221C6.16714 9.26221 5.88448 9.529 5.88448 9.91345C5.88448 10.6596 6.78992 11.6541 8.81694 11.6541Z" fill="currentColor"/>
</svg>
