<svg width="1em" height="1em" viewBox="0 0 17 17" fill="none" xmlns="http://www.w3.org/2000/svg">
<path d="M5.03431 9.88426C5.03431 10.6099 4.44152 11.2027 3.71588 11.2027C2.99024 11.2027 2.39746 10.6099 2.39746 9.88426C2.39746 9.15858 2.99024 8.56583 3.71588 8.56583H5.03431V9.88426ZM5.69863 9.88426C5.69863 9.15858 6.29141 8.56583 7.01705 8.56583C7.74272 8.56583 8.33547 9.15858 8.33547 9.88426V13.1854C8.33547 13.9111 7.74272 14.5038 7.01705 14.5038C6.29141 14.5038 5.69863 13.9111 5.69863 13.1854V9.88426ZM7.01705 4.53334C6.29141 4.53334 5.69863 3.94055 5.69863 3.21491C5.69863 2.48927 6.29141 1.89648 7.01705 1.89648C7.74272 1.89648 8.33547 2.48927 8.33547 3.21491V4.53334H7.01705ZM7.01705 5.19766C7.74272 5.19766 8.33547 5.79044 8.33547 6.51608C8.33547 7.24171 7.74272 7.83453 7.01705 7.83453H3.71588C2.99024 7.83453 2.39746 7.24171 2.39746 6.51608C2.39746 5.79044 2.99024 5.19766 3.71588 5.19766H7.01705ZM12.368 6.51608C12.368 5.79044 12.9607 5.19766 13.6864 5.19766C14.412 5.19766 15.0048 5.79044 15.0048 6.51608C15.0048 7.24171 14.412 7.83453 13.6864 7.83453H12.368V6.51608ZM11.7036 6.51608C11.7036 7.24171 11.1109 7.83453 10.3852 7.83453C9.65959 7.83453 9.06677 7.24171 9.06677 6.51608V3.21491C9.06677 2.48927 9.65959 1.89648 10.3852 1.89648C11.1109 1.89648 11.7036 2.48927 11.7036 3.21491V6.51608ZM10.3852 11.867C11.1109 11.867 11.7036 12.4598 11.7036 13.1854C11.7036 13.9111 11.1109 14.5038 10.3852 14.5038C9.65959 14.5038 9.06677 13.9111 9.06677 13.1854V11.867H10.3852ZM10.3852 11.2027C9.65959 11.2027 9.06677 10.6099 9.06677 9.88426C9.06677 9.15858 9.65959 8.56583 10.3852 8.56583H13.6864C14.412 8.56583 15.0048 9.15858 15.0048 9.88426C15.0048 10.6099 14.412 11.2027 13.6864 11.2027H10.3852Z" fill="currentColor"/>
</svg>
