<svg width="1em" height="1em" viewBox="0 0 17 17" fill="none" xmlns="http://www.w3.org/2000/svg">
<path d="M7.83217 5.72297C8.00979 5.72297 8.15377 7.13401 8.15377 8.87467L8.1529 9.10984C8.14064 10.7406 8.00168 12.0264 7.83217 12.0264C7.66058 12.0264 7.52043 10.7099 7.51107 9.05149L7.51062 8.81545C7.51385 7.10212 7.65656 5.72297 7.83217 5.72297ZM6.71729 6.36617C6.89057 6.36617 7.03185 7.57219 7.03863 9.08244V9.31004C7.03185 10.8203 6.89057 12.0264 6.71729 12.0264C6.54617 12.0264 6.40627 10.8503 6.39627 9.36659L6.39576 9.13919L6.3973 8.91106C6.41355 7.48195 6.55061 6.36617 6.71729 6.36617ZM5.60241 6.36617C5.77353 6.36617 5.91343 7.54225 5.92344 9.02596L5.92394 9.25329L5.92239 9.48143C5.90615 10.9105 5.76909 12.0264 5.60241 12.0264C5.42913 12.0264 5.28785 10.8203 5.28106 9.31004V9.08244C5.28785 7.57219 5.42913 6.36617 5.60241 6.36617ZM4.48753 6.75211C4.66515 6.75211 4.80913 7.93279 4.80913 9.38923L4.80798 9.61382C4.79408 10.9651 4.65592 12.0264 4.48753 12.0264C4.31222 12.0264 4.16967 10.8761 4.166 9.44578V9.33262C4.16967 7.9023 4.31222 6.75211 4.48753 6.75211ZM3.37265 7.90987C3.55027 7.90987 3.69425 8.83133 3.69425 9.96811L3.69383 10.074C3.68522 11.1615 3.54471 12.0264 3.37265 12.0264C3.19503 12.0264 3.05105 11.1048 3.05105 9.96811L3.05146 9.86219C3.06008 8.77464 3.20059 7.90987 3.37265 7.90987ZM10.5979 4.69385C12.327 4.69385 13.7609 5.95728 14.027 7.61132C14.2248 7.55437 14.4339 7.52395 14.6501 7.52395C15.8934 7.52395 16.9013 8.53184 16.9013 9.77515C16.9013 11.0043 15.9162 12.0034 14.6924 12.026L14.6501 12.0264H9.18289C8.89867 12.0264 8.66833 11.7959 8.66833 11.5118V5.27869C9.22028 4.90928 9.88391 4.69385 10.5979 4.69385ZM2.25777 7.78123C2.43539 7.78123 2.57937 8.67394 2.57937 9.77515L2.57894 9.87934C2.57019 10.9321 2.42974 11.7691 2.25777 11.7691C2.08297 11.7691 1.94075 10.9044 1.93628 9.82741L1.93617 9.77515C1.93617 8.67394 2.08015 7.78123 2.25777 7.78123ZM1.14289 8.42443C1.3205 8.42443 1.46449 9.05792 1.46449 9.83947L1.46388 9.92724C1.45357 10.6679 1.3138 11.2545 1.14289 11.2545C0.965274 11.2545 0.821289 10.621 0.821289 9.83947L0.821898 9.75164C0.832204 9.01102 0.971977 8.42443 1.14289 8.42443Z" fill="currentColor"/>
</svg>
