<svg width="1em" height="1em" viewBox="0 0 18 17" fill="none" xmlns="http://www.w3.org/2000/svg">
<path d="M7.47414 4.59435H8.80534C9.14884 4.59435 9.42646 4.87253 9.42646 5.21603V6.10688C9.83377 6.09919 10.2287 5.96533 10.5567 5.72375C10.8847 5.48217 11.1297 5.14478 11.2579 4.7581C11.3861 4.37141 11.3912 3.95447 11.2725 3.56478C11.1537 3.17508 10.917 2.83182 10.595 2.58232C10.2729 2.33282 9.88142 2.18938 9.47442 2.17176C9.06742 2.15415 8.66497 2.26324 8.32258 2.48398C7.98018 2.70472 7.7147 3.02625 7.56274 3.40423C7.41078 3.78221 7.37982 4.19803 7.47414 4.59435ZM13.6954 6.108H13.6966C13.8743 6.10815 14.0504 6.07328 14.2147 6.00539C14.379 5.93749 14.5283 5.8379 14.6541 5.7123C14.7799 5.5867 14.8798 5.43755 14.9479 5.27336C15.0161 5.10918 15.0513 4.93317 15.0514 4.7554C15.0516 4.57762 15.0167 4.40156 14.9488 4.23726C14.8809 4.07296 14.7813 3.92365 14.6557 3.79784C14.5301 3.67203 14.381 3.57219 14.2168 3.50402C14.0526 3.43585 13.8766 3.40069 13.6988 3.40054C13.3398 3.40009 12.9953 3.54229 12.7411 3.79585C12.4869 4.0494 12.3438 4.39355 12.3434 4.75258C12.3429 5.11161 12.4851 5.45612 12.7387 5.71031C12.9923 5.9645 13.3364 6.10755 13.6954 6.108ZM9.14321 11.1946V5.45254C9.14321 5.1355 8.88643 4.87816 8.5694 4.87759H2.82618C2.67409 4.87804 2.52837 4.93874 2.42093 5.04639C2.31349 5.15404 2.25308 5.29988 2.25293 5.45197V11.1952C2.25308 11.3473 2.31358 11.4932 2.42116 11.6008C2.52874 11.7083 2.6746 11.7689 2.82674 11.769H8.57052C8.72266 11.7687 8.86847 11.7081 8.97594 11.6004C9.08341 11.4927 9.14377 11.3468 9.14377 11.1946H9.14321ZM7.17681 6.97689H6.05283V10.1827H5.33768V6.97633H4.21933V6.35408H7.17681V6.97689ZM15.222 6.84681H9.42702V11.4306C9.42702 11.7741 9.14828 12.0522 8.80534 12.0522H6.43012C6.76685 12.9022 7.42744 13.5837 8.26656 13.9466C9.10568 14.3096 10.0546 14.3243 10.9046 13.9877C11.7093 13.6688 12.3647 13.0589 12.7404 12.2792C13.0339 12.4295 13.359 12.5077 13.6887 12.5072H13.7039C13.9776 12.5072 14.2486 12.4533 14.5014 12.3486C14.7543 12.2439 14.984 12.0904 15.1776 11.8968C15.3711 11.7033 15.5246 11.4736 15.6293 11.2207C15.7341 10.9678 15.788 10.6968 15.788 10.4232V7.41274C15.788 7.10021 15.5346 6.84681 15.2215 6.84681H15.222Z" fill="currentColor"/>
</svg>
