<svg width="1em" height="1em" viewBox="0 0 17 17" fill="none" xmlns="http://www.w3.org/2000/svg">
<path d="M3.13278 7.36592C6.64852 5.83419 8.99292 4.82437 10.1659 4.33647C13.5151 2.94342 14.211 2.70144 14.6646 2.69344C14.7644 2.69169 14.9875 2.71641 15.1319 2.83366C15.2539 2.93266 15.2875 3.0664 15.3036 3.16026C15.3197 3.25413 15.3396 3.46795 15.3237 3.63502C15.1422 5.542 14.3569 10.1697 13.9574 12.3056C13.7884 13.2093 13.4555 13.5123 13.1332 13.542C12.4329 13.6064 11.9011 13.0791 11.2227 12.6345C10.1613 11.9387 9.56168 11.5056 8.53135 10.8266C7.34066 10.042 8.11254 9.61069 8.79111 8.90591C8.96873 8.72146 12.0545 5.91474 12.1142 5.66013C12.1216 5.62829 12.1286 5.50959 12.058 5.44691C11.9875 5.38423 11.8835 5.40566 11.8084 5.42272C11.7019 5.44688 10.0062 6.56761 6.72138 8.78504C6.24007 9.11549 5.80412 9.27656 5.41353 9.26811C4.98292 9.2588 4.15461 9.02464 3.53885 8.82451C2.78359 8.57895 2.18332 8.44917 2.23559 8.03223C2.26282 7.81509 2.56188 7.59298 3.13278 7.36592Z" fill="currentColor"/>
</svg>
