<svg width="1em" height="1em" viewBox="0 0 17 17" fill="none" xmlns="http://www.w3.org/2000/svg">
<path d="M11.46 5.52424V10.3848C11.46 12.7901 9.51023 14.7398 7.105 14.7398C4.6998 14.7398 2.75 12.7901 2.75 10.3848C2.75 7.97961 4.6998 6.02984 7.105 6.02984C7.45092 6.02984 7.7874 6.07017 8.11 6.14638V8.2655C7.80542 8.12078 7.46466 8.03984 7.105 8.03984C5.80989 8.03984 4.76 9.08973 4.76 10.3848C4.76 11.68 5.80989 12.7298 7.105 12.7298C8.40011 12.7298 9.45 11.68 9.45 10.3848V1.33984H11.46C11.46 3.19 12.9599 4.68984 14.81 4.68984V6.69984C13.5424 6.69984 12.3776 6.25984 11.46 5.52424Z" fill="currentColor"/>
</svg>
