<svg width="1em" height="1em" viewBox="0 0 17 17" fill="none" xmlns="http://www.w3.org/2000/svg">
<path d="M6.64525 7.14443C9.20114 6.26268 9.63618 3.96578 9.3099 1.85393C9.3099 1.77773 9.37516 1.7233 9.44041 1.74507C11.8875 2.94251 14.6392 5.5551 14.6392 9.47399C14.6392 12.4785 12.3117 15.1346 8.92923 15.1346C7.72227 15.1895 6.53139 14.8406 5.54457 14.1429C4.55775 13.4451 3.83118 12.4384 3.47955 11.2814C3.12791 10.1245 3.17123 8.88328 3.60267 7.75372C4.03411 6.62416 4.8291 5.67058 5.86216 5.04347C5.92742 4.99993 6.01443 5.04347 6.01443 5.11967C6.04706 5.52245 6.15582 6.53483 6.60174 7.14443H6.64525V7.14443Z" fill="currentColor"/>
</svg>
