<svg width="1em" height="1em" viewBox="0 0 17 17" fill="none" xmlns="http://www.w3.org/2000/svg">
<path d="M1.94239 5.73144C1.75351 5.45437 1.77355 5.45437 2.16175 5.1134C2.98722 4.38835 3.76611 3.59551 4.66515 2.96145C5.47934 2.39064 6.55851 2.02237 7.29584 2.93022C7.97551 3.76683 7.99153 5.03494 8.16365 6.04527C8.33577 7.0932 8.50073 8.1652 8.86816 9.16833C8.96986 9.45013 9.16436 9.98331 9.51665 10.0281C9.97057 10.0906 10.4333 9.29402 10.6439 8.9962C11.1914 8.206 11.9336 7.14124 11.8399 6.12452C11.7478 5.04455 10.5814 5.24789 9.85285 5.50568C9.96977 4.29361 11.0978 2.93103 12.1842 2.46989C13.3362 1.99195 15.0494 1.99996 15.6283 3.29929C16.2463 4.70751 15.6907 6.34308 15.0174 7.61922C14.2825 9.00498 13.3362 10.2875 12.3251 11.4852C11.4332 12.5491 10.3781 13.7164 9.04832 14.2247C7.52961 14.8036 6.62977 13.6755 6.11259 12.369C5.54818 10.9464 5.26719 9.35003 4.85969 7.86899C4.68837 7.24295 4.48502 6.53042 4.07833 6.01405C3.54754 5.34716 2.94471 5.97401 2.42034 6.33348C2.24021 6.15495 2.0913 5.92678 1.94239 5.73144Z" fill="currentColor"/>
</svg>
