<svg width="1em" height="1em" viewBox="0 0 17 17" fill="none" xmlns="http://www.w3.org/2000/svg">
<path d="M9.09544 13.0476L10.0685 13.0479L10.3888 14.1444L12.1339 13.0479H14.1913V4.00138H9.09544V13.0476ZM10.131 4.98348H13.1558V12.0658H11.9954L10.8366 12.7941L10.6256 12.0675L10.1311 12.0659L10.131 4.98348ZM8.23516 8.14072H6.06177C6.13422 7.01396 6.15309 5.99553 6.15309 5.08595H8.27824C8.27824 5.08595 8.35998 4.14777 7.92194 4.15841H4.24584C4.39073 3.6128 4.57284 3.04962 4.79085 2.46729C4.79085 2.46729 3.79083 2.46728 3.45027 3.36421C3.30936 3.73417 2.90154 5.15808 2.17522 6.6126C2.41981 6.58598 3.22894 6.56336 3.70549 5.68905C3.79322 5.4442 3.80984 5.41226 3.91884 5.08489H5.11785C5.11785 5.52138 5.06813 7.86616 5.04793 8.13898H2.87708C2.38924 8.13898 2.23065 9.12107 2.23065 9.12107H4.95475C4.77197 11.1945 3.79096 12.9418 2.01172 14.3231C2.86286 14.5664 3.71107 14.2846 4.13019 13.9114C4.13019 13.9114 5.08488 13.0424 5.60835 11.0316L7.84991 13.7323C7.84991 13.7323 8.17868 12.6142 7.79832 12.0694C7.48329 11.6984 6.63283 10.6947 6.2702 10.3309L5.66272 10.8136C5.8439 10.2323 5.9529 9.66772 5.98972 9.12214H8.55046C8.55046 9.12214 8.54685 8.14072 8.23516 8.14072Z" fill="currentColor"/>
</svg>
