<svg width="1em" height="1em" viewBox="0 0 17 17" fill="none" xmlns="http://www.w3.org/2000/svg"><path d="M8.70099 2.06592C4.99923 2.06592 2.00098 5.06417 2.00098 8.76592C2.00098 11.7307 3.91885 14.2348 6.5821 15.1225C6.9171 15.1812 7.04273 14.9802 7.04273 14.8043C7.04273 14.6452 7.03435 14.1175 7.03435 13.5564C5.35098 13.8663 4.91548 13.146 4.78148 12.7692C4.7061 12.5765 4.37948 11.9819 4.09473 11.8228C3.86023 11.6972 3.52523 11.3873 4.08635 11.3789C4.61398 11.3705 4.99085 11.8647 5.11648 12.0657C5.71948 13.079 6.6826 12.7943 7.06785 12.6184C7.12648 12.1829 7.30235 11.8898 7.49499 11.7223C6.00423 11.5548 4.44648 10.9769 4.44648 8.41417C4.44648 7.68554 4.7061 7.08254 5.13323 6.61354C5.06623 6.44604 4.83173 5.75929 5.20023 4.83804C5.20023 4.83804 5.76135 4.66217 7.04273 5.52479C7.57874 5.37404 8.14824 5.29867 8.71774 5.29867C9.28724 5.29867 9.85674 5.37404 10.3927 5.52479C11.6741 4.65379 12.2352 4.83804 12.2352 4.83804C12.6037 5.75929 12.3692 6.44604 12.3022 6.61354C12.7294 7.08254 12.989 7.67717 12.989 8.41417C12.989 10.9853 11.4229 11.5548 9.93212 11.7223C10.175 11.9317 10.3844 12.3337 10.3844 12.9618C10.3844 13.8579 10.376 14.5782 10.376 14.8043C10.376 14.9802 10.5016 15.1895 10.8366 15.1225C13.5639 14.2018 15.4003 11.6444 15.401 8.76592C15.401 5.06417 12.4027 2.06592 8.70099 2.06592Z" fill="currentColor"/></svg>