<svg width="1em" height="1em" viewBox="0 0 17 17" fill="none" xmlns="http://www.w3.org/2000/svg">
<path d="M6.55037 2.69095C5.67518 2.56216 4.88598 2.60548 3.99459 3.07746C2.96135 3.62454 2.44686 4.3083 2.08434 5.38546C1.51298 7.08317 2.839 8.52685 2.839 8.52685C2.839 8.52685 4.09956 9.74452 4.90914 10.5184C5.83777 11.406 7.19203 12.6679 8.03524 13.4536C8.21267 13.6189 8.36747 13.7632 8.49092 13.8784C8.56559 13.9481 8.7182 13.9438 8.7182 13.9438V3.89487C8.7182 3.89487 7.8308 2.87936 6.55037 2.69095Z" fill="currentColor"/>
<path d="M10.8862 2.69095C11.7614 2.56216 12.5506 2.60548 13.442 3.07746C14.4752 3.62454 14.9897 4.3083 15.3522 5.38546C15.9236 7.08317 14.5976 8.52685 14.5976 8.52685C14.5976 8.52685 13.337 9.74452 12.5274 10.5184C11.5988 11.406 10.2446 12.6678 9.40142 13.4535C9.22395 13.6189 9.06912 13.7631 8.94565 13.8784C8.87098 13.9481 8.7182 13.9438 8.7182 13.9438V3.89487C8.7182 3.89487 9.60577 2.87936 10.8862 2.69095Z" fill="currentColor"/>
</svg>
