<svg width="1em" height="1em" viewBox="0 0 17 17" fill="none" xmlns="http://www.w3.org/2000/svg">
<path d="M8.94079 1.50732C5.35109 1.50732 2.41406 4.44695 2.41406 8.03982C2.41406 11.6327 5.35109 14.5723 8.94079 14.5723C12.5305 14.5723 15.4675 11.6327 15.4675 8.03982C15.4675 4.44695 12.5631 1.50732 8.94079 1.50732ZM11.9431 10.9468C11.8125 11.1428 11.5841 11.2081 11.3883 11.0774C9.85453 10.1302 7.92914 9.93425 5.64479 10.4568C5.41636 10.5222 5.22055 10.3589 5.15529 10.1629C5.09002 9.93425 5.25319 9.73827 5.44899 9.67295C7.92915 9.11769 10.083 9.34632 11.7799 10.3915C12.0083 10.4895 12.041 10.7508 11.9431 10.9468ZM12.7263 9.15035C12.5631 9.37899 12.2694 9.47697 12.041 9.31366C10.2788 8.2358 7.60281 7.90917 5.54689 8.56242C5.28582 8.62775 4.99212 8.4971 4.92685 8.2358C4.86158 7.9745 4.99212 7.68054 5.25319 7.61521C7.63544 6.89664 10.5725 7.25592 12.5958 8.4971C12.7916 8.59509 12.8895 8.92171 12.7263 9.15035ZM12.7916 7.32125C10.703 6.08007 7.21121 5.94942 5.22055 6.57001C4.89422 6.668 4.56788 6.47202 4.46998 6.17806C4.37208 5.85144 4.56788 5.52481 4.86158 5.42682C7.17857 4.74091 10.9967 4.87156 13.4116 6.30871C13.7053 6.47202 13.8032 6.86397 13.64 7.15794C13.4769 7.38657 13.0853 7.48456 12.7916 7.32125Z" fill="currentColor"/>
</svg>
