<svg width="1em" height="1em" viewBox="0 0 18 17" fill="none" xmlns="http://www.w3.org/2000/svg">
<path d="M5.52516 5.30439C5.51799 5.08219 5.63985 4.92086 5.78731 4.77577C5.9818 4.59118 6.19606 4.42821 6.4263 4.28977C6.53129 4.22562 6.65612 4.20117 6.77785 4.22093C6.89957 4.24069 7.01001 4.30333 7.08884 4.39732C7.36741 4.68745 7.61675 5.00382 7.83331 5.34193C7.94055 5.49402 8.02153 5.66272 8.07293 5.84113C8.09347 5.91075 8.09481 5.98455 8.0768 6.05486C8.05879 6.12516 8.02209 6.1894 7.97053 6.24089C7.85239 6.35578 7.72649 6.46257 7.59369 6.56049C7.52678 6.61333 7.47702 6.6845 7.45062 6.76514C7.42422 6.84578 7.42234 6.93233 7.4452 7.01403C7.52722 7.39763 7.71306 7.75188 7.98282 8.03879C8.3106 8.43528 8.73293 8.74459 9.21164 8.93876C9.32927 8.99869 9.46405 9.01695 9.5936 8.99051C9.66455 8.97133 9.72761 8.93051 9.77383 8.87383C9.79486 8.84734 9.81641 8.82111 9.83801 8.79484C9.89002 8.73156 9.94227 8.66798 9.98785 8.59988C10.0715 8.47964 10.1993 8.39655 10.3439 8.36831C10.4885 8.34007 10.6386 8.36892 10.762 8.4487C11.1091 8.64825 11.4369 8.87921 11.741 9.13864C11.7732 9.16603 11.8061 9.193 11.839 9.22003C11.8793 9.25305 11.9197 9.28625 11.9591 9.32026C12.0439 9.38435 12.1052 9.47424 12.1335 9.57614C12.1618 9.67804 12.1556 9.78633 12.1158 9.88439C12.0525 10.0493 11.9603 10.2018 11.8434 10.3349C11.6981 10.5349 11.5131 10.7034 11.2996 10.83C11.1976 10.8894 11.083 10.9242 10.9649 10.9318C10.8468 10.9394 10.7286 10.9195 10.6197 10.8736C9.79117 10.5431 9.01703 10.0921 8.32279 9.53536C7.64376 8.9815 7.05035 8.332 6.56147 7.60758C6.15011 7.00788 5.82285 6.3556 5.58865 5.66864C5.56371 5.58555 5.54321 5.50122 5.52721 5.416C5.52266 5.37897 5.52197 5.34157 5.52516 5.30439Z" fill="currentColor"/>
<path d="M10.9486 4.94181C10.4246 4.49199 9.7579 4.23864 9.06472 4.22595L9.03704 4.22578C8.99988 4.22546 8.96234 4.22513 8.92545 4.23001C8.91689 4.22973 8.90837 4.23115 8.90037 4.23418C8.89237 4.23721 8.88506 4.24178 8.87887 4.24764C8.87267 4.25349 8.86771 4.26051 8.86428 4.26829C8.86085 4.27606 8.85902 4.28443 8.85889 4.29291C8.85447 4.31079 8.85724 4.32967 8.8666 4.34557C8.87596 4.36147 8.89118 4.37314 8.90906 4.37814C8.93007 4.38389 8.95179 4.38663 8.97358 4.38626C9.19731 4.3875 9.4202 4.41337 9.63817 4.46337C10.0504 4.55282 10.4363 4.73531 10.7658 4.99664C11.0952 5.25797 11.3594 5.59109 11.5377 5.97008C11.7495 6.43132 11.8545 6.93364 11.8449 7.44027C11.8449 7.49404 11.8613 7.54782 11.9248 7.54173C11.9883 7.53564 12.0037 7.49303 12.0037 7.43418C12.0008 7.18371 11.9768 6.93392 11.932 6.68742C11.8206 6.00941 11.4726 5.39164 10.9486 4.94181Z" fill="currentColor"/>
<path d="M11.0383 6.97567C11.0348 6.69379 10.9648 6.41663 10.8337 6.16643C10.7027 5.91622 10.5142 5.69993 10.2836 5.5349C10.0144 5.34754 9.70141 5.23125 9.37425 5.19704C9.34225 5.19293 9.31026 5.19018 9.27806 5.18741C9.25462 5.18539 9.23106 5.18337 9.20733 5.1808C9.15101 5.17471 9.11722 5.15138 9.12234 5.09456C9.12746 5.03774 9.1633 5.01745 9.22474 5.02151C10.132 5.0763 10.9041 5.58462 11.1417 6.53126C11.1852 6.71379 11.2068 6.90075 11.2062 7.08829V7.13902C11.2062 7.18975 11.1735 7.22323 11.1233 7.22222C11.1121 7.22185 11.1012 7.21923 11.0911 7.21453C11.0811 7.20984 11.0721 7.20315 11.0647 7.19489C11.0573 7.18663 11.0517 7.17696 11.0482 7.16649C11.0447 7.15601 11.0434 7.14494 11.0444 7.13395C11.0376 7.09446 11.0379 7.05428 11.0382 7.0065L11.0383 6.97567Z" fill="currentColor"/>
<path d="M10.3897 6.64519C10.2945 6.12063 9.94731 5.87915 9.44964 5.84566C9.4097 5.84262 9.36669 5.85277 9.35748 5.90756C9.34826 5.96235 9.3882 5.99786 9.45988 5.99786C9.50352 6.0007 9.54694 6.00613 9.58993 6.01409C9.7822 6.03933 9.95739 6.13665 10.0794 6.28601C10.1955 6.45092 10.2581 6.64703 10.2586 6.84811C10.2607 6.90899 10.2811 6.94957 10.3416 6.94957C10.402 6.94957 10.4143 6.9029 10.4143 6.84811C10.4094 6.78011 10.4012 6.71239 10.3897 6.64519Z" fill="currentColor"/>
<path d="M5.78917 13.516V12.8433C5.79076 12.8342 5.79044 12.8248 5.78822 12.8157C5.786 12.8067 5.78193 12.7982 5.77627 12.7908C5.77061 12.7834 5.76347 12.7772 5.75529 12.7726C5.74712 12.768 5.73809 12.7652 5.72875 12.7642C5.16785 12.6063 4.65015 12.325 4.21422 11.9413C3.8966 11.6551 3.63214 11.3158 3.43289 10.9389C3.15204 10.3945 2.96514 9.80739 2.87992 9.20187C2.77433 8.4423 2.73766 7.67488 2.77035 6.90882C2.77752 6.55168 2.79595 6.19859 2.83691 5.84144C2.90223 5.16276 3.07502 4.4985 3.34892 3.87308C3.68714 3.1041 4.3007 2.4864 5.07133 2.13909C5.59628 1.90107 6.14854 1.7273 6.71591 1.62163C7.2723 1.51721 7.83564 1.45312 8.40145 1.42987C8.91147 1.412 9.42207 1.41945 9.93134 1.45219C10.6602 1.48268 11.3825 1.60229 12.0818 1.80832C12.6002 1.95641 13.0935 2.1804 13.5451 2.4729C13.9852 2.77223 14.3411 3.17761 14.5794 3.65088C14.8595 4.20363 15.0499 4.79668 15.1436 5.4082C15.2045 5.77126 15.2445 6.13745 15.2634 6.505C15.29 6.96057 15.287 7.41816 15.2696 7.8717C15.2522 8.32523 15.2132 8.76558 15.1569 9.20998C15.0857 9.87699 14.8788 10.5228 14.5487 11.1083C14.1189 11.8491 13.4305 12.4085 12.6133 12.681C12.0544 12.8749 11.4774 13.0129 10.8908 13.0929C10.4618 13.1518 10.0317 13.1944 9.59955 13.2116C9.2688 13.2269 8.93804 13.2228 8.60728 13.2177C8.43853 13.2177 8.27061 13.2029 8.10277 13.1881L8.04714 13.1832C8.02884 13.1798 8.00993 13.1819 7.9928 13.1891C7.97567 13.1963 7.96108 13.2084 7.95088 13.2238C7.57404 13.6723 7.18286 14.1086 6.78861 14.5428C6.7168 14.6221 6.63365 14.6904 6.54182 14.7458C6.48154 14.7849 6.41281 14.8095 6.34117 14.8175C6.26954 14.8255 6.197 14.8168 6.12942 14.7919C6.06185 14.767 6.00113 14.7267 5.95216 14.6743C5.90319 14.6218 5.86735 14.5587 5.84754 14.4901C5.80851 14.368 5.78916 14.2406 5.79019 14.1126C5.78917 13.9117 5.78917 13.7139 5.78917 13.516ZM6.24486 14.3673L6.29299 14.3227L7.14804 13.3821C7.4771 13.0202 7.80581 12.658 8.13418 12.2954C8.15032 12.2733 8.17209 12.2558 8.19728 12.2448C8.22247 12.2337 8.25016 12.2295 8.27754 12.2325C8.38916 12.2437 8.50078 12.2478 8.61342 12.2488C9.00255 12.2488 9.39168 12.2488 9.78081 12.2214C10.1341 12.194 10.4864 12.1514 10.8366 12.0966C11.2136 12.0315 11.5869 11.9465 11.9548 11.8419C12.774 11.6238 13.4079 11.157 13.8062 10.4011C14.0414 9.93641 14.1889 9.43301 14.2414 8.91574C14.3037 8.4282 14.3409 7.93785 14.3531 7.44657C14.3712 6.82942 14.3287 6.21199 14.2261 5.60301C14.1549 5.16179 14.0269 4.73146 13.8452 4.32255C13.6137 3.81524 13.286 3.39519 12.7812 3.1253C12.007 2.71134 11.1694 2.52668 10.3061 2.43232C10.0614 2.40594 9.81665 2.39173 9.57088 2.3826C9.06766 2.35689 8.56336 2.3596 8.06045 2.39072C7.69877 2.41731 7.33903 2.46542 6.98318 2.53479C6.45985 2.62931 5.95359 2.80028 5.48094 3.0421C5.20692 3.17929 4.95832 3.36145 4.74569 3.58087C4.40107 3.9625 4.14828 4.4166 4.00634 4.909C3.83796 5.48247 3.74604 6.07531 3.73293 6.67242C3.69998 7.26952 3.70751 7.86813 3.75546 8.46424C3.78529 8.81898 3.84524 9.17061 3.93466 9.51538C4.06771 10.0527 4.32582 10.5516 4.68834 10.9724C5.07973 11.4016 5.58558 11.7126 6.14757 11.8693C6.21823 11.8906 6.24998 11.915 6.24998 11.9941C6.24588 12.1889 6.24725 12.3837 6.24861 12.5785C6.24929 12.6759 6.24998 12.7733 6.24998 12.8707L6.24486 14.3673Z" fill="currentColor"/>
</svg>
