<svg width="1em" height="1em" viewBox="0 0 18 17" fill="none" xmlns="http://www.w3.org/2000/svg">
<path d="M4.91301 13.5233C6.93319 13.5233 7.21525 11.0327 8.59507 8.81036C8.5417 9.60734 8.58744 10.3047 8.73991 10.7952C9.34215 12.7033 11.4081 12.8489 12.3457 10.9101C13.6722 8.18197 14.0533 7.53825 15.3874 5.56878C16.2717 4.27369 15.2502 3.43072 14.061 4.03612C13.4511 4.34266 12.4677 5.12431 11.2327 6.76426C11.4462 5.51514 11.3928 3.40007 9.59372 3.52268C8.64843 3.58399 7.42108 4.65685 5.74395 7.41564C5.88117 5.86765 5.93454 4.7718 5.26368 4.19705C4.80629 3.80622 3.72378 3.65296 3.0758 4.49592C2.42019 5.34655 2.26773 7.00948 2.33634 8.75672C2.48118 12.4198 3.76952 13.5233 4.91301 13.5233Z" fill="currentColor"/>
</svg>
