<svg width="1em" height="1em" viewBox="0 0 17 17" fill="none" xmlns="http://www.w3.org/2000/svg">
<path d="M8.86017 1.34033C12.5604 1.34033 15.5602 4.34002 15.5602 8.04033C15.5602 11.7406 12.5604 14.7403 8.86017 14.7403C7.63146 14.7403 6.48 14.4096 5.48998 13.8323L2.16296 14.7403L3.06877 11.4114C2.49111 10.4212 2.16016 9.26945 2.16016 8.04033C2.16016 4.34002 5.15985 1.34033 8.86017 1.34033ZM6.44235 4.89691C6.35566 4.903 6.27067 4.92418 6.19328 4.96377C6.13523 4.99347 6.08133 5.03639 5.99665 5.11636C5.91669 5.19186 5.87034 5.2578 5.82151 5.32138C5.57381 5.64388 5.44068 6.03975 5.44316 6.44639C5.4445 6.7751 5.52989 7.09456 5.66473 7.39284C5.93818 7.99772 6.38913 8.63717 6.9848 9.23019C7.12788 9.37263 7.26807 9.51661 7.41923 9.64967C8.15855 10.3006 9.0396 10.77 9.99227 11.0206C9.99227 11.0206 10.3675 11.0782 10.373 11.0786C10.4972 11.0853 10.6213 11.0763 10.7458 11.0699C10.9409 11.0599 11.1315 11.0071 11.3039 10.9152C11.4148 10.8562 11.4673 10.8269 11.5603 10.7682C11.5603 10.7682 11.5889 10.7489 11.644 10.7079C11.7344 10.6405 11.7903 10.593 11.8655 10.5149C11.921 10.4573 11.9687 10.3892 12.0056 10.3125C12.0579 10.2032 12.1107 9.99445 12.1316 9.82113C12.1477 9.68873 12.1428 9.61637 12.1411 9.57155C12.1382 9.49946 12.0786 9.42529 12.0134 9.3938L11.6238 9.21866C11.6238 9.21866 11.0412 8.96513 10.6849 8.80259C10.6478 8.78564 10.6072 8.7778 10.5664 8.77532C10.477 8.76983 10.3768 8.79314 10.3131 8.86028C10.3098 8.85894 10.2654 8.89726 9.78068 9.48452C9.75395 9.51648 9.6913 9.58596 9.58297 9.57946C9.56662 9.57832 9.55034 9.57597 9.53446 9.57182C9.49057 9.56023 9.44783 9.54495 9.40602 9.52726C9.32314 9.49209 9.29406 9.47876 9.23745 9.45437C8.85066 9.28539 8.49569 9.05934 8.18193 8.78269C8.09778 8.70859 8.01952 8.62879 7.93885 8.5506C7.65732 8.27771 7.42683 7.98747 7.25537 7.70118C7.24601 7.68557 7.23158 7.66299 7.21604 7.63773C7.18799 7.5921 7.15705 7.53783 7.14735 7.50058C7.12244 7.40202 7.18851 7.32283 7.18851 7.32283C7.18851 7.32283 7.35159 7.14454 7.42736 7.04759C7.50026 6.95426 7.56318 6.86301 7.60325 6.79795C7.68218 6.67107 7.70717 6.53995 7.66569 6.43878C7.47772 5.98052 7.28378 5.52472 7.08391 5.07152C7.04446 4.98208 6.92712 4.9171 6.82041 4.90478C6.78428 4.90061 6.74816 4.89641 6.71188 4.89403C6.62205 4.88964 6.53205 4.89061 6.44235 4.89691Z" fill="currentColor"/>
</svg>
