<svg width="1em" height="1em" viewBox="0 0 17 17" fill="none" xmlns="http://www.w3.org/2000/svg">
<path d="M13.99 2.20947C14.0931 2.20947 14.1962 2.26102 14.2477 2.31255C14.2993 2.41563 14.2993 2.5187 14.2477 2.62178L10.1762 9.83715L12.7531 14.5787C12.8046 14.6818 12.8046 14.7848 12.7531 14.8879C12.7015 14.9395 12.5985 14.991 12.4954 14.991H10.64C10.3823 14.991 10.2277 14.7848 10.1246 14.6303L7.49615 9.83715C7.65079 9.63099 11.6193 2.57024 11.6193 2.57024C11.7223 2.36409 11.8769 2.20947 12.1346 2.20947H13.99ZM6.25923 4.73486C6.51693 4.73486 6.67154 4.94102 6.77461 5.09563L8.0631 7.31178C7.95999 7.41483 6.05308 10.8164 6.05308 10.8164C5.95 10.971 5.79538 11.1771 5.53769 11.1771H3.73385C3.63077 11.1771 3.52769 11.1256 3.47616 11.0741C3.42461 10.971 3.42461 10.8679 3.47616 10.7648L5.38308 7.31178L4.14616 5.14717C4.09461 5.04409 4.09461 4.94102 4.14616 4.83794C4.19769 4.7864 4.30077 4.73486 4.40385 4.73486H6.25923Z" fill="currentColor"/>
</svg>
