<svg width="1em" height="1em" viewBox="0 0 17 17" fill="none" xmlns="http://www.w3.org/2000/svg">
<path d="M6.66586 10.1149L7.294 9.97219C7.30712 9.96922 7.32932 9.96426 7.35556 9.95584C7.52906 9.91014 7.67772 9.80007 7.77024 9.64881C7.86275 9.49756 7.89189 9.31693 7.85151 9.14499L7.84898 9.13409C7.82822 9.05171 7.79194 8.97388 7.74203 8.90461C7.67169 8.81691 7.58463 8.74351 7.48572 8.68852C7.36927 8.62333 7.24741 8.56796 7.12145 8.52298L6.43277 8.27566C6.0463 8.1344 5.65983 7.99712 5.26932 7.8628C5.01655 7.77458 4.80213 7.69677 4.61596 7.63977C4.58052 7.63014 4.54536 7.61956 4.51051 7.60805C4.28549 7.54064 4.12707 7.51239 3.99337 7.5114C3.90401 7.50813 3.81499 7.52403 3.73252 7.55799C3.64636 7.59463 3.56901 7.64867 3.50549 7.71659C3.47397 7.75174 3.44433 7.78846 3.41669 7.82662C3.36294 7.90774 3.3186 7.99452 3.2845 8.08534C3.15655 8.45658 3.09277 8.84624 3.09581 9.23817C3.09833 9.59205 3.10792 10.0465 3.3062 10.3548C3.35413 10.4341 3.4182 10.5025 3.49439 10.5555C3.63565 10.6512 3.77793 10.6641 3.92677 10.6745C4.14876 10.6899 4.36319 10.6368 4.57761 10.5878L6.66435 10.1144L6.66586 10.1149ZM13.6738 6.83933C13.5023 6.48577 13.2718 6.16294 12.9917 5.88425C12.9555 5.84881 12.9167 5.81601 12.8756 5.78612C12.8377 5.75817 12.7983 5.73219 12.7576 5.7083C12.7156 5.68574 12.6725 5.66539 12.6284 5.64734C12.5413 5.6137 12.4479 5.5985 12.3544 5.60274C12.2651 5.60769 12.1779 5.63247 12.0986 5.67361C11.9791 5.73209 11.8494 5.82626 11.6769 5.98338C11.6531 6.00667 11.6234 6.03294 11.5961 6.05772C11.4544 6.18906 11.2959 6.35113 11.1077 6.53947C10.8166 6.82842 10.5306 7.11886 10.2455 7.41178L9.73593 7.9312C9.64288 8.02593 9.55815 8.12823 9.48265 8.237C9.41801 8.32904 9.37226 8.43257 9.34794 8.54181C9.3343 8.62573 9.33635 8.71139 9.354 8.79458L9.35652 8.80549C9.39679 8.97725 9.50333 9.12696 9.65371 9.2231C9.8041 9.31925 9.98658 9.35432 10.1628 9.32094C10.184 9.318 10.205 9.31403 10.2258 9.30904L12.9412 8.69248C13.1556 8.64391 13.3726 8.5993 13.5648 8.48927C13.694 8.41642 13.8166 8.34356 13.9008 8.19685C13.9457 8.11605 13.9729 8.0269 13.9805 7.93516C14.0224 7.57137 13.8292 7.15851 13.6738 6.83933V6.83933ZM8.81264 7.96093C9.00941 7.71808 9.0094 7.35627 9.02656 7.05988C9.08609 6.0711 9.14815 5.08233 9.1981 4.09305C9.21677 3.71836 9.25763 3.34862 9.23493 2.97095C9.21626 2.6597 9.21425 2.30185 9.01395 2.04611C8.66078 1.59509 7.90701 1.63226 7.39289 1.70264C7.23429 1.72416 7.07686 1.75327 6.92116 1.78987C6.76475 1.82654 6.60936 1.86669 6.458 1.91477C5.96457 2.07337 5.27084 2.3648 5.15378 2.92337C5.08719 3.23908 5.2446 3.56174 5.36569 3.85019C5.51352 4.19912 5.71482 4.51384 5.89847 4.84244C6.38433 5.71029 6.87877 6.57318 7.3717 7.43656C7.51953 7.69429 7.67946 8.02041 7.96452 8.15423C7.9837 8.16216 8.00287 8.1691 8.02254 8.17554C8.15019 8.22312 8.28994 8.23204 8.42264 8.20181L8.44635 8.19685C8.56946 8.16365 8.68045 8.09773 8.76773 8.00703C8.78388 7.99216 8.79851 7.97729 8.81314 7.96093H8.81264ZM8.57702 10.6081C8.50023 10.502 8.39123 10.4224 8.26563 10.3809C8.14003 10.3393 8.00425 10.3378 7.87774 10.3766C7.84798 10.3863 7.81898 10.398 7.79096 10.4118C7.74761 10.4335 7.70625 10.4589 7.66735 10.4876C7.55629 10.5736 7.45707 10.6734 7.3722 10.7845C7.35051 10.8118 7.33033 10.848 7.30409 10.8718L6.86717 11.4616C6.61995 11.7926 6.37525 12.1242 6.13358 12.4607C5.97516 12.6783 5.83894 12.8622 5.73046 13.0243C5.71028 13.055 5.68909 13.0887 5.66992 13.1165C5.54026 13.3127 5.4671 13.4565 5.42926 13.5843C5.40099 13.6693 5.39204 13.7593 5.40302 13.848C5.41513 13.9402 5.44692 14.0289 5.49586 14.1087C5.52209 14.1484 5.55035 14.187 5.58062 14.2242C5.646 14.2981 5.71962 14.3646 5.80009 14.4224C6.1018 14.6286 6.43176 14.7768 6.77888 14.8913C7.06797 14.9855 7.36817 15.042 7.6719 15.0588C7.72386 15.0613 7.77583 15.0603 7.82729 15.0559C7.87501 15.0515 7.92249 15.0449 7.96957 15.036C8.01667 15.0253 8.06315 15.012 8.10882 14.9964C8.1976 14.9637 8.27839 14.913 8.34595 14.8477C8.41002 14.7847 8.45947 14.7089 8.49024 14.6252C8.5407 14.5012 8.574 14.3446 8.5962 14.1117C8.59771 14.0785 8.60275 14.0388 8.60628 14.0026C8.62344 13.8093 8.63151 13.5814 8.64362 13.3147C8.66532 12.9038 8.68197 12.4949 8.69508 12.0851L8.72334 11.3555C8.7299 11.188 8.72434 11.0016 8.67692 10.8346C8.65607 10.7544 8.62235 10.6779 8.57702 10.6081V10.6081ZM13.5078 11.7495C13.417 11.6509 13.2878 11.5532 13.084 11.4323C13.0547 11.416 13.0199 11.3946 12.9881 11.3758C12.8186 11.2752 12.6143 11.1701 12.3756 11.0428C12.0088 10.8445 11.642 10.6522 11.2712 10.4609L10.6168 10.1199C10.583 10.11 10.5487 10.0862 10.5164 10.0708C10.3906 10.0077 10.257 9.96087 10.1189 9.93155C10.0713 9.92253 10.023 9.91756 9.97457 9.91668C9.94321 9.91652 9.91186 9.91834 9.88073 9.92214C9.74973 9.94201 9.62846 10.002 9.53424 10.0936C9.44001 10.1852 9.37764 10.3037 9.35602 10.4321C9.34643 10.5139 9.34946 10.5967 9.3656 10.677C9.39739 10.8485 9.47509 11.0175 9.55581 11.1657L9.90495 11.8095C10.0997 12.1723 10.2965 12.5331 10.4983 12.8929C10.6284 13.1274 10.7369 13.3281 10.8383 13.4946C10.8575 13.5258 10.8792 13.5596 10.8958 13.5888C11.0195 13.7885 11.1183 13.9144 11.2187 14.0051C11.2856 14.0683 11.3659 14.1162 11.4538 14.1453C11.5417 14.1745 11.6351 14.1841 11.7273 14.1736C11.7753 14.1679 11.823 14.1596 11.8701 14.1489C11.9666 14.1235 12.0599 14.0874 12.1481 14.0413C12.4137 13.8951 12.6584 13.7151 12.8761 13.506C13.1375 13.2533 13.3685 12.9777 13.5482 12.6625C13.5734 12.6179 13.5946 12.5718 13.6127 12.5237C13.6296 12.4797 13.6443 12.4348 13.6566 12.3894C13.6672 12.3428 13.6753 12.2962 13.6809 12.2491C13.6899 12.1566 13.6791 12.0632 13.6491 11.975C13.6194 11.8904 13.5712 11.8132 13.5078 11.749V11.7495Z" fill="currentColor"/>
</svg>
