<svg width="1em" height="1em" viewBox="0 0 17 17" fill="none" xmlns="http://www.w3.org/2000/svg">
<path d="M5.51675 3.91064C5.94512 3.91064 6.34052 3.94379 6.70298 4.04322C7.06544 4.10951 7.36198 4.24209 7.62563 4.40782C7.88921 4.57354 8.08692 4.80555 8.21871 5.10385C8.3505 5.40216 8.41643 5.76675 8.41643 6.16449C8.41643 6.62852 8.31761 7.02629 8.08692 7.32458C7.88921 7.62286 7.5597 7.88805 7.16429 8.0869C7.72445 8.25259 8.15279 8.55094 8.41643 8.94866C8.68001 9.34637 8.84476 9.84357 8.84476 10.407C8.84476 10.8711 8.74594 11.2688 8.58118 11.6002C8.41643 11.9317 8.15279 12.23 7.85624 12.4289C7.5597 12.6278 7.19724 12.7935 6.80184 12.8929C6.40642 12.9923 6.01102 13.0586 5.6156 13.0586H1.2002V3.91064H5.51675ZM5.25315 7.62286C5.6156 7.62286 5.91216 7.52343 6.14282 7.35774C6.37347 7.19198 6.47232 6.89368 6.47232 6.52908C6.47232 6.33022 6.43937 6.13135 6.37347 5.99877C6.30757 5.86619 6.20872 5.76675 6.07692 5.66732C5.94512 5.60103 5.81331 5.53474 5.64855 5.50159C5.4838 5.46845 5.31905 5.46845 5.12134 5.46845H3.2102V7.62286H5.25315ZM5.352 11.534C5.5497 11.534 5.74741 11.5008 5.91216 11.4677C6.07692 11.4346 6.24167 11.3682 6.37347 11.2688C6.50528 11.1694 6.60413 11.0699 6.70298 10.9042C6.76889 10.7385 6.83479 10.5396 6.83479 10.3076C6.83479 9.84358 6.70299 9.51213 6.43937 9.28011C6.17577 9.08125 5.81331 8.98182 5.38495 8.98182H3.2102V11.534H5.352ZM11.7115 11.5008C11.9751 11.766 12.3705 11.8985 12.8977 11.8985C13.2602 11.8985 13.5897 11.7991 13.8533 11.6334C14.1169 11.4346 14.2817 11.2356 14.3476 11.0368H15.9622C15.6985 11.8323 15.3032 12.3957 14.7759 12.7604C14.2487 13.0918 13.6227 13.2907 12.8648 13.2907C12.3375 13.2907 11.8762 13.1912 11.4479 13.0255C11.0195 12.8598 10.69 12.6278 10.3935 12.2963C10.0969 11.998 9.86624 11.6334 9.73445 11.2025C9.5697 10.7717 9.50377 10.3076 9.50377 9.77731C9.50377 9.2801 9.5697 8.81606 9.73445 8.38519C9.89921 7.95431 10.1299 7.5897 10.4264 7.25825C10.723 6.95997 11.0854 6.69481 11.4809 6.52908C11.9092 6.36336 12.3375 6.26393 12.8648 6.26393C13.4249 6.26393 13.9192 6.36336 14.3476 6.59538C14.7759 6.82739 15.1054 7.09256 15.369 7.49027C15.6327 7.85488 15.8304 8.28576 15.9622 8.7498C16.028 9.21384 16.061 9.67782 16.028 10.2082H11.2502C11.2502 10.7385 11.4479 11.2356 11.7115 11.5008ZM13.7874 8.02064C13.5567 7.78862 13.1943 7.65602 12.7659 7.65602C12.4694 7.65602 12.2387 7.72229 12.041 7.82172C11.8433 7.92114 11.7115 8.05374 11.5797 8.18633C11.4479 8.31892 11.382 8.48461 11.349 8.65037C11.3161 8.81606 11.2832 8.94866 11.2832 9.08125H14.2487C14.1829 8.58404 14.018 8.25259 13.7874 8.02064ZM10.8877 4.54039H14.5782V5.4353H10.8877V4.54039Z" fill="currentColor"/>
</svg>
