<svg width="1em" height="1em" viewBox="0 0 18 17" fill="none" xmlns="http://www.w3.org/2000/svg">
<path d="M9.9351 1.40311C6.62089 0.946341 3.47773 3.00483 2.57109 6.22586C1.66446 9.44691 3.27223 12.8432 6.33788 14.183C6.29763 13.6684 6.33429 13.1506 6.44663 12.6468C6.57032 12.0849 7.31507 8.98669 7.31507 8.98669C7.16667 8.65444 7.09245 8.29378 7.09758 7.9299C7.09758 6.93495 7.67173 6.19262 8.38606 6.19262C8.64569 6.18876 8.89419 6.29803 9.06685 6.49202C9.23951 6.686 9.31931 6.94553 9.2854 7.20302C9.2854 7.80615 8.89788 8.71862 8.69634 9.57435C8.615 9.8928 8.68984 10.2309 8.89794 10.4853C9.10604 10.7397 9.42269 10.8799 9.75085 10.8632C11.0223 10.8632 11.8753 9.23412 11.8753 7.31129C11.8753 5.83692 10.8986 4.73373 9.09934 4.73373C8.22948 4.7001 7.38386 5.02458 6.75966 5.63148C6.13545 6.23839 5.78723 7.07471 5.7962 7.94538C5.77704 8.42322 5.93116 8.89188 6.23016 9.26507C6.34518 9.35063 6.38956 9.50212 6.33891 9.63625C6.30799 9.75994 6.23016 10.0538 6.19924 10.1621C6.1862 10.2361 6.13881 10.2996 6.07152 10.3331C6.00423 10.3667 5.92503 10.3664 5.85805 10.3322C4.93034 9.961 4.49328 8.94026 4.49328 7.77526C4.49328 5.86785 6.091 3.58414 9.28648 3.58414C11.8299 3.58414 13.5205 5.44514 13.5205 7.43497C13.5205 10.0538 12.0624 12.0231 9.90703 12.0231C9.25231 12.0438 8.63236 11.7289 8.26292 11.1879C8.26292 11.1879 7.87532 12.7396 7.79901 13.0334C7.64324 13.5405 7.41328 14.0217 7.11665 14.4614C7.73482 14.6489 8.37762 14.7428 9.02364 14.7398C10.8007 14.741 12.5053 14.0353 13.7616 12.7781C15.0179 11.521 15.7227 9.81561 15.7207 8.03817C15.7187 4.6919 13.2493 1.85987 9.9351 1.40311Z" fill="currentColor"/>
</svg>
