<svg width="1em" height="1em" viewBox="0 0 18 17" fill="none" xmlns="http://www.w3.org/2000/svg">
<path d="M8.93487 14.5664C8.13737 14.5664 7.60567 14.1899 7.13074 13.8584C6.79321 13.6194 6.47659 13.3924 6.10321 13.3297C5.92101 13.2968 5.73582 13.2849 5.56556 13.2849C5.24894 13.2849 4.99804 13.3327 4.81882 13.3685C4.70531 13.3894 4.60972 13.4074 4.53505 13.4074C4.45739 13.4074 4.35882 13.3865 4.31999 13.255C4.28713 13.1475 4.26622 13.046 4.24532 12.9474C4.19155 12.6995 4.14675 12.5471 4.05415 12.5322C3.0565 12.3799 2.4591 12.1499 2.34261 11.878C2.33365 11.8482 2.3217 11.8183 2.3217 11.7944C2.31572 11.7108 2.37547 11.6421 2.4591 11.6271C3.25065 11.4957 3.96155 11.0746 4.56193 10.3816C5.0279 9.84393 5.25491 9.32421 5.27582 9.26746C5.27582 9.26143 5.28179 9.26143 5.28179 9.26143C5.39531 9.02552 5.4192 8.82539 5.3505 8.66111C5.22206 8.35345 4.79791 8.22199 4.50817 8.13241C4.43349 8.11144 4.37077 8.08759 4.317 8.06963C4.06908 7.97108 3.65688 7.76197 3.71064 7.47226C3.74948 7.26315 4.02727 7.11381 4.25428 7.11381C4.317 7.11381 4.37077 7.12279 4.41557 7.14671C4.66947 7.26315 4.89947 7.32292 5.09661 7.32292C5.34154 7.32292 5.45803 7.23032 5.4879 7.20044C5.48192 7.06899 5.47296 6.93164 5.464 6.8032C5.40426 5.88916 5.33556 4.75411 5.6253 4.10295C6.49451 2.15544 8.34045 2.00012 8.8871 2.00012C8.90205 2.00012 9.12603 1.99414 9.12603 1.99414C9.135 1.99414 9.14693 1.99414 9.15892 1.99414C9.70551 1.99414 11.5515 2.14648 12.4207 4.09698C12.7134 4.74814 12.6417 5.88618 12.582 6.79717L12.576 6.84199C12.57 6.96447 12.561 7.08098 12.5551 7.20044C12.585 7.22436 12.6925 7.31394 12.9135 7.31696C13.1047 7.31099 13.3138 7.24821 13.5527 7.14068C13.6274 7.10785 13.7051 7.09592 13.7618 7.09592C13.8454 7.09592 13.9291 7.11683 14.0008 7.14068H14.0068C14.2069 7.21538 14.3383 7.35575 14.3383 7.50214C14.3443 7.63956 14.2368 7.8486 13.726 8.05469C13.6722 8.0756 13.6095 8.09952 13.5348 8.11747C13.2511 8.2041 12.8269 8.34145 12.6925 8.64617C12.6178 8.80744 12.6477 9.01353 12.7612 9.24656C12.7612 9.25252 12.7671 9.25252 12.7671 9.25252C12.8 9.33613 13.6633 11.2956 15.5839 11.6152C15.6675 11.6301 15.7213 11.6988 15.7213 11.7824C15.7213 11.8123 15.7153 11.8422 15.7004 11.8691C15.5839 12.1439 14.9925 12.368 13.9888 12.5233C13.8962 12.5382 13.8515 12.6905 13.7977 12.9385C13.7768 13.04 13.7528 13.1386 13.723 13.2461C13.6931 13.3447 13.6304 13.3984 13.5229 13.3984H13.508C13.4392 13.3984 13.3466 13.3894 13.2241 13.3656C13.0091 13.3208 12.7732 13.2879 12.4774 13.2879C12.3012 13.2879 12.119 13.3029 11.9398 13.3327C11.5694 13.3924 11.2498 13.6225 10.9122 13.8614C10.4313 14.1899 9.89666 14.5664 9.10512 14.5664C9.10512 14.5664 8.95879 14.5664 8.93487 14.5664Z" fill="currentColor"/>
</svg>
