<svg width="1em" height="1em" viewBox="0 0 17 17" fill="none" xmlns="http://www.w3.org/2000/svg">
<path d="M15.0134 5.2135C15.1066 4.92212 15.0134 4.70801 14.5701 4.70801H13.1041C12.7314 4.70801 12.5595 4.89297 12.4663 5.09693C12.4663 5.09693 11.7208 6.8015 10.6648 7.90874C10.3231 8.22925 10.1678 8.33123 9.98138 8.33123C9.88821 8.33123 9.75332 8.22925 9.75332 7.93789V5.2135C9.75332 4.86384 9.64515 4.70801 9.3345 4.70801H7.03084C6.7979 4.70801 6.65782 4.87029 6.65782 5.0241C6.65782 5.35557 7.18583 5.43201 7.24026 6.36444V8.38953C7.24026 8.83352 7.15479 8.91402 6.96841 8.91402C6.47144 8.91402 5.26256 7.20183 4.54558 5.24263C4.40508 4.86183 4.26414 4.70801 3.88948 4.70801H2.42352C2.00467 4.70801 1.9209 4.89297 1.9209 5.09693C1.9209 5.46116 2.41789 7.26772 4.23499 9.65702C5.44638 11.2887 7.15314 12.1732 8.70623 12.1732C9.63807 12.1732 9.75334 11.9768 9.75334 11.6384V10.4051C9.75334 10.0122 9.84162 9.93383 10.1367 9.93383C10.3541 9.93383 10.7269 10.0358 11.5966 10.8225C12.5906 11.7549 12.7545 12.1732 13.3135 12.1732H14.7795C15.1984 12.1732 15.4078 11.9768 15.287 11.5891C15.1548 11.2027 14.6802 10.6421 14.0505 9.97753C13.7088 9.59874 13.1963 9.19083 13.041 8.98682C12.8235 8.72462 12.8857 8.60804 13.041 8.37495C13.041 8.37495 14.827 6.01478 15.0134 5.2135Z" fill="currentColor"/>
</svg>
