<svg width="1em" height="1em" viewBox="0 0 17 17" fill="none" xmlns="http://www.w3.org/2000/svg">
<path d="M3.11824 4.58545C2.58965 4.58545 2.16113 4.99007 2.16113 5.48918V9.1041C2.16113 10.6015 3.44666 11.8153 5.03244 11.8153H10.7751C11.3037 11.8153 11.7322 11.4107 11.7322 10.9116V7.29664C11.7322 5.79929 10.4467 4.58545 8.86085 4.58545H3.11824Z" fill="currentColor"/>
<path d="M12.6847 6.78593C12.3794 7.11543 12.2111 7.53837 12.2111 7.97614V8.42538C12.2111 8.86315 12.3794 9.28609 12.6847 9.61559L14.303 11.3618C14.7394 11.8328 15.561 11.5414 15.561 10.9155V5.48603C15.561 4.86018 14.7394 4.5687 14.303 5.0397L12.6847 6.78593Z" fill="currentColor"/>
</svg>
